<?xml version="1.0" encoding="UTF-8"?>
<svg width="1024px" height="768px" viewBox="0 0 1024 768" version="1.1" xmlns="http://www.w3.org/2000/svg" xmlns:xlink="http://www.w3.org/1999/xlink">
    <!-- Generator: Sketch 53.2 (72643) - https://sketchapp.com -->
    <title>account</title>
    <desc>Created with Sketch.</desc>
    <defs>
        <linearGradient x1="41.2710175%" y1="0%" x2="58.7289825%" y2="100%" id="linearGradient-1">
            <stop stop-color="#FFFFFF" offset="0%"></stop>
            <stop stop-color="#FFFFFF" stop-opacity="0" offset="100%"></stop>
        </linearGradient>
        <linearGradient x1="100%" y1="99.0391439%" x2="0%" y2="0.960856124%" id="linearGradient-2">
            <stop stop-color="#FFFFFF" offset="0%"></stop>
            <stop stop-color="#FFFFFF" stop-opacity="0" offset="100%"></stop>
        </linearGradient>
        <linearGradient x1="100%" y1="50%" x2="0%" y2="50%" id="linearGradient-3">
            <stop stop-color="#FFFFFF" offset="0%"></stop>
            <stop stop-color="#FFFFFF" stop-opacity="0" offset="100%"></stop>
        </linearGradient>
        <rect id="path-4" x="13" y="17" width="233" height="153" rx="9"></rect>
        <filter x="-52.6%" y="-67.0%" width="205.2%" height="260.1%" filterUnits="objectBoundingBox" id="filter-5">
            <feOffset dx="0" dy="20" in="SourceAlpha" result="shadowOffsetOuter1"></feOffset>
            <feGaussianBlur stdDeviation="37.5" in="shadowOffsetOuter1" result="shadowBlurOuter1"></feGaussianBlur>
            <feComposite in="shadowBlurOuter1" in2="SourceAlpha" operator="out" result="shadowBlurOuter1"></feComposite>
            <feColorMatrix values="0 0 0 0 0   0 0 0 0 0   0 0 0 0 0  0 0 0 1 0" type="matrix" in="shadowBlurOuter1"></feColorMatrix>
        </filter>
        <linearGradient x1="31.4460666%" y1="28.6242604%" x2="68.8736728%" y2="71.3757396%" id="linearGradient-6">
            <stop stop-color="#FA6800" offset="0%"></stop>
            <stop stop-color="#FA6800" stop-opacity="0" offset="100%"></stop>
        </linearGradient>
        <path d="M12.819426,-5.17920154e-16 L247.180574,5.17920154e-16 C251.638168,-3.00926524e-16 253.254599,0.464128056 254.884229,1.33566352 C256.513858,2.20719898 257.792801,3.48614185 258.664336,5.11577148 C259.535872,6.74540111 260,8.3618323 260,12.819426 L260,157.180574 C260,161.638168 259.535872,163.254599 258.664336,164.884229 C257.792801,166.513858 256.513858,167.792801 254.884229,168.664336 C253.254599,169.535872 251.638168,170 247.180574,170 L12.819426,170 C8.3618323,170 6.74540111,169.535872 5.11577148,168.664336 C3.48614185,167.792801 2.20719898,166.513858 1.33566352,164.884229 C0.464128056,163.254599 2.00617683e-16,161.638168 -3.45280103e-16,157.180574 L3.45280103e-16,12.819426 C-2.00617683e-16,8.3618323 0.464128056,6.74540111 1.33566352,5.11577148 C2.20719898,3.48614185 3.48614185,2.20719898 5.11577148,1.33566352 C6.74540111,0.464128056 8.3618323,3.00926524e-16 12.819426,-5.17920154e-16 Z" id="path-7"></path>
        <radialGradient cx="50%" cy="54.8563058%" fx="50%" fy="54.8563058%" r="66.7361156%" gradientTransform="translate(0.500000,0.548563),scale(1.000000,0.986350),rotate(67.723697),translate(-0.500000,-0.548563)" id="radialGradient-9">
            <stop stop-color="#FFFFFF" offset="0%"></stop>
            <stop stop-color="#FFFFFF" stop-opacity="0" offset="100%"></stop>
        </radialGradient>
        <linearGradient x1="100%" y1="50.1192093%" x2="0%" y2="49.8807907%" id="linearGradient-10">
            <stop stop-color="#FFFFFF" offset="0%"></stop>
            <stop stop-color="#FFFFFF" stop-opacity="0" offset="100%"></stop>
        </linearGradient>
        <circle id="path-11" cx="14" cy="14" r="14"></circle>
    </defs>
    <g id="account" stroke="none" stroke-width="1" fill="none" fill-rule="evenodd">
        <rect fill="#000000" x="0" y="0" width="1024" height="768"></rect>
        <g id="Background" transform="translate(-1.000000, 0.000000)">
            <rect id="Rectangle-2" fill="url(#linearGradient-1)" fill-rule="evenodd" opacity="0.100000001" x="0" y="50" width="300" height="718"></rect>
            <rect id="Rectangle-2" fill="url(#linearGradient-2)" fill-rule="evenodd" opacity="0.100000001" x="300" y="50" width="725" height="718"></rect>
            <g id="Nav/Account" transform="translate(0.000000, 300.000000)">
                <g id="NavItem/Default">
                    <g id="NavItemBackground/Active">
                        <rect id="Rectangle-6" fill="url(#linearGradient-3)" fill-rule="evenodd" opacity="0.100000001" x="19" y="1" width="280" height="44"></rect>
                        <polyline id="Shape" stroke="#FFFFFF" stroke-width="1.2" stroke-linecap="round" stroke-linejoin="round" points="274 18 280 24 274 30"></polyline>
                    </g>
                    <g id="NavItemDot/BlueActive" transform="translate(8.000000, 1.000000)" fill-rule="evenodd" stroke-width="1">
                        <g id="Account" transform="translate(12.000000, 12.000000)">
                            <circle id="Oval-2" fill="#00ABFF" cx="10" cy="10" r="10"></circle>
                            <path d="M13.6376511,9.242904 L11.2169688,6.79206656 C10.9249858,6.49644619 10.9250337,6.01719933 11.2170758,5.72163874 C11.5091179,5.42607815 11.9825638,5.42612662 12.2745469,5.72174699 L16.5,9.99983784 L12.2737724,14.2782801 C11.9817746,14.5738855 11.5083286,14.5739097 11.2163013,14.2783342 C10.9242739,13.9827587 10.92425,13.5035118 11.2162478,13.2079064 L13.637522,10.7567175 L4.24774499,10.7567175 C3.83477683,10.7567175 3.5,10.4178388 3.5,9.99981077 C3.5,9.5817827 3.83477683,9.242904 4.24774499,9.242904 L13.6376511,9.242904 Z" id="Shape" fill="#FFFFFF" fill-rule="nonzero"></path>
                        </g>
                    </g>
                    <text id="Label" font-family="Roboto-Medium, Roboto" font-size="16" font-weight="400" line-spacing="44" fill="#FFFFFF">
                        <tspan x="40" y="16">   Account</tspan>
                    </text>
                </g>
                <g id="NavItem/Default" transform="translate(0.000000, 135.000000)">
                    <g id="NavItemBackground/Default" opacity="0.25" stroke="#FFFFFF" stroke-linecap="round" stroke-linejoin="round" stroke-width="1.2">
                        <polyline id="Shape" points="274 18 280 24 274 30"></polyline>
                    </g>
                    <g id="NavItemSeparator/Default" fill="#FFFFFF" fill-rule="evenodd" opacity="0.149999991">
                        <rect id="Rectangle-3" x="40" y="0" width="259" height="1"></rect>
                    </g>
                    <g id="NavItemDot/Purple" transform="translate(8.000000, 1.000000)" fill="#6C0074" fill-rule="evenodd" stroke-width="1">
                        <g id="Account" transform="translate(12.000000, 18.000000)">
                            <circle id="Oval-2" cx="4" cy="4" r="4"></circle>
                        </g>
                    </g>
                    <text id="Label" font-family="Roboto-Medium, Roboto" font-size="16" font-weight="400" line-spacing="44" fill="#FFFFFF">
                        <tspan x="40" y="16">History</tspan>
                    </text>
                </g>
                <g id="NavItem/Default" transform="translate(0.000000, 45.000000)">
                    <g id="NavItemBackground/Default" opacity="0.25" stroke="#FFFFFF" stroke-linecap="round" stroke-linejoin="round" stroke-width="1.2">
                        <polyline id="Shape" points="274 18 280 24 274 30"></polyline>
                    </g>
                    <g id="NavItemSeparator/Default" fill="#FFFFFF" fill-rule="evenodd" opacity="0.149999991">
                        <rect id="Rectangle-3" x="40" y="0" width="259" height="1"></rect>
                    </g>
                    <g id="NavItemDot/Orange" transform="translate(8.000000, 1.000000)" fill="#FA6800" fill-rule="evenodd" stroke-width="1">
                        <g id="Account" transform="translate(12.000000, 18.000000)">
                            <circle id="Oval-2" cx="4" cy="4" r="4"></circle>
                        </g>
                    </g>
                    <text id="Label" font-family="Roboto-Medium, Roboto" font-size="16" font-weight="400" line-spacing="44" fill="#FFFFFF">
                        <tspan x="40" y="16">Send</tspan>
                    </text>
                </g>
                <g id="NavItem/Default" transform="translate(0.000000, 180.000000)">
                    <g id="NavItemBackground/Default" opacity="0.25" stroke="#FFFFFF" stroke-linecap="round" stroke-linejoin="round" stroke-width="1.2">
                        <polyline id="Shape" points="274 18 280 24 274 30"></polyline>
                    </g>
                    <g id="NavItemSeparator/Default" fill="#FFFFFF" fill-rule="evenodd" opacity="0.149999991">
                        <rect id="Rectangle-3" x="40" y="0" width="259" height="1"></rect>
                    </g>
                    <g id="NavItemDot/Yellow" transform="translate(8.000000, 1.000000)" fill="#FFD87B" fill-rule="evenodd" stroke-width="1">
                        <g id="Account" transform="translate(12.000000, 18.000000)">
                            <circle id="Oval-2" cx="4" cy="4" r="4"></circle>
                        </g>
                    </g>
                    <text id="Label" font-family="Roboto-Medium, Roboto" font-size="16" font-weight="400" line-spacing="44" fill="#FFFFFF">
                        <tspan x="40" y="16">Advanced</tspan>
                    </text>
                </g>
                <g id="NavItem/Default" transform="translate(0.000000, 90.000000)">
                    <g id="NavItemBackground/Default" opacity="0.25" stroke="#FFFFFF" stroke-linecap="round" stroke-linejoin="round" stroke-width="1.2">
                        <polyline id="Shape" points="274 18 280 24 274 30"></polyline>
                    </g>
                    <g id="NavItemSeparator/Default" fill="#FFFFFF" fill-rule="evenodd" opacity="0.149999991">
                        <rect id="Rectangle-3" x="40" y="0" width="259" height="1"></rect>
                    </g>
                    <g id="NavItemDot/Green" transform="translate(8.000000, 1.000000)" fill="#A7FFB9" fill-rule="evenodd" stroke-width="1">
                        <g id="Account" transform="translate(12.000000, 18.000000)">
                            <circle id="Oval-2" cx="4" cy="4" r="4"></circle>
                        </g>
                    </g>
                    <text id="Label" font-family="Roboto-Medium, Roboto" font-size="16" font-weight="400" line-spacing="44" fill="#FFFFFF">
                        <tspan x="40" y="16">Receive</tspan>
                    </text>
                </g>
                <g id="NavItem/Default" transform="translate(0.000000, 225.000000)">
                    <g id="NavItemBackground/Default" opacity="0.25" stroke="#FFFFFF" stroke-linecap="round" stroke-linejoin="round" stroke-width="1.2">
                        <polyline id="Shape" points="274 18 280 24 274 30"></polyline>
                    </g>
                    <g id="NavItemSeparator/Default" fill="#FFFFFF" fill-rule="evenodd" opacity="0.149999991">
                        <rect id="Rectangle-3" x="40" y="0" width="259" height="1"></rect>
                    </g>
                    <g id="NavItemDot/DarkGreen" transform="translate(8.000000, 1.000000)" fill="#2EB358" fill-rule="evenodd" stroke-width="1">
                        <g id="Account" transform="translate(12.000000, 18.000000)">
                            <circle id="Oval-2" cx="4" cy="4" r="4"></circle>
                        </g>
                    </g>
                    <text id="Label" font-family="Roboto-Medium, Roboto" font-size="16" font-weight="400" line-spacing="44" fill="#FFFFFF">
                        <tspan x="40" y="16">Settings</tspan>
                    </text>
                </g>
            </g>
            <g id="Network-status---dark" transform="translate(0.000000, 648.000000)" fill-rule="evenodd">
                <rect id="Rectangle" fill="#000000" x="0" y="0" width="300" height="120"></rect>
                <g stroke-width="1">
                    <rect id="Rectangle" fill-opacity="0" fill="#D8D8D8" x="0" y="0" width="300" height="120"></rect>
                    <rect id="Rectangle" fill="#404040" x="0" y="0" width="300" height="1"></rect>
                    <g id="lightning" transform="translate(27.000000, 26.000000)" fill="#FA6800" fill-rule="nonzero">
                        <path d="M1.09102061,27 C1.0108412,27 0.930116358,26.98272 0.853755019,26.946 C0.606671541,26.8272 0.487220589,26.5464 0.573945253,26.28882 L4.69800303,14.04 L0.54558247,14.04 C0.363406131,14.04 0.193229431,13.94982 0.0917779375,13.7997 C-0.00967355656,13.64958 -0.0282184533,13.45896 0.0421430667,13.29264 L5.49652447,0.33264 C5.58106738,0.13122 5.77960686,0 5.99996387,0 L11.1816262,0 C11.3665297,0 11.5388882,0.09288 11.6392488,0.24624 C11.7401549,0.40014 11.7548817,0.59346 11.6796112,0.76032 L7.38701306,10.26 L11.4543453,10.26 C11.6545211,10.26 11.8388792,10.36908 11.9343308,10.54296 C12.0297825,10.71738 12.0205101,10.9296 11.910877,11.09538 L1.54755233,26.75538 C1.44337365,26.91306 1.26992432,27 1.09102061,27 Z" id="Shape"></path>
                    </g>
                    <text id="Network-status" opacity="0.5" font-family="Roboto-Medium, Roboto" font-size="13" font-weight="400" fill="#FFFFFF">
                        <tspan x="50" y="33">Network status</tspan>
                    </text>
                    <text id="Synchronizing" font-family="Roboto-Medium, Roboto" font-size="20" font-weight="400" fill="#FFFFFF">
                        <tspan x="50" y="53">Synchronizing</tspan>
                    </text>
                    <text id="Blocks-remaining" font-family="Roboto-Medium, Roboto" font-size="13" font-weight="400" fill="#FFFFFF">
                        <tspan x="20" y="83">Blocks remaining</tspan>
                    </text>
                    <text id="67,775" font-family="Roboto-Medium, Roboto" font-size="13" font-weight="400" fill="#FFFFFF">
                        <tspan x="240.206543" y="83">67,775</tspan>
                    </text>
                    <rect id="Rectangle-5" fill="#FFFFFF" opacity="0.200000003" x="20" y="92" width="260" height="8" rx="4"></rect>
                    <rect id="Rectangle-5" fill="#FA6800" x="20" y="92" width="171" height="8" rx="4"></rect>
                </g>
            </g>
            <rect id="Rectangle-2" fill="#D8D8D8" fill-rule="evenodd" opacity="0.149999991" x="299" y="50" width="1" height="716"></rect>
            <g id="Balance-card" transform="translate(20.000000, 90.000000)" fill-rule="evenodd" stroke-width="1">
                <g>
                    <g id="Card-shadow">
                        <use fill="black" fill-opacity="1" filter="url(#filter-5)" xlink:href="#path-4"></use>
                        <use fill-opacity="0" fill="#4C4C4C" fill-rule="evenodd" xlink:href="#path-4"></use>
                    </g>
                    <g id="Card-background">
                        <mask id="mask-8" fill="white">
                            <use xlink:href="#path-7"></use>
                        </mask>
                        <g id="Rectangle-8">
                            <use fill="#4C4C4C" xlink:href="#path-7"></use>
                            <use fill-opacity="0.2" fill="url(#linearGradient-6)" xlink:href="#path-7"></use>
                        </g>
                        <g id="Copy" mask="url(#mask-8)" font-weight="normal">
                            <g transform="translate(20.000000, 66.000000)">
                                <text id="Your-balance" font-family="Roboto-Regular, Roboto" font-size="12">
                                    <tspan x="0" y="11" fill="#FFFFFF">Your balance</tspan>
                                </text>
                                <text id="Unlocked-balance" font-family="Roboto-Regular, Roboto" font-size="12">
                                    <tspan x="0" y="61" fill="#FFFFFF">Unlocked balance</tspan>
                                </text>
                                <text id="9.377160181" font-family="RobotoMono-Light, Roboto Mono Light" font-size="20">
                                    <tspan x="0" y="34" fill="#FFFFFF">9.377160181</tspan>
                                </text>
                                <text id="0.17615" font-family="RobotoMono-Light, Roboto Mono Light" font-size="20">
                                    <tspan x="0" y="84" fill="#FFFFFF">0.17615</tspan>
                                </text>
                            </g>
                        </g>
                        <path d="M204.226939,-34 C280.479602,-34 342.315789,28.692 342.315789,106 C342.32398,121.025025 339.946041,135.953389 335.273258,150.212 L293.984692,150.212 L293.984692,32.416 L204.226939,123.416 L114.469186,32.416 L114.469186,150.212 L73.1806202,150.212 C68.4923805,135.957236 66.1140323,121.026307 66.1380889,106 C66.1380889,28.692 127.974276,-34 204.226939,-34 Z M183.596465,144.36 L204.226939,165.276 L224.857413,144.36 L264.019411,104.628 L264.019411,178.744 L322.210053,178.744 C297.989269,219.064 254.215103,246 204.226939,246 C154.238775,246 110.46461,219.064 86.2162077,178.744 L144.406849,178.744 L144.406849,104.628 L183.596465,144.36 Z" id="Shape" fill="url(#radialGradient-9)" fill-rule="nonzero" opacity="0.149999991" mask="url(#mask-8)"></path>
                        <text id="MONERO" mask="url(#mask-8)" font-family="CenturyGothic-Bold, Century Gothic" font-size="20.48" font-weight="bold" letter-spacing="-0.96" fill="#FFFFFF">
                            <tspan x="60" y="44">MONER</tspan>
                            <tspan x="128.51" y="44" letter-spacing="-0.64">O</tspan>
                        </text>
                        <g id="Group-10" mask="url(#mask-8)">
                            <g transform="translate(20.000000, 20.000000)" id="xmr">
                                <g>
                                    <g transform="translate(0.000000, 2.000000)" fill="#FFFFFF" fill-rule="nonzero" id="Shape">
                                        <path d="M13.8226939,0 C6.1974276,0 0.013808885,6.2692 0.013808885,14 C0.0114032251,15.5026307 0.249238053,16.9957236 0.718062022,18.4212 L4.84691865,18.4212 L4.84691865,6.6416 L13.8226939,15.7416 L22.7984692,6.6416 L22.7984692,18.4212 L26.9273258,18.4212 C27.3946041,16.9953389 27.632398,15.5025025 27.6315789,14 C27.6315789,6.2692 21.4479602,0 13.8226939,0"></path>
                                        <path d="M11.7596465,17.836 L7.84068492,13.8628 L7.84068492,21.2744 L2.02162077,21.2744 C4.44646098,25.3064 8.82387753,28 13.8226939,28 C18.8215103,28 23.1989269,25.3064 25.6210053,21.2744 L19.8019411,21.2744 L19.8019411,13.8628 L15.8857413,17.836 L13.8226939,19.9276 L11.7596465,17.836 L11.7596465,17.836 Z"></path>
                                    </g>
                                </g>
                            </g>
                        </g>
                    </g>
                </g>
            </g>
            <g id="Nav-bar" fill-rule="evenodd">
                <rect id="Rectangle-2" fill="#000000" x="0" y="0" width="1024" height="50"></rect>
                <rect id="Rectangle-2" fill="url(#linearGradient-10)" opacity="0.100000001" x="0" y="0" width="1024" height="50"></rect>
                <rect id="Rectangle" fill="#FFFFFF" opacity="0.149999991" x="0" y="49" width="1024" height="1"></rect>
                <g id="logo" stroke-width="1" transform="translate(449.000000, 11.000000)">
                    <text id="MONERO" font-family="CenturyGothic-Bold, Century Gothic" font-size="20.48" font-weight="bold" letter-spacing="-0.96" fill="#FFFFFF">
                        <tspan x="40" y="21">MONER</tspan>
                        <tspan x="108.51" y="21" letter-spacing="-0.64">O</tspan>
                    </text>
                    <g>
                        <mask id="mask-12" fill="white">
                            <use xlink:href="#path-11"></use>
                        </mask>
                        <use id="Oval-3" fill="#FFFFFF" xlink:href="#path-11"></use>
                        <g id="xmr" mask="url(#mask-12)" fill-rule="nonzero">
                            <g transform="translate(-8.960000, -11.200000)" id="Shape">
                                <path d="M33.8154687,0.24609375 C26.0081319,0.24609375 0.04703125,14.5929858 0.04703125,22.4010938 C0.0445681495,23.9187508 9.21520424,28.3656808 9.69522244,29.805412 L13.9226649,29.805412 L13.9226649,17.908016 L23.1127572,27.099016 L32.3028495,17.908016 L32.3028495,29.805412 L36.5302919,29.805412 C37.0087275,28.3652923 43.1284949,28.6165436 43.1276562,27.099016 C43.1276562,19.290908 30.9200941,11.2 23.1127572,11.2" fill="#FA6800"></path>
                                <path d="M16.9582984,25.201428 L16.9582984,32.687144 L11.0222594,32.687144 C8.995,39.865 17.9598466,48.335 23.0591492,48.335 C28.1584518,48.335 41.584375,39.816875 35.096039,32.687144 L29.16,32.687144 L29.16,25.201428 L25.1650767,29.21436 L23.0605579,31.326876 L20.956039,29.21436 L16.9582984,25.201428 Z" fill="#4C4C4C"></path>
                            </g>
                        </g>
                    </g>
                </g>
                <g id="fullscreen" opacity="0.75" stroke-width="1" transform="translate(943.000000, 16.000000)" stroke="#FFFFFF">
                    <rect id="Rectangle-7" stroke-width="1.63636364" x="0.818181818" y="0.818181818" width="16.3636364" height="16.3636364" rx="1.63636364"></rect>
                    <rect id="Rectangle-7" stroke-width="1.63636364" fill="#FFFFFF" x="0.818181818" y="0.818181818" width="16.3636364" height="3.27272727" rx="1.63636364"></rect>
                </g>
                <g id="sidebar" opacity="0.75" stroke-width="1" transform="translate(16.000000, 16.000000)" stroke="#FFFFFF">
                    <rect id="Rectangle-7" stroke-width="1.63636364" x="0.818181818" y="0.818181818" width="16.3636364" height="16.3636364" rx="1.63636364"></rect>
                    <path d="M6.18181818,17.1818182 L6.18181818,0.818181818 L1.63999999,0.818181818 C1.18612234,0.818181818 0.818181818,1.18612234 0.818181818,1.63999999 L0.818181818,16.36 C0.818181818,16.8138777 1.18612234,17.1818182 1.63999999,17.1818182 L6.18181818,17.1818182 Z" id="Rectangle-7" stroke-width="1.63636364" fill="#FFFFFF"></path>
                </g>
                <rect id="minimize" stroke="#FFFFFF" stroke-width="2" fill="#FFFFFF" opacity="0.75" x="899" y="31" width="16" height="2" rx="1"></rect>
                <g id="close" opacity="0.75" stroke-width="1" transform="translate(988.000000, 18.000000)" stroke="#FFFFFF" stroke-linecap="round">
                    <path d="M0,0 L14,14" id="Shape" stroke-width="1.85022026"></path>
                    <path d="M14,0 L0,14" id="Shape" stroke-width="1.85022026"></path>
                </g>
            </g>
        </g>
        <text id="Accounts" font-family="Roboto-Regular, Roboto" font-size="24" font-weight="normal" fill="#FFFFFF">
            <tspan x="349" y="246">Accounts</tspan>
        </text>
        <text id="Balance-All" font-family="Roboto-Regular, Roboto" font-size="24" font-weight="normal" fill="#FFFFFF">
            <tspan x="349" y="113">Balance All</tspan>
        </text>
        <rect id="Rectangle-10" fill="#404040" x="349" y="262" width="625" height="1" rx="0.5"></rect>
        <rect id="Rectangle-10" fill="#404040" x="349" y="129" width="625" height="1" rx="0.5"></rect>
        <text id="Total-balance:-Total" opacity="0.5" font-family="Roboto-Medium, Roboto" font-size="16" font-weight="400" line-spacing="24" fill="#FFFFFF">
            <tspan x="350" y="161">Total balance: </tspan>
            <tspan x="350" y="185">Total unlocked balance:</tspan>
        </text>
        <text id="9.377160181000-7.476" font-family="RobotoMono-Light, Roboto Mono Light" font-size="16" font-weight="normal" line-spacing="24" fill="#FFFFFF">
            <tspan x="839.578125" y="162">9.377160181000</tspan>
            <tspan x="839.578125" y="186">7.476252256000</tspan>
        </text>
        <g id="AccountItem/Active" transform="translate(349.000000, 262.000000)">
            <rect id="Rectangle-10" fill="#404040" fill-rule="evenodd" x="0" y="0" width="625" height="1" rx="0.5"></rect>
            <g id="Group-4" opacity="0.5" stroke-width="1" fill-rule="evenodd" transform="translate(555.000000, 11.000000)">
                <g id="Group-2" transform="translate(35.000000, 0.000000)">
                    <rect id="Rectangle" fill-opacity="0" fill="#D8D8D8" x="0" y="0" width="30" height="30"></rect>
                    <g id="rename" transform="translate(7.000000, 4.000000)">
                        <path d="M4,1 L4,3 L2,3 L2,19 L14,19 L14,3 L12,3 L12,1 L14.5,1 C15.3284271,1 16,1.67157288 16,2.5 L16,19.5 C16,20.3284271 15.3284271,21 14.5,21 L1.5,21 C0.671572875,21 1.01453063e-16,20.3284271 0,19.5 L0,2.5 C-1.01453063e-16,1.67157288 0.671572875,1 1.5,1 L4,1 Z M6,0 L10,0 C10.5522847,-1.01453063e-16 11,0.44771525 11,1 L11,3 C11,3.55228475 10.5522847,4 10,4 L6,4 C5.44771525,4 5,3.55228475 5,3 L5,1 C5,0.44771525 5.44771525,1.01453063e-16 6,0 Z" id="Rectangle-5" fill="#FFFFFF"></path>
                        <polyline id="Shape" stroke="#FFFFFF" stroke-linecap="round" stroke-linejoin="round" points="4.40909091 11.6339869 7.28363636 14.0740741 11.3636364 8.14814815"></polyline>
                    </g>
                </g>
                <g id="Group-3">
                    <rect id="Rectangle" fill-opacity="0" fill="#D8D8D8" x="0" y="0" width="30" height="30"></rect>
                    <g id="rename" transform="translate(4.000000, 5.000000)">
                        <path d="M7.64212285,20 L1.5,20 C0.671572875,20 1.01453063e-16,19.3284271 0,18.5 L0,1.5 C-1.01453063e-16,0.671572875 0.671572875,1.52179594e-16 1.5,0 L14.5,0 C15.3284271,-1.52179594e-16 16,0.671572875 16,1.5 L16,7.87191977 L14,7.87191977 L14,2 L2,2 L2,18 L7.64212285,18 L7.64212285,20 Z M4,4.61538462 L12,4.61538462 L12,6.61538462 L4,6.61538462 L4,4.61538462 Z M4,13.8461538 L9,13.8461538 L9,15.8461538 L4,15.8461538 L4,13.8461538 Z M4,9.23076923 L12,9.23076923 L12,11.2307692 L4,11.2307692 L4,9.23076923 Z" id="Rectangle-5" fill="#FFFFFF"></path>
                        <g id="pencil" transform="translate(9.645161, 5.769231)">
                            <g id="Group">
                                <polyline id="Shape" stroke="#FFFFFF" stroke-width="1.08" stroke-linecap="round" stroke-linejoin="round" points="12.1261935 4.26461538 3.68593548 12.96 0.480774194 13.8461538 1.38890323 10.5230769 9.77574194 1.82769231"></polyline>
                                <path d="M12.339871,4.76307692 C12.339871,4.76307692 12.7138065,4.37538462 12.7138065,4.37538462 C13.5685161,3.48923077 13.5685161,2.04923077 12.7138065,1.16307692 C11.8590968,0.276923077 10.4701935,0.276923077 9.61548387,1.16307692 C9.61548387,1.16307692 9.24154839,1.55076923 9.24154839,1.55076923 L12.339871,4.76307692 Z" id="Shape" fill="#FFFFFF" fill-rule="nonzero"></path>
                                <polygon id="Shape" fill="#FFFFFF" fill-rule="nonzero" points="1.44232258 10.4676923 3.79277419 12.8492308 0.694451613 13.6246154"></polygon>
                            </g>
                        </g>
                    </g>
                </g>
            </g>
            <text id="Amount" font-family="RobotoMono-Regular, Roboto Mono" font-size="16" font-weight="normal" line-spacing="49" fill="#FFFFFF">
                <tspan x="428" y="18">9.377 XMR</tspan>
            </text>
            <text id="Address" font-family="RobotoMono-Regular, Roboto Mono" font-size="16" font-weight="normal" line-spacing="49" fill="#FFFFFF">
                <tspan x="263" y="18">869K…0Ch9</tspan>
            </text>
            <text id="Name" font-family="Roboto-Medium, Roboto" font-size="16" font-weight="400" line-spacing="49" fill="#FFFFFF">
                <tspan x="31" y="16">Primary address</tspan>
            </text>
            <text id="Number" font-family="Roboto-Medium, Roboto" font-size="16" font-weight="400" line-spacing="49" fill="#FFFFFF">
                <tspan x="0" y="16">#0</tspan>
            </text>
        </g>
        <g id="AccountItem/Default" transform="translate(349.000000, 313.000000)">
            <g>
                <rect id="Rectangle-10" fill="#404040" x="0" y="0" width="625" height="1" rx="0.5"></rect>
                <g id="Group-4" opacity="0.5" transform="translate(555.000000, 10.000000)">
                    <g id="Group-2" transform="translate(35.000000, 0.000000)">
                        <rect id="Rectangle" fill-opacity="0" fill="#D8D8D8" x="0" y="0" width="30" height="30"></rect>
                        <g id="rename" transform="translate(7.000000, 4.000000)">
                            <path d="M4,1 L4,3 L2,3 L2,19 L14,19 L14,3 L12,3 L12,1 L14.5,1 C15.3284271,1 16,1.67157288 16,2.5 L16,19.5 C16,20.3284271 15.3284271,21 14.5,21 L1.5,21 C0.671572875,21 1.01453063e-16,20.3284271 0,19.5 L0,2.5 C-1.01453063e-16,1.67157288 0.671572875,1 1.5,1 L4,1 Z M6,0 L10,0 C10.5522847,-1.01453063e-16 11,0.44771525 11,1 L11,3 C11,3.55228475 10.5522847,4 10,4 L6,4 C5.44771525,4 5,3.55228475 5,3 L5,1 C5,0.44771525 5.44771525,1.01453063e-16 6,0 Z" id="Rectangle-5" fill="#FFFFFF"></path>
                            <polyline id="Shape" stroke="#FFFFFF" stroke-linecap="round" stroke-linejoin="round" points="4.40909091 11.6339869 7.28363636 14.0740741 11.3636364 8.14814815"></polyline>
                        </g>
                    </g>
                    <g id="Group-3">
                        <rect id="Rectangle" fill-opacity="0" fill="#D8D8D8" x="0" y="0" width="30" height="30"></rect>
                        <g id="rename" transform="translate(4.000000, 5.000000)">
                            <path d="M7.64212285,20 L1.5,20 C0.671572875,20 1.01453063e-16,19.3284271 0,18.5 L0,1.5 C-1.01453063e-16,0.671572875 0.671572875,1.52179594e-16 1.5,0 L14.5,0 C15.3284271,-1.52179594e-16 16,0.671572875 16,1.5 L16,7.87191977 L14,7.87191977 L14,2 L2,2 L2,18 L7.64212285,18 L7.64212285,20 Z M4,4.61538462 L12,4.61538462 L12,6.61538462 L4,6.61538462 L4,4.61538462 Z M4,13.8461538 L9,13.8461538 L9,15.8461538 L4,15.8461538 L4,13.8461538 Z M4,9.23076923 L12,9.23076923 L12,11.2307692 L4,11.2307692 L4,9.23076923 Z" id="Rectangle-5" fill="#FFFFFF"></path>
                            <g id="pencil" transform="translate(9.645161, 5.769231)">
                                <g id="Group">
                                    <polyline id="Shape" stroke="#FFFFFF" stroke-width="1.08" stroke-linecap="round" stroke-linejoin="round" points="12.1261935 4.26461538 3.68593548 12.96 0.480774194 13.8461538 1.38890323 10.5230769 9.77574194 1.82769231"></polyline>
                                    <path d="M12.339871,4.76307692 C12.339871,4.76307692 12.7138065,4.37538462 12.7138065,4.37538462 C13.5685161,3.48923077 13.5685161,2.04923077 12.7138065,1.16307692 C11.8590968,0.276923077 10.4701935,0.276923077 9.61548387,1.16307692 C9.61548387,1.16307692 9.24154839,1.55076923 9.24154839,1.55076923 L12.339871,4.76307692 Z" id="Shape" fill="#FFFFFF" fill-rule="nonzero"></path>
                                    <polygon id="Shape" fill="#FFFFFF" fill-rule="nonzero" points="1.44232258 10.4676923 3.79277419 12.8492308 0.694451613 13.6246154"></polygon>
                                </g>
                            </g>
                        </g>
                    </g>
                </g>
                <text id="Amount" font-family="RobotoMono-Regular, Roboto Mono" font-size="16" font-weight="normal" line-spacing="49" fill="#FFFFFF">
                    <tspan x="428.585938" y="18">1.764 XMR</tspan>
                </text>
                <text id="Address" font-family="RobotoMono-Regular, Roboto Mono" font-size="16" font-weight="normal" line-spacing="49" fill="#FFFFFF">
                    <tspan x="263.585938" y="18">869K…0Ch9</tspan>
                </text>
                <text id="Name" font-family="Roboto-Medium, Roboto" font-size="16" font-weight="400" line-spacing="49" fill="#FFFFFF">
                    <tspan x="31" y="16">Pizza delivery place</tspan>
                </text>
                <text id="Number" font-family="Roboto-Medium, Roboto" font-size="16" font-weight="400" line-spacing="49" fill="#4C4C4C">
                    <tspan x="0" y="16">#1</tspan>
                </text>
            </g>
        </g>
        <g id="AccountItem/Default" transform="translate(349.000000, 363.000000)">
            <g>
                <rect id="Rectangle-10" fill="#404040" x="0" y="0" width="625" height="1" rx="0.5"></rect>
                <g id="Group-4" opacity="0.5" transform="translate(555.000000, 10.000000)">
                    <g id="Group-2" transform="translate(35.000000, 0.000000)">
                        <rect id="Rectangle" fill-opacity="0" fill="#D8D8D8" x="0" y="0" width="30" height="30"></rect>
                        <g id="rename" transform="translate(7.000000, 4.000000)">
                            <path d="M4,1 L4,3 L2,3 L2,19 L14,19 L14,3 L12,3 L12,1 L14.5,1 C15.3284271,1 16,1.67157288 16,2.5 L16,19.5 C16,20.3284271 15.3284271,21 14.5,21 L1.5,21 C0.671572875,21 1.01453063e-16,20.3284271 0,19.5 L0,2.5 C-1.01453063e-16,1.67157288 0.671572875,1 1.5,1 L4,1 Z M6,0 L10,0 C10.5522847,-1.01453063e-16 11,0.44771525 11,1 L11,3 C11,3.55228475 10.5522847,4 10,4 L6,4 C5.44771525,4 5,3.55228475 5,3 L5,1 C5,0.44771525 5.44771525,1.01453063e-16 6,0 Z" id="Rectangle-5" fill="#FFFFFF"></path>
                            <polyline id="Shape" stroke="#FFFFFF" stroke-linecap="round" stroke-linejoin="round" points="4.40909091 11.6339869 7.28363636 14.0740741 11.3636364 8.14814815"></polyline>
                        </g>
                    </g>
                    <g id="Group-3">
                        <rect id="Rectangle" fill-opacity="0" fill="#D8D8D8" x="0" y="0" width="30" height="30"></rect>
                        <g id="rename" transform="translate(4.000000, 5.000000)">
                            <path d="M7.64212285,20 L1.5,20 C0.671572875,20 1.01453063e-16,19.3284271 0,18.5 L0,1.5 C-1.01453063e-16,0.671572875 0.671572875,1.52179594e-16 1.5,0 L14.5,0 C15.3284271,-1.52179594e-16 16,0.671572875 16,1.5 L16,7.87191977 L14,7.87191977 L14,2 L2,2 L2,18 L7.64212285,18 L7.64212285,20 Z M4,4.61538462 L12,4.61538462 L12,6.61538462 L4,6.61538462 L4,4.61538462 Z M4,13.8461538 L9,13.8461538 L9,15.8461538 L4,15.8461538 L4,13.8461538 Z M4,9.23076923 L12,9.23076923 L12,11.2307692 L4,11.2307692 L4,9.23076923 Z" id="Rectangle-5" fill="#FFFFFF"></path>
                            <g id="pencil" transform="translate(9.645161, 5.769231)">
                                <g id="Group">
                                    <polyline id="Shape" stroke="#FFFFFF" stroke-width="1.08" stroke-linecap="round" stroke-linejoin="round" points="12.1261935 4.26461538 3.68593548 12.96 0.480774194 13.8461538 1.38890323 10.5230769 9.77574194 1.82769231"></polyline>
                                    <path d="M12.339871,4.76307692 C12.339871,4.76307692 12.7138065,4.37538462 12.7138065,4.37538462 C13.5685161,3.48923077 13.5685161,2.04923077 12.7138065,1.16307692 C11.8590968,0.276923077 10.4701935,0.276923077 9.61548387,1.16307692 C9.61548387,1.16307692 9.24154839,1.55076923 9.24154839,1.55076923 L12.339871,4.76307692 Z" id="Shape" fill="#FFFFFF" fill-rule="nonzero"></path>
                                    <polygon id="Shape" fill="#FFFFFF" fill-rule="nonzero" points="1.44232258 10.4676923 3.79277419 12.8492308 0.694451613 13.6246154"></polygon>
                                </g>
                            </g>
                        </g>
                    </g>
                </g>
                <text id="Amount" font-family="RobotoMono-Regular, Roboto Mono" font-size="16" font-weight="normal" line-spacing="49" fill="#FFFFFF">
                    <tspan x="428.585938" y="18">0.117 XMR</tspan>
                </text>
                <text id="Address" font-family="RobotoMono-Regular, Roboto Mono" font-size="16" font-weight="normal" line-spacing="49" fill="#FFFFFF">
                    <tspan x="263.585938" y="18">869K…0Ch9</tspan>
                </text>
                <text id="Name" font-family="Roboto-Medium, Roboto" font-size="16" font-weight="400" line-spacing="49" fill="#FFFFFF">
                    <tspan x="31" y="16">Donut shop</tspan>
                </text>
                <text id="Number" font-family="Roboto-Medium, Roboto" font-size="16" font-weight="400" line-spacing="49" fill="#4C4C4C">
                    <tspan x="0" y="16">#2</tspan>
                </text>
            </g>
        </g>
        <g id="AccountItem/Default" transform="translate(349.000000, 413.000000)">
            <g>
                <rect id="Rectangle-10" fill="#404040" x="0" y="0" width="625" height="1" rx="0.5"></rect>
                <g id="Group-4" opacity="0.5" transform="translate(555.000000, 10.000000)">
                    <g id="Group-2" transform="translate(35.000000, 0.000000)">
                        <rect id="Rectangle" fill-opacity="0" fill="#D8D8D8" x="0" y="0" width="30" height="30"></rect>
                        <g id="rename" transform="translate(7.000000, 4.000000)">
                            <path d="M4,1 L4,3 L2,3 L2,19 L14,19 L14,3 L12,3 L12,1 L14.5,1 C15.3284271,1 16,1.67157288 16,2.5 L16,19.5 C16,20.3284271 15.3284271,21 14.5,21 L1.5,21 C0.671572875,21 1.01453063e-16,20.3284271 0,19.5 L0,2.5 C-1.01453063e-16,1.67157288 0.671572875,1 1.5,1 L4,1 Z M6,0 L10,0 C10.5522847,-1.01453063e-16 11,0.44771525 11,1 L11,3 C11,3.55228475 10.5522847,4 10,4 L6,4 C5.44771525,4 5,3.55228475 5,3 L5,1 C5,0.44771525 5.44771525,1.01453063e-16 6,0 Z" id="Rectangle-5" fill="#FFFFFF"></path>
                            <polyline id="Shape" stroke="#FFFFFF" stroke-linecap="round" stroke-linejoin="round" points="4.40909091 11.6339869 7.28363636 14.0740741 11.3636364 8.14814815"></polyline>
                        </g>
                    </g>
                    <g id="Group-3">
                        <rect id="Rectangle" fill-opacity="0" fill="#D8D8D8" x="0" y="0" width="30" height="30"></rect>
                        <g id="rename" transform="translate(4.000000, 5.000000)">
                            <path d="M7.64212285,20 L1.5,20 C0.671572875,20 1.01453063e-16,19.3284271 0,18.5 L0,1.5 C-1.01453063e-16,0.671572875 0.671572875,1.52179594e-16 1.5,0 L14.5,0 C15.3284271,-1.52179594e-16 16,0.671572875 16,1.5 L16,7.87191977 L14,7.87191977 L14,2 L2,2 L2,18 L7.64212285,18 L7.64212285,20 Z M4,4.61538462 L12,4.61538462 L12,6.61538462 L4,6.61538462 L4,4.61538462 Z M4,13.8461538 L9,13.8461538 L9,15.8461538 L4,15.8461538 L4,13.8461538 Z M4,9.23076923 L12,9.23076923 L12,11.2307692 L4,11.2307692 L4,9.23076923 Z" id="Rectangle-5" fill="#FFFFFF"></path>
                            <g id="pencil" transform="translate(9.645161, 5.769231)">
                                <g id="Group">
                                    <polyline id="Shape" stroke="#FFFFFF" stroke-width="1.08" stroke-linecap="round" stroke-linejoin="round" points="12.1261935 4.26461538 3.68593548 12.96 0.480774194 13.8461538 1.38890323 10.5230769 9.77574194 1.82769231"></polyline>
                                    <path d="M12.339871,4.76307692 C12.339871,4.76307692 12.7138065,4.37538462 12.7138065,4.37538462 C13.5685161,3.48923077 13.5685161,2.04923077 12.7138065,1.16307692 C11.8590968,0.276923077 10.4701935,0.276923077 9.61548387,1.16307692 C9.61548387,1.16307692 9.24154839,1.55076923 9.24154839,1.55076923 L12.339871,4.76307692 Z" id="Shape" fill="#FFFFFF" fill-rule="nonzero"></path>
                                    <polygon id="Shape" fill="#FFFFFF" fill-rule="nonzero" points="1.44232258 10.4676923 3.79277419 12.8492308 0.694451613 13.6246154"></polygon>
                                </g>
                            </g>
                        </g>
                    </g>
                </g>
                <text id="Amount" font-family="RobotoMono-Regular, Roboto Mono" font-size="16" font-weight="normal" line-spacing="49" fill="#FFFFFF">
                    <tspan x="428.585938" y="18">4.365 XMR</tspan>
                </text>
                <text id="Address" font-family="RobotoMono-Regular, Roboto Mono" font-size="16" font-weight="normal" line-spacing="49" fill="#FFFFFF">
                    <tspan x="263.585938" y="18">869K…0Ch9</tspan>
                </text>
                <text id="Name" font-family="Roboto-Medium, Roboto" font-size="16" font-weight="400" line-spacing="49" fill="#FFFFFF">
                    <tspan x="31" y="16">Taj Mahal</tspan>
                </text>
                <text id="Number" font-family="Roboto-Medium, Roboto" font-size="16" font-weight="400" line-spacing="49" fill="#4C4C4C">
                    <tspan x="0" y="16">#3</tspan>
                </text>
            </g>
        </g>
        <g id="ListItem/Create" transform="translate(349.000000, 463.000000)">
            <rect id="Rectangle-10" fill="#404040" fill-rule="evenodd" x="0" y="0" width="625" height="1" rx="0.5"></rect>
            <path d="M9,24 L6,24 C5.44771525,24 5,24.4477153 5,25 C5,25.5522847 5.44771525,26 6,26 L9,26 L9,29 C9,29.5522847 9.44771525,30 10,30 C10.5522847,30 11,29.5522847 11,29 L11,26 L14,26 C14.5522847,26 15,25.5522847 15,25 C15,24.4477153 14.5522847,24 14,24 L11,24 L11,21 C11,20.4477153 10.5522847,20 10,20 C9.44771525,20 9,20.4477153 9,21 L9,24 Z M10,15 C15.5143478,15 20,19.486087 20,25 C20,30.5143478 15.5143478,35 10,35 C4.48608696,35 0,30.5143478 0,25 C0,19.486087 4.48608696,15 10,15 Z" id="plus-in-circle-medium-white" fill="#FFFFFF" fill-rule="nonzero" opacity="0.5"></path>
            <text id="Label" opacity="0.5" font-family="Roboto-Medium, Roboto" font-size="16" font-weight="400" fill="#FFFFFF">
                <tspan x="31" y="30">Create new account</tspan>
            </text>
        </g>
    </g>
</svg>