<?xml version="1.0" encoding="UTF-8"?>
<svg width="1600px" height="1064px" viewBox="0 0 1600 1064" version="1.1" xmlns="http://www.w3.org/2000/svg" xmlns:xlink="http://www.w3.org/1999/xlink">
    <!-- Generator: Sketch 53.2 (72643) - https://sketchapp.com -->
    <title>Buttons</title>
    <desc>Created with Sketch.</desc>
    <defs>
        <linearGradient x1="100%" y1="52%" x2="0%" y2="48%" id="linearGradient-1">
            <stop stop-color="#FFFFFF" offset="0%"></stop>
            <stop stop-color="#000000" offset="100%"></stop>
        </linearGradient>
        <rect id="path-2" x="0" y="0" width="200" height="40" rx="3"></rect>
        <filter x="-40.0%" y="-175.0%" width="180.0%" height="500.0%" filterUnits="objectBoundingBox" id="filter-3">
            <feOffset dx="0" dy="10" in="SourceAlpha" result="shadowOffsetOuter1"></feOffset>
            <feGaussianBlur stdDeviation="25" in="shadowOffsetOuter1" result="shadowBlurOuter1"></feGaussianBlur>
            <feColorMatrix values="0 0 0 0 0   0 0 0 0 0   0 0 0 0 0  0 0 0 0.5 0" type="matrix" in="shadowBlurOuter1"></feColorMatrix>
        </filter>
        <rect id="path-4" x="0" y="0" width="200" height="40" rx="3"></rect>
        <filter x="-40.0%" y="-175.0%" width="180.0%" height="500.0%" filterUnits="objectBoundingBox" id="filter-5">
            <feOffset dx="0" dy="10" in="SourceAlpha" result="shadowOffsetOuter1"></feOffset>
            <feGaussianBlur stdDeviation="25" in="shadowOffsetOuter1" result="shadowBlurOuter1"></feGaussianBlur>
            <feColorMatrix values="0 0 0 0 0   0 0 0 0 0   0 0 0 0 0  0 0 0 0.5 0" type="matrix" in="shadowBlurOuter1"></feColorMatrix>
        </filter>
        <rect id="path-6" x="0" y="0" width="44" height="20" rx="3"></rect>
        <rect id="path-7" x="0" y="0" width="44" height="20" rx="3"></rect>
        <rect id="path-8" x="0" y="0" width="44" height="20" rx="3"></rect>
        <rect id="path-9" x="0" y="0" width="44" height="20" rx="3"></rect>
        <rect id="path-10" x="10" y="4" width="150" height="32" rx="2.7"></rect>
        <filter x="-16.7%" y="-62.5%" width="133.3%" height="256.2%" filterUnits="objectBoundingBox" id="filter-11">
            <feOffset dx="0" dy="5" in="SourceAlpha" result="shadowOffsetOuter1"></feOffset>
            <feGaussianBlur stdDeviation="7.5" in="shadowOffsetOuter1" result="shadowBlurOuter1"></feGaussianBlur>
            <feComposite in="shadowBlurOuter1" in2="SourceAlpha" operator="out" result="shadowBlurOuter1"></feComposite>
            <feColorMatrix values="0 0 0 0 0   0 0 0 0 0   0 0 0 0 0  0 0 0 1 0" type="matrix" in="shadowBlurOuter1"></feColorMatrix>
        </filter>
        <linearGradient x1="100%" y1="52.2422145%" x2="0%" y2="47.7577855%" id="linearGradient-12">
            <stop stop-color="#FFFFFF" offset="0%"></stop>
            <stop stop-color="#000000" offset="100%"></stop>
        </linearGradient>
        <rect id="path-13" x="0" y="0" width="170" height="36" rx="3"></rect>
        <rect id="path-14" x="7" y="3" width="105" height="24.8888889" rx="2.7"></rect>
        <filter x="-23.8%" y="-80.4%" width="147.6%" height="300.9%" filterUnits="objectBoundingBox" id="filter-15">
            <feOffset dx="0" dy="5" in="SourceAlpha" result="shadowOffsetOuter1"></feOffset>
            <feGaussianBlur stdDeviation="7.5" in="shadowOffsetOuter1" result="shadowBlurOuter1"></feGaussianBlur>
            <feComposite in="shadowBlurOuter1" in2="SourceAlpha" operator="out" result="shadowBlurOuter1"></feComposite>
            <feColorMatrix values="0 0 0 0 0   0 0 0 0 0   0 0 0 0 0  0 0 0 1 0" type="matrix" in="shadowBlurOuter1"></feColorMatrix>
        </filter>
        <linearGradient x1="100%" y1="52.7222222%" x2="0%" y2="47.2777778%" id="linearGradient-16">
            <stop stop-color="#FFFFFF" offset="0%"></stop>
            <stop stop-color="#000000" offset="100%"></stop>
        </linearGradient>
        <rect id="path-17" x="0" y="0" width="120" height="28" rx="3"></rect>
        <rect id="path-18" x="10" y="4" width="150" height="32" rx="2.7"></rect>
        <filter x="-16.7%" y="-62.5%" width="133.3%" height="256.2%" filterUnits="objectBoundingBox" id="filter-19">
            <feOffset dx="0" dy="5" in="SourceAlpha" result="shadowOffsetOuter1"></feOffset>
            <feGaussianBlur stdDeviation="7.5" in="shadowOffsetOuter1" result="shadowBlurOuter1"></feGaussianBlur>
            <feComposite in="shadowBlurOuter1" in2="SourceAlpha" operator="out" result="shadowBlurOuter1"></feComposite>
            <feColorMatrix values="0 0 0 0 0   0 0 0 0 0   0 0 0 0 0  0 0 0 1 0" type="matrix" in="shadowBlurOuter1"></feColorMatrix>
        </filter>
        <path d="M10.7,3 L110.064706,3 C111.555875,3 112.764706,4.20883118 112.764706,5.7 L112.764706,25.1888889 C112.764706,26.6800577 111.555875,27.8888889 110.064706,27.8888889 L10.7,27.8888889 C9.20883118,27.8888889 8,26.6800577 8,25.1888889 L8,5.7 C8,4.20883118 9.20883118,3 10.7,3 Z" id="path-20"></path>
        <filter x="-23.9%" y="-80.4%" width="147.7%" height="300.9%" filterUnits="objectBoundingBox" id="filter-21">
            <feOffset dx="0" dy="5" in="SourceAlpha" result="shadowOffsetOuter1"></feOffset>
            <feGaussianBlur stdDeviation="7.5" in="shadowOffsetOuter1" result="shadowBlurOuter1"></feGaussianBlur>
            <feComposite in="shadowBlurOuter1" in2="SourceAlpha" operator="out" result="shadowBlurOuter1"></feComposite>
            <feColorMatrix values="0 0 0 0 0   0 0 0 0 0   0 0 0 0 0  0 0 0 1 0" type="matrix" in="shadowBlurOuter1"></feColorMatrix>
        </filter>
    </defs>
    <g id="Buttons" stroke="none" stroke-width="1" fill="none" fill-rule="evenodd">
        <rect fill="#000000" x="0" y="0" width="1600" height="1064"></rect>
        <text font-family="Roboto-Regular, Roboto" font-size="32" font-weight="normal" fill="#FFFFFF">
            <tspan x="100" y="131">Buttons</tspan>
        </text>
        <text id="Search" font-family="Roboto-Regular, Roboto" font-size="32" font-weight="normal" fill="#FFFFFF">
            <tspan x="800" y="131">Search</tspan>
        </text>
        <text id="Check-boxes" font-family="Roboto-Regular, Roboto" font-size="32" font-weight="normal" fill="#FFFFFF">
            <tspan x="800" y="391">Check boxes</tspan>
        </text>
        <text id="Radio-buttons" font-family="Roboto-Regular, Roboto" font-size="32" font-weight="normal" fill="#FFFFFF">
            <tspan x="1228" y="391">Radio buttons</tspan>
        </text>
        <g id="Button---Send" transform="translate(300.000000, 188.000000)">
            <g id="Rectangle-4">
                <use fill="black" fill-opacity="1" filter="url(#filter-3)" xlink:href="#path-2"></use>
                <use fill="#FA6800" fill-rule="evenodd" xlink:href="#path-2"></use>
                <use fill-opacity="0.01" fill="url(#linearGradient-1)" fill-rule="evenodd" style="mix-blend-mode: hard-light;" xlink:href="#path-2"></use>
            </g>
            <g id="right" transform="translate(165.000000, 10.000000)" fill-rule="nonzero">
                <path d="M10,0 C4.48608696,0 0,4.48608696 0,10 C0,15.5143478 4.48608696,20 10,20 C15.5143478,20 20,15.5143478 20,10 C20,4.48608696 15.5143478,0 10,0 Z M15.5243478,10.3078261 L12.0465217,13.7856522 C11.9617391,13.8704348 11.8504348,13.9130435 11.7391304,13.9130435 C11.6278261,13.9130435 11.5165217,13.8704348 11.4317391,13.7856522 C11.2617391,13.6156522 11.2617391,13.3408696 11.4317391,13.1708696 L14.1678261,10.4347826 L4.7826087,10.4347826 C4.5426087,10.4347826 4.34782609,10.24 4.34782609,10 C4.34782609,9.76 4.5426087,9.56521739 4.7826087,9.56521739 L14.1678261,9.56521739 L11.4317391,6.82913043 C11.2617391,6.65913043 11.2617391,6.38434783 11.4317391,6.21434783 C11.6017391,6.04434783 11.8765217,6.04434783 12.0465217,6.21434783 L15.5243478,9.69217391 C15.5647826,9.73217391 15.5965217,9.78043478 15.6186957,9.83391304 C15.6626087,9.94 15.6626087,10.06 15.6186957,10.166087 C15.5965217,10.2195652 15.5647826,10.2673913 15.5243478,10.3078261 Z" id="Shape" fill="#FFFFFF"></path>
                <path d="M13.6376511,9.242904 L11.2169688,6.79206656 C10.9249858,6.49644619 10.9250337,6.01719933 11.2170758,5.72163874 C11.5091179,5.42607815 11.9825638,5.42612662 12.2745469,5.72174699 L16.5,9.99983784 L12.2737724,14.2782801 C11.9817746,14.5738855 11.5083286,14.5739097 11.2163013,14.2783342 C10.9242739,13.9827587 10.92425,13.5035118 11.2162478,13.2079064 L13.637522,10.7567175 L4.24774499,10.7567175 C3.83477683,10.7567175 3.5,10.4178388 3.5,9.99981077 C3.5,9.5817827 3.83477683,9.242904 4.24774499,9.242904 L13.6376511,9.242904 Z" id="Shape" fill="#FA7200"></path>
            </g>
            <text id="Label" font-family="Roboto-Bold, Roboto" font-size="20" font-weight="bold" fill="#FFFFFF">
                <tspan x="15" y="27">Label</tspan>
            </text>
        </g>
        <g id="Button---Send" transform="translate(530.000000, 188.000000)">
            <g id="Rectangle-4">
                <use fill="black" fill-opacity="1" filter="url(#filter-5)" xlink:href="#path-4"></use>
                <use fill="#808080" fill-rule="evenodd" xlink:href="#path-4"></use>
                <use fill-opacity="0.01" fill="url(#linearGradient-1)" fill-rule="evenodd" style="mix-blend-mode: hard-light;" xlink:href="#path-4"></use>
            </g>
            <g id="right" transform="translate(165.000000, 10.000000)" fill-rule="nonzero">
                <path d="M10,0 C4.48608696,0 0,4.48608696 0,10 C0,15.5143478 4.48608696,20 10,20 C15.5143478,20 20,15.5143478 20,10 C20,4.48608696 15.5143478,0 10,0 Z M15.5243478,10.3078261 L12.0465217,13.7856522 C11.9617391,13.8704348 11.8504348,13.9130435 11.7391304,13.9130435 C11.6278261,13.9130435 11.5165217,13.8704348 11.4317391,13.7856522 C11.2617391,13.6156522 11.2617391,13.3408696 11.4317391,13.1708696 L14.1678261,10.4347826 L4.7826087,10.4347826 C4.5426087,10.4347826 4.34782609,10.24 4.34782609,10 C4.34782609,9.76 4.5426087,9.56521739 4.7826087,9.56521739 L14.1678261,9.56521739 L11.4317391,6.82913043 C11.2617391,6.65913043 11.2617391,6.38434783 11.4317391,6.21434783 C11.6017391,6.04434783 11.8765217,6.04434783 12.0465217,6.21434783 L15.5243478,9.69217391 C15.5647826,9.73217391 15.5965217,9.78043478 15.6186957,9.83391304 C15.6626087,9.94 15.6626087,10.06 15.6186957,10.166087 C15.5965217,10.2195652 15.5647826,10.2673913 15.5243478,10.3078261 Z" id="Shape" fill="#FFFFFF"></path>
                <path d="M13.6376511,9.242904 L11.2169688,6.79206656 C10.9249858,6.49644619 10.9250337,6.01719933 11.2170758,5.72163874 C11.5091179,5.42607815 11.9825638,5.42612662 12.2745469,5.72174699 L16.5,9.99983784 L12.2737724,14.2782801 C11.9817746,14.5738855 11.5083286,14.5739097 11.2163013,14.2783342 C10.9242739,13.9827587 10.92425,13.5035118 11.2162478,13.2079064 L13.637522,10.7567175 L4.24774499,10.7567175 C3.83477683,10.7567175 3.5,10.4178388 3.5,9.99981077 C3.5,9.5817827 3.83477683,9.242904 4.24774499,9.242904 L13.6376511,9.242904 Z" id="Shape" fill="#808080"></path>
            </g>
            <text id="Label" font-family="Roboto-Bold, Roboto" font-size="20" font-weight="bold" fill="#FFFFFF">
                <tspan x="15" y="27">Label</tspan>
            </text>
        </g>
        <g id="Button-/-Gray-/-Small" transform="translate(374.000000, 549.000000)">
            <rect id="Rectangle-4" fill="#808080" fill-rule="evenodd" x="0" y="0" width="44" height="20" rx="3"></rect>
            <text id="Copy" font-family="Roboto-Regular, Roboto" font-size="12" font-weight="normal" fill="#FFFFFF">
                <tspan x="8.5" y="14">Copy</tspan>
            </text>
        </g>
        <g id="Button-/-Gray-/-Small" transform="translate(374.000000, 418.000000)">
            <rect id="Rectangle-4" fill="#808080" fill-rule="evenodd" x="0" y="0" width="44" height="20" rx="3"></rect>
            <text id="Copy" font-family="Roboto-Regular, Roboto" font-size="12" font-weight="normal" fill="#FFFFFF">
                <tspan x="8.5" y="14">Copy</tspan>
            </text>
        </g>
        <g id="Button-/-gray-/-small" transform="translate(374.000000, 579.000000)">
            <g id="Rectangle-4">
                <use fill="#808080" xlink:href="#path-6"></use>
                <use fill-opacity="0.1" fill="#000000" xlink:href="#path-6"></use>
            </g>
            <text id="Copy" opacity="0.800000012" font-family="Roboto-Bold, Roboto" font-size="12" font-weight="bold" fill="#FFFFFF">
                <tspan x="8.32421875" y="14">Copy</tspan>
            </text>
        </g>
        <g id="Button-/-gray-/-small" transform="translate(374.000000, 609.000000)">
            <g id="Rectangle-4">
                <use fill="#808080" xlink:href="#path-7"></use>
                <use fill-opacity="0.2" fill="#000000" xlink:href="#path-7"></use>
            </g>
            <text id="Copy" font-family="Roboto-Bold, Roboto" font-size="12" font-weight="bold" fill="#FFFFFF">
                <tspan x="8.32421875" y="14">Copy</tspan>
            </text>
        </g>
        <g id="Button-/-gray-/-small" transform="translate(374.000000, 639.000000)">
            <rect id="Rectangle-4" fill="#808080" opacity="0.5" x="0" y="0" width="44" height="20" rx="3"></rect>
            <text id="Copy" opacity="0.25" font-family="Roboto-Bold, Roboto" font-size="12" font-weight="bold" fill="#FFFFFF">
                <tspan x="8.32421875" y="14">Copy</tspan>
            </text>
        </g>
        <g id="Button-/-orange-/-small" transform="translate(300.000000, 549.000000)">
            <g>
                <rect id="Rectangle-4" fill="#FA6800" x="0" y="0" width="44" height="20" rx="3"></rect>
                <text id="Copy" font-family="Roboto-Regular, Roboto" font-size="12" font-weight="normal" fill="#FFFFFF">
                    <tspan x="8.5" y="14">Copy</tspan>
                </text>
            </g>
        </g>
        <g id="Toggle" transform="translate(300.000000, 762.000000)">
            <g id="Button-/-gray-/-small">
                <rect id="Rectangle-4" stroke="#808080" x="0.5" y="0.5" width="209" height="23" rx="3"></rect>
                <rect id="Rectangle-4" stroke="#808080" x="140.5" y="1.5" width="1" height="21" rx="0.5"></rect>
                <text id="Inactive" font-family="Roboto-Bold, Roboto" font-size="12" font-weight="bold" fill="#FFFFFF">
                    <tspan x="83.6894531" y="16">Inactive</tspan>
                </text>
                <text id="Inactive" font-family="Roboto-Bold, Roboto" font-size="12" font-weight="bold" fill="#FFFFFF">
                    <tspan x="153.689453" y="16">Inactive</tspan>
                </text>
            </g>
            <g id="Button-/-orange-/-small" transform="translate(0.000000, 1.000000)">
                <path d="M3,0 L70,0 L70,22 L3,22 C1.34314575,22 2.02906125e-16,20.6568542 0,19 L0,3 C-2.02906125e-16,1.34314575 1.34314575,3.04359188e-16 3,0 Z" id="Rectangle-4" fill="#808080"></path>
                <text id="Active" font-family="Roboto-Bold, Roboto" font-size="12" font-weight="bold" fill="#FFFFFF">
                    <tspan x="17.9785156" y="15">Active</tspan>
                </text>
            </g>
        </g>
        <g id="Toggle" transform="translate(300.000000, 806.000000)">
            <rect id="Rectangle-4" stroke="#808080" x="0.5" y="0.5" width="209" height="23" rx="3"></rect>
            <path d="M3,1 L100,1 L100,23 L3,23 C1.34314575,23 2.02906125e-16,21.6568542 0,20 L0,4 C-2.02906125e-16,2.34314575 1.34314575,1 3,1 Z" id="Rectangle-4" fill="#808080"></path>
            <text id="Remote-node" font-family="Roboto-Bold, Roboto" font-size="12" font-weight="bold" fill="#FFFFFF">
                <tspan x="114.199219" y="16">Remote node</tspan>
            </text>
            <text id="Local-node" font-family="Roboto-Bold, Roboto" font-size="12" font-weight="bold" fill="#FFFFFF">
                <tspan x="20.5507812" y="16">Local node</tspan>
            </text>
        </g>
        <g id="Button-/-orange-/-small" transform="translate(300.000000, 418.000000)">
            <g>
                <rect id="Rectangle-4" fill="#FA6800" x="0" y="0" width="44" height="20" rx="3"></rect>
                <text id="Copy" font-family="Roboto-Regular, Roboto" font-size="12" font-weight="normal" fill="#FFFFFF">
                    <tspan x="8.5" y="14">Copy</tspan>
                </text>
            </g>
        </g>
        <g id="Button-/-orange-/-small" transform="translate(300.000000, 579.000000)">
            <g id="Rectangle-4">
                <use fill="#FA6800" xlink:href="#path-8"></use>
                <use fill-opacity="0.1" fill="#000000" xlink:href="#path-8"></use>
            </g>
            <text id="Copy" opacity="0.800000012" font-family="Roboto-Bold, Roboto" font-size="12" font-weight="bold" fill="#FFFFFF">
                <tspan x="8.32421875" y="14">Copy</tspan>
            </text>
        </g>
        <g id="Button-/-orange-/-small" transform="translate(300.000000, 609.000000)">
            <g id="Rectangle-4">
                <use fill="#FA6800" xlink:href="#path-9"></use>
                <use fill-opacity="0.2" fill="#000000" xlink:href="#path-9"></use>
            </g>
            <text id="Copy" font-family="Roboto-Bold, Roboto" font-size="12" font-weight="bold" fill="#FFFFFF">
                <tspan x="8.32421875" y="14">Copy</tspan>
            </text>
        </g>
        <g id="Button-/-orange-/-small" transform="translate(300.000000, 639.000000)">
            <rect id="Rectangle-4" fill="#FA6800" opacity="0.5" x="0" y="0" width="44" height="20" rx="3"></rect>
            <text id="Copy" opacity="0.25" font-family="Roboto-Bold, Roboto" font-size="12" font-weight="bold" fill="#FFFFFF">
                <tspan x="8.32421875" y="14">Copy</tspan>
            </text>
        </g>
        <text id="Default-Hover-Presse" font-family="Roboto-Bold, Roboto" font-size="12" font-weight="bold" line-spacing="30" fill="#FFFFFF">
            <tspan x="100" y="554">Default</tspan>
            <tspan x="100" y="584">Hover</tspan>
            <tspan x="100" y="614">Pressed</tspan>
            <tspan x="100" y="644">Disabled</tspan>
        </text>
        <text id="Tabs" font-family="Roboto-Bold, Roboto" font-size="12" font-weight="bold" line-spacing="30" fill="#FFFFFF">
            <tspan x="100" y="769">Tabs</tspan>
        </text>
        <text id="Huge" font-family="Roboto-Bold, Roboto" font-size="12" font-weight="bold" line-spacing="30" fill="#FFFFFF">
            <tspan x="100" y="203">Huge</tspan>
        </text>
        <text id="Large" font-family="Roboto-Bold, Roboto" font-size="12" font-weight="bold" line-spacing="30" fill="#FFFFFF">
            <tspan x="100" y="281">Large</tspan>
        </text>
        <text id="Medium" font-family="Roboto-Bold, Roboto" font-size="12" font-weight="bold" line-spacing="30" fill="#FFFFFF">
            <tspan x="100" y="354">Medium</tspan>
        </text>
        <text id="Small" font-family="Roboto-Bold, Roboto" font-size="12" font-weight="bold" line-spacing="30" fill="#FFFFFF">
            <tspan x="100" y="423">Small</tspan>
        </text>
        <text id="Background-10%-black" font-family="Roboto-Light, Roboto" font-size="12" font-weight="300" line-spacing="30" fill="#FFFFFF">
            <tspan x="446" y="553"></tspan>
            <tspan x="446" y="583">Background 10% black overlaid, Label at 80% opacity</tspan>
            <tspan x="446" y="613">Background 20% black overlaid, label at 100% opacity</tspan>
            <tspan x="446" y="643">Background at 50% opacity, label at 25% opacity</tspan>
        </text>
        <g id="Button-/-Orange-/-Large" transform="translate(300.000000, 268.000000)">
            <g>
                <g id="Rectangle-4" opacity="0.149999991">
                    <use fill="black" fill-opacity="1" filter="url(#filter-11)" xlink:href="#path-10"></use>
                    <use fill-opacity="0" fill="#FA6800" fill-rule="evenodd" xlink:href="#path-10"></use>
                </g>
                <g id="Rectangle-4">
                    <use fill="#FA6800" xlink:href="#path-13"></use>
                    <use fill-opacity="0.01" fill="url(#linearGradient-12)" style="mix-blend-mode: hard-light;" xlink:href="#path-13"></use>
                </g>
                <text id="Label" font-family="Roboto-Bold, Roboto" font-size="18" font-weight="bold" fill="#FFFFFF">
                    <tspan x="63.4833984" y="24.5">Label</tspan>
                </text>
            </g>
        </g>
        <g id="Button-/-Orange-/-Medium" transform="translate(300.000000, 345.000000)">
            <g>
                <g id="Rectangle-4" opacity="0.149999991">
                    <use fill="black" fill-opacity="1" filter="url(#filter-15)" xlink:href="#path-14"></use>
                    <use fill-opacity="0" fill="#FA6800" fill-rule="evenodd" xlink:href="#path-14"></use>
                </g>
                <g id="Rectangle-4">
                    <use fill="#FA6800" xlink:href="#path-17"></use>
                    <use fill-opacity="0.01" fill="url(#linearGradient-16)" style="mix-blend-mode: hard-light;" xlink:href="#path-17"></use>
                </g>
                <text id="Label" font-family="Roboto-Regular, Roboto" font-size="14" font-weight="normal" fill="#FFFFFF">
                    <tspan x="43.0913086" y="19">Label</tspan>
                </text>
            </g>
        </g>
        <g id="Button-/-Gray-/-Large" transform="translate(500.000000, 268.000000)">
            <g id="Rectangle-4" opacity="0.149999991">
                <use fill="black" fill-opacity="1" filter="url(#filter-19)" xlink:href="#path-18"></use>
                <use fill-opacity="0" fill="#FA6800" fill-rule="evenodd" xlink:href="#path-18"></use>
            </g>
            <rect id="Rectangle-4" fill="#808080" fill-rule="evenodd" x="0" y="0" width="170" height="36" rx="3"></rect>
            <text id="Label" font-family="Roboto-Bold, Roboto" font-size="18" font-weight="bold" fill="#FFFFFF">
                <tspan x="63.9833984" y="24.5">Label</tspan>
            </text>
        </g>
        <g id="Button-/-Gray-/-Medium" transform="translate(450.000000, 345.000000)">
            <g id="Button-/-gray-/-medium">
                <g id="Rectangle-4" opacity="0.149999991">
                    <use fill="black" fill-opacity="1" filter="url(#filter-21)" xlink:href="#path-20"></use>
                    <use fill-opacity="0" fill="#FA6800" fill-rule="evenodd" xlink:href="#path-20"></use>
                </g>
                <rect id="Rectangle-4" fill="#808080" x="0" y="0" width="120" height="28" rx="3"></rect>
                <text id="Label" font-family="Roboto-Regular, Roboto" font-size="14" font-weight="normal" fill="#FFFFFF">
                    <tspan x="43.0913086" y="19">Label</tspan>
                </text>
            </g>
        </g>
        <text id="Default-Active" font-family="Roboto-Bold, Roboto" font-size="12" font-weight="bold" line-spacing="48" fill="#FFFFFF">
            <tspan x="800" y="198">Default</tspan>
            <tspan x="800" y="246">Active</tspan>
        </text>
        <g id="Search" transform="translate(1000.000000, 196.000000)">
            <rect id="Rectangle" fill="#404040" x="0" y="0" width="200" height="28" rx="14"></rect>
            <text font-family="Roboto-Regular, Roboto" font-size="16" font-weight="normal" letter-spacing="-0.25" fill="#808080">
                <tspan x="77" y="20">Search</tspan>
            </text>
        </g>
        <g id="Search---active" transform="translate(1000.000000, 244.000000)">
            <rect id="Rectangle" fill="#404040" x="0" y="0" width="200" height="28" rx="14"></rect>
            <text id="My-search-term" font-family="Roboto-Regular, Roboto" font-size="16" font-weight="normal" letter-spacing="-0.25" fill="#FFFFFF">
                <tspan x="15" y="20">My search term</tspan>
            </text>
        </g>
        <text id="Default-Active-Hover" font-family="Roboto-Bold, Roboto" font-size="12" font-weight="bold" line-spacing="37" fill="#FFFFFF">
            <tspan x="800" y="448">Default</tspan>
            <tspan x="800" y="485">Active</tspan>
            <tspan x="800" y="522">Hover</tspan>
            <tspan x="800" y="559">Pressed</tspan>
            <tspan x="800" y="596">Disabled</tspan>
        </text>
        <text id="Default-Active-Hover" font-family="Roboto-Bold, Roboto" font-size="12" font-weight="bold" line-spacing="37" fill="#FFFFFF">
            <tspan x="1228" y="448">Default</tspan>
            <tspan x="1228" y="485">Active</tspan>
            <tspan x="1228" y="522">Hover</tspan>
            <tspan x="1228" y="559">Pressed</tspan>
            <tspan x="1228" y="596">Disabled</tspan>
        </text>
        <g id="Group-3" transform="translate(920.000000, 444.000000)">
            <text id="Label" font-family="Roboto-Medium, Roboto" font-size="14" font-weight="400" fill="#FFFFFF">
                <tspan x="36" y="18">Label</tspan>
            </text>
            <g id="Check-button" opacity="0.5" stroke="#FFFFFF">
                <rect id="Rectangle-4" x="0.5" y="0.5" width="23" height="23" rx="3"></rect>
            </g>
        </g>
        <g id="Group-3" transform="translate(1348.000000, 444.000000)">
            <text id="Label" font-family="Roboto-Medium, Roboto" font-size="14" font-weight="400" fill="#FFFFFF">
                <tspan x="36" y="18">Label</tspan>
            </text>
            <g id="Check-button" opacity="0.5" stroke="#FFFFFF">
                <rect id="Rectangle-4" x="0.5" y="0.5" width="23" height="23" rx="11.5"></rect>
            </g>
        </g>
        <g id="Group-3" transform="translate(920.000000, 481.000000)">
            <text id="Label" font-family="Roboto-Medium, Roboto" font-size="14" font-weight="400" fill="#FFFFFF">
                <tspan x="36" y="18">Label</tspan>
            </text>
            <g id="Check-button" stroke="#FFFFFF">
                <rect id="Rectangle-4" opacity="0.5" x="0.5" y="0.5" width="23" height="23" rx="3"></rect>
                <polyline id="Shape" stroke-width="2" stroke-linecap="round" stroke-linejoin="round" points="6.11111111 13.0955675 10.9940763 17.0769231 18.037037 6.92307692"></polyline>
            </g>
        </g>
        <g id="Group-3" transform="translate(1348.000000, 481.000000)">
            <text id="Label" font-family="Roboto-Medium, Roboto" font-size="14" font-weight="400" fill="#FFFFFF">
                <tspan x="36" y="18">Label</tspan>
            </text>
            <g id="Check-button">
                <rect id="Rectangle-4" stroke="#FFFFFF" opacity="0.5" x="0.5" y="0.5" width="23" height="23" rx="11.5"></rect>
                <rect id="Rectangle-4" fill="#FFFFFF" x="7" y="7" width="10" height="10" rx="5"></rect>
            </g>
        </g>
        <g id="Group-3" transform="translate(920.000000, 518.000000)">
            <text id="Label" font-family="Roboto-Medium, Roboto" font-size="14" font-weight="400" fill="#FFFFFF">
                <tspan x="36" y="18">Label</tspan>
            </text>
            <g id="Check-button" stroke="#FFFFFF">
                <rect id="Rectangle-4" x="0.5" y="0.5" width="23" height="23" rx="3"></rect>
            </g>
        </g>
        <g id="Group-3" transform="translate(1348.000000, 518.000000)">
            <text id="Label" font-family="Roboto-Medium, Roboto" font-size="14" font-weight="400" fill="#FFFFFF">
                <tspan x="36" y="18">Label</tspan>
            </text>
            <g id="Check-button" stroke="#FFFFFF">
                <rect id="Rectangle-4" x="0.5" y="0.5" width="23" height="23" rx="11.5"></rect>
            </g>
        </g>
        <g id="Group-3" transform="translate(920.000000, 555.000000)">
            <text id="Label" font-family="Roboto-Medium, Roboto" font-size="14" font-weight="400" fill="#FFFFFF">
                <tspan x="36" y="18">Label</tspan>
            </text>
            <g id="Check-button" stroke="#FFFFFF">
                <rect id="Rectangle-4" opacity="0.25" x="0.5" y="0.5" width="23" height="23" rx="3"></rect>
                <polyline id="Shape" stroke-width="2" stroke-linecap="round" stroke-linejoin="round" points="6.11111111 13.0955675 10.9940763 17.0769231 18.037037 6.92307692"></polyline>
            </g>
        </g>
        <g id="Group-3" transform="translate(1348.000000, 555.000000)">
            <text id="Label" font-family="Roboto-Medium, Roboto" font-size="14" font-weight="400" fill="#FFFFFF">
                <tspan x="36" y="18">Label</tspan>
            </text>
            <g id="Check-button">
                <rect id="Rectangle-4" stroke="#FFFFFF" opacity="0.25" x="0.5" y="0.5" width="23" height="23" rx="11.5"></rect>
                <rect id="Rectangle-4" fill="#FFFFFF" x="7" y="7" width="10" height="10" rx="5"></rect>
            </g>
        </g>
        <g id="Group-3" transform="translate(920.000000, 592.000000)" opacity="0.25">
            <text id="Label" font-family="Roboto-Medium, Roboto" font-size="14" font-weight="400" fill="#FFFFFF">
                <tspan x="36" y="18">Label</tspan>
            </text>
            <g id="Check-button" stroke="#FFFFFF">
                <rect id="Rectangle-4" x="0.5" y="0.5" width="23" height="23" rx="3"></rect>
                <polyline id="Shape" stroke-width="2" stroke-linecap="round" stroke-linejoin="round" points="6.11111111 13.0955675 10.9940763 17.0769231 18.037037 6.92307692"></polyline>
            </g>
        </g>
        <g id="Group-3" transform="translate(1348.000000, 592.000000)" opacity="0.25">
            <text id="Label" font-family="Roboto-Medium, Roboto" font-size="14" font-weight="400" fill="#FFFFFF">
                <tspan x="36" y="18">Label</tspan>
            </text>
            <g id="Check-button">
                <rect id="Rectangle-4" stroke="#FFFFFF" x="0.5" y="0.5" width="23" height="23" rx="11.5"></rect>
                <rect id="Rectangle-4" fill="#FFFFFF" x="7" y="7" width="10" height="10" rx="5"></rect>
            </g>
        </g>
    </g>
</svg>