<?xml version="1.0" encoding="UTF-8"?>
<svg width="1224px" height="1064px" viewBox="0 0 1224 1064" version="1.1" xmlns="http://www.w3.org/2000/svg" xmlns:xlink="http://www.w3.org/1999/xlink">
    <!-- Generator: Sketch 52.6 (67491) - http://www.bohemiancoding.com/sketch -->
    <title>icons</title>
    <desc>Created with Sketch.</desc>
    <defs>
        <linearGradient x1="78.3364106%" y1="87.6429002%" x2="11.788737%" y2="-2.33424933%" id="linearGradient-1">
            <stop stop-color="#000000" stop-opacity="0" offset="0%"></stop>
            <stop stop-color="#000000" offset="100%"></stop>
        </linearGradient>
        <path d="M70.1086957,6.47619048 L26.1586957,6.48590476 C25.7038043,6.32238095 24.7646739,4.83447619 24.2592391,4.03466667 C23.0086957,2.05295238 21.7125,0 19.5652174,0 L4.89130435,0 C2.19456522,0 0,2.1792381 0,4.85714286 L0,14.5714286 L1.63043478,14.5714286 L73.3695652,14.5714286 L75,14.5714286 L75,11.3333333 C75,8.65542857 72.8054348,6.47619048 70.1086957,6.47619048 Z" id="path-2"></path>
        <rect id="path-3" x="25" y="55" width="100" height="40" rx="5"></rect>
        <linearGradient x1="17.3496094%" y1="100%" x2="54.8417969%" y2="12.5878906%" id="linearGradient-5">
            <stop stop-color="#FFFFFF" stop-opacity="0.5" offset="0%"></stop>
            <stop stop-color="#000000" offset="100%"></stop>
        </linearGradient>
        <path d="M17.2236328,0.415039062 L95.6640625,80.7148437 C87.7460937,90.1588542 82.7584635,94.8808594 80.7011719,94.8808594 C78.6438802,94.8808594 52.0677083,69.3365885 0.97265625,18.2480469 L17.2236328,0.415039062 Z" id="path-6"></path>
        <linearGradient x1="50%" y1="50%" x2="50%" y2="100%" id="linearGradient-8">
            <stop stop-color="#000000" offset="0%"></stop>
            <stop stop-color="#000000" stop-opacity="0" offset="100%"></stop>
        </linearGradient>
        <linearGradient x1="50%" y1="67.4270996%" x2="30.8216146%" y2="5.66616211%" id="linearGradient-9">
            <stop stop-color="#000000" stop-opacity="0" offset="0%"></stop>
            <stop stop-color="#000000" offset="100%"></stop>
        </linearGradient>
        <linearGradient x1="37.833478%" y1="53.2779405%" x2="19.9815538%" y2="13.109158%" id="linearGradient-10">
            <stop stop-color="#000000" stop-opacity="0" offset="0%"></stop>
            <stop stop-color="#000000" offset="100%"></stop>
        </linearGradient>
        <linearGradient x1="62.280649%" y1="62.2008714%" x2="19.0144231%" y2="9.11403245%" id="linearGradient-11">
            <stop stop-color="#000000" stop-opacity="0" offset="0%"></stop>
            <stop stop-color="#000000" offset="100%"></stop>
        </linearGradient>
        <linearGradient x1="100%" y1="100%" x2="0%" y2="18.9089753%" id="linearGradient-12">
            <stop stop-color="#FFFFFF" stop-opacity="0.5" offset="0%"></stop>
            <stop stop-color="#000000" offset="100%"></stop>
        </linearGradient>
    </defs>
    <g id="icons" stroke="none" stroke-width="1" fill="none" fill-rule="evenodd">
        <rect fill="#000000" x="0" y="0" width="1224" height="1064"></rect>
        <text id="Icons" font-family="SFProText-Regular, SF Pro Text" font-size="32" font-weight="normal" fill="#FFFFFF">
            <tspan x="100" y="131">Icons</tspan>
        </text>
        <g id="Icons" transform="translate(100.000000, 178.000000)">
            <g id="expand-white" transform="translate(0.000000, 11.000000)" stroke="#FFFFFF" stroke-linecap="round" stroke-width="1.55555556">
                <path d="M14,14 L0,0" id="Shape"></path>
                <polyline id="Shape" points="0 6.22222222 0 0 6.22222222 0"></polyline>
            </g>
            <g id="question-white" transform="translate(39.000000, 8.000000)" fill="#FFFFFF" fill-rule="nonzero">
                <g id="Group">
                    <path d="M5,0 C3.75,0 2.57142857,0.468 1.64285714,1.296 C0.607142857,2.232 0,3.6 0,5.04 C0,5.436 0.321428571,5.76 0.714285714,5.76 L1.42857143,5.76 C1.82142857,5.76 2.14285714,5.436 2.14285714,5.04 C2.14285714,4.212 2.5,3.456 3.10714286,2.88 C3.64285714,2.412 4.28571429,2.16 5,2.16 C5.10714286,2.16 5.21428571,2.16 5.32142857,2.196 C6.6425,2.34 7.67857143,3.42 7.82142857,4.716 C7.96392857,5.904 7.35678571,7.02 6.32142857,7.596 C4.82142857,8.388 3.89285714,9.9 3.89285714,11.556 L3.89285714,13.68 C3.89285714,14.076 4.21428571,14.4 4.60714286,14.4 L5.32142857,14.4 C5.71428571,14.4 6.03571429,14.076 6.03571429,13.68 L6.03571429,11.556 C6.03571429,10.728 6.53535714,9.936 7.32142857,9.50436 C9.14285714,8.53236 10.1785714,6.55236 9.92857143,4.50036 C9.71428571,2.16 7.85714286,0.288 5.57142857,0.036 C5.39285714,0 5.17857143,0 5,0 Z" id="Shape"></path>
                </g>
                <path d="M5.71428571,18 L4.28571429,18 C4.08857143,18 3.92857143,17.83908 3.92857143,17.64 L3.92857143,16.2 C3.92857143,16.00092 4.08857143,15.84 4.28571429,15.84 L5.71428571,15.84 C5.91178571,15.84 6.07142857,16.00092 6.07142857,16.2 L6.07142857,17.64 C6.07142857,17.83908 5.91178571,18 5.71428571,18 Z" id="Shape"></path>
            </g>
            <g id="fullscreen-white" transform="translate(119.000000, 7.000000)" stroke="#FFFFFF" stroke-width="1.63636364">
                <rect id="Rectangle-7" x="0.818181818" y="0.818181818" width="16.3636364" height="16.3636364" rx="1.63636364"></rect>
                <rect id="Rectangle-7" fill="#FFFFFF" x="0.818181818" y="0.818181818" width="16.3636364" height="3.27272727" rx="1.63636364"></rect>
            </g>
            <g id="sidebar" transform="translate(119.000000, 45.000000)" stroke="#FFFFFF" stroke-width="1.63636364">
                <rect id="Rectangle-7" x="0.818181818" y="0.818181818" width="16.3636364" height="16.3636364" rx="1.63636364"></rect>
                <path d="M6.18181818,17.1818182 L6.18181818,0.818181818 L1.63999999,0.818181818 C1.18612234,0.818181818 0.818181818,1.18612234 0.818181818,1.63999999 L0.818181818,16.36 C0.818181818,16.8138777 1.18612234,17.1818182 1.63999999,17.1818182 L6.18181818,17.1818182 Z" id="Rectangle-7" fill="#FFFFFF"></path>
            </g>
            <rect id="minimize-white" stroke="#FFFFFF" stroke-width="2" fill="#FFFFFF" x="75" y="22" width="16" height="2" rx="1"></rect>
            <g id="close-white" transform="translate(164.000000, 9.000000)" stroke="#FFFFFF" stroke-linecap="round" stroke-width="1.85022026">
                <path d="M0,0 L14,14" id="Shape"></path>
                <path d="M14,0 L0,14" id="Shape"></path>
            </g>
            <path d="M214.137651,15.742904 L211.716969,13.2920666 C211.424986,12.9964462 211.425034,12.5171993 211.717076,12.2216387 C212.009118,11.9260782 212.482564,11.9261266 212.774547,12.221747 L217,16.4998378 L212.773772,20.7782801 C212.481775,21.0738855 212.008329,21.0739097 211.716301,20.7783342 C211.424274,20.4827587 211.42425,20.0035118 211.716248,19.7079064 L214.137522,17.2567175 L204.747745,17.2567175 C204.334777,17.2567175 204,16.9178388 204,16.4998108 C204,16.0817827 204.334777,15.742904 204.747745,15.742904 L214.137651,15.742904 Z" id="arrow-right-medium-white" fill="#FFFFFF" fill-rule="nonzero"></path>
            <polyline id="down-large-white" stroke="#FFFFFF" stroke-width="1.6" stroke-linecap="round" stroke-linejoin="round" transform="translate(286.000000, 16.000000) rotate(90.000000) translate(-286.000000, -16.000000) " points="282 8 290 16 282 24"></polyline>
            <polyline id="right-medium-white" stroke="#FFFFFF" stroke-width="1.2" stroke-linecap="round" stroke-linejoin="round" points="314 10 320 16 314 22"></polyline>
            <polyline id="check-white" stroke="#FFFFFF" stroke-width="1.64705882" stroke-linecap="round" stroke-linejoin="round" points="341 17.2947615 346.732176 22 355 10"></polyline>
            <g id="Check-black" transform="translate(369.000000, 0.000000)">
                <rect id="Rectangle-13" fill="#FFFFFF" x="0" y="0" width="30" height="30" rx="3"></rect>
                <polyline id="check-black" stroke="#000000" stroke-width="1.64705882" stroke-linecap="round" stroke-linejoin="round" points="8 16.2947615 13.7321765 21 22 9"></polyline>
            </g>
            <path d="M247,6 C241.486087,6 237,10.486087 237,16 C237,21.5143478 241.486087,26 247,26 C252.514348,26 257,21.5143478 257,16 C257,10.486087 252.514348,6 247,6 Z M252.524348,16.3078261 L249.046522,19.7856522 C248.961739,19.8704348 248.850435,19.9130435 248.73913,19.9130435 C248.627826,19.9130435 248.516522,19.8704348 248.431739,19.7856522 C248.261739,19.6156522 248.261739,19.3408696 248.431739,19.1708696 L251.167826,16.4347826 L241.782609,16.4347826 C241.542609,16.4347826 241.347826,16.24 241.347826,16 C241.347826,15.76 241.542609,15.5652174 241.782609,15.5652174 L251.167826,15.5652174 L248.431739,12.8291304 C248.261739,12.6591304 248.261739,12.3843478 248.431739,12.2143478 C248.601739,12.0443478 248.876522,12.0443478 249.046522,12.2143478 L252.524348,15.6921739 C252.564783,15.7321739 252.596522,15.7804348 252.618696,15.833913 C252.662609,15.94 252.662609,16.06 252.618696,16.166087 C252.596522,16.2195652 252.564783,16.2673913 252.524348,16.3078261 Z" id="arrow-right-in-circle-medium-white" fill="#FFFFFF" fill-rule="nonzero"></path>
            <path d="M246,52 L243,52 C242.447715,52 242,52.4477153 242,53 C242,53.5522847 242.447715,54 243,54 L246,54 L246,57 C246,57.5522847 246.447715,58 247,58 C247.552285,58 248,57.5522847 248,57 L248,54 L251,54 C251.552285,54 252,53.5522847 252,53 C252,52.4477153 251.552285,52 251,52 L248,52 L248,49 C248,48.4477153 247.552285,48 247,48 C246.447715,48 246,48.4477153 246,49 L246,52 Z M247,43 C252.514348,43 257,47.486087 257,53 C257,58.5143478 252.514348,63 247,63 C241.486087,63 237,58.5143478 237,53 C237,47.486087 241.486087,43 247,43 Z" id="plus-in-circle-medium-white" fill="#FFFFFF" fill-rule="nonzero"></path>
            <g id="clipboard" transform="translate(418.000000, 1.000000)">
                <polyline id="Shape" stroke="#FFFFFF" stroke-width="1.15789474" stroke-linecap="round" stroke-linejoin="round" points="7 15.7058824 10.72 19 16 11"></polyline>
                <path d="M14.15625,5 L6.84375,5 C6.378,5 6,4.62666667 6,4.16666667 L6,0.833333333 C6,0.373333333 6.378,0 6.84375,0 L14.15625,0 C14.622,0 15,0.373333333 15,0.833333333 L15,4.16666667 C15,4.62666667 14.622,5 14.15625,5 Z" id="Shape" fill="#FFFFFF" fill-rule="nonzero"></path>
                <path d="M20.2631579,1 L16.7894737,1 L16.7894737,3.88888889 L19.1052632,3.88888889 L19.1052632,24.1111111 L2.89473684,24.1111111 L2.89473684,3.88888889 L5.21052632,3.88888889 L5.21052632,1 L1.73684211,1 C0.779263158,1 0,1.77768889 0,2.73333333 L0,25.2666667 C0,26.2223111 0.779263158,27 1.73684211,27 L20.2631579,27 C21.2207368,27 22,26.2223111 22,25.2666667 L22,2.73333333 C22,1.77768889 21.2207368,1 20.2631579,1 Z" id="Shape" fill="#FFFFFF" fill-rule="nonzero"></path>
            </g>
            <g id="rename" transform="translate(459.000000, 2.000000)">
                <path d="M10.3002525,26 L2,26 C0.8954305,26 1.3527075e-16,25.1045695 0,24 L0,2 C-1.3527075e-16,0.8954305 0.8954305,2.02906125e-16 2,0 L20,0 C21.1045695,-2.02906125e-16 22,0.8954305 22,2 L22,10.2334957 L19,10.2334957 L19,3 L3,3 L3,23 L10.3002525,23 L10.3002525,26 Z M6,6 L16,6 L16,8 L6,8 L6,6 Z M6,18 L12,18 L12,20 L6,20 L6,18 Z M6,12 L16,12 L16,14 L6,14 L6,12 Z" id="Rectangle-5" fill="#FFFFFF"></path>
                <g id="pencil" transform="translate(13.000000, 7.500000)">
                    <g id="Group">
                        <polyline id="Shape" stroke="#FFFFFF" stroke-width="1.44" stroke-linecap="round" stroke-linejoin="round" points="16.344 5.544 4.968 16.848 0.648 18 1.872 13.68 13.176 2.376"></polyline>
                        <path d="M16.632,6.192 C16.632,6.192 17.136,5.688 17.136,5.688 C18.288,4.536 18.288,2.664 17.136,1.512 C15.984,0.36 14.112,0.36 12.96,1.512 C12.96,1.512 12.456,2.016 12.456,2.016 L16.632,6.192 Z" id="Shape" fill="#FFFFFF" fill-rule="nonzero"></path>
                        <polygon id="Shape" fill="#FFFFFF" fill-rule="nonzero" points="1.944 13.608 5.112 16.704 0.936 17.712"></polygon>
                    </g>
                </g>
            </g>
            <g id="rename" transform="translate(459.000000, 45.000000)">
                <path d="M7.64212285,20 L1.5,20 C0.671572875,20 1.01453063e-16,19.3284271 0,18.5 L0,1.5 C-1.01453063e-16,0.671572875 0.671572875,1.52179594e-16 1.5,0 L14.5,0 C15.3284271,-1.52179594e-16 16,0.671572875 16,1.5 L16,7.87191977 L14,7.87191977 L14,2 L2,2 L2,18 L7.64212285,18 L7.64212285,20 Z M4,4.61538462 L12,4.61538462 L12,6.61538462 L4,6.61538462 L4,4.61538462 Z M4,13.8461538 L9,13.8461538 L9,15.8461538 L4,15.8461538 L4,13.8461538 Z M4,9.23076923 L12,9.23076923 L12,11.2307692 L4,11.2307692 L4,9.23076923 Z" id="Rectangle-5" fill="#FFFFFF"></path>
                <g id="pencil" transform="translate(9.645161, 5.769231)">
                    <g id="Group">
                        <polyline id="Shape" stroke="#FFFFFF" stroke-width="1.08" stroke-linecap="round" stroke-linejoin="round" points="12.1261935 4.26461538 3.68593548 12.96 0.480774194 13.8461538 1.38890323 10.5230769 9.77574194 1.82769231"></polyline>
                        <path d="M12.339871,4.76307692 C12.339871,4.76307692 12.7138065,4.37538462 12.7138065,4.37538462 C13.5685161,3.48923077 13.5685161,2.04923077 12.7138065,1.16307692 C11.8590968,0.276923077 10.4701935,0.276923077 9.61548387,1.16307692 C9.61548387,1.16307692 9.24154839,1.55076923 9.24154839,1.55076923 L12.339871,4.76307692 Z" id="Shape" fill="#FFFFFF" fill-rule="nonzero"></path>
                        <polygon id="Shape" fill="#FFFFFF" fill-rule="nonzero" points="1.44232258 10.4676923 3.79277419 12.8492308 0.694451613 13.6246154"></polygon>
                    </g>
                </g>
            </g>
            <g id="rename" transform="translate(421.000000, 45.000000)">
                <path d="M4,1 L4,3 L2,3 L2,19 L14,19 L14,3 L12,3 L12,1 L14.5,1 C15.3284271,1 16,1.67157288 16,2.5 L16,19.5 C16,20.3284271 15.3284271,21 14.5,21 L1.5,21 C0.671572875,21 1.01453063e-16,20.3284271 0,19.5 L0,2.5 C-1.01453063e-16,1.67157288 0.671572875,1 1.5,1 L4,1 Z M6,0 L10,0 C10.5522847,-1.01453063e-16 11,0.44771525 11,1 L11,3 C11,3.55228475 10.5522847,4 10,4 L6,4 C5.44771525,4 5,3.55228475 5,3 L5,1 C5,0.44771525 5.44771525,1.01453063e-16 6,0 Z" id="Rectangle-5" fill="#FFFFFF"></path>
                <polyline id="Shape" stroke="#FFFFFF" stroke-linecap="round" stroke-linejoin="round" points="4.40909091 11.6339869 7.28363636 14.0740741 11.3636364 8.14814815"></polyline>
            </g>
        </g>
        <g id="local" transform="translate(100.000000, 297.000000)" stroke="#FFFFFF" stroke-linecap="round" stroke-width="1.25">
            <polyline id="Shape" points="0.595238095 1.19047619 5.95238095 1.19047619 5.95238095 6.54761905"></polyline>
            <path d="M5.68154762,2.02142857 C2.26130952,4.25178571 0,8.11190476 0,12.5 C0,19.4035714 5.59642857,25 12.5,25 C19.4035714,25 25,19.4035714 25,12.5 C25,5.59642857 19.4035714,0 12.5,0" id="Shape"></path>
        </g>
        <g id="remote" transform="translate(145.000000, 297.000000)" stroke="#FFFFFF" stroke-linecap="round" stroke-width="1.07142857">
            <polyline id="Shape" points="19.4117647 6.81818182 12.9411765 6.81818182 12.9411765 0.568181818"></polyline>
            <polygon id="Shape" points="20 25 0 25 0 0 12.9411765 0 20 6.81818182"></polygon>
            <polyline id="Shape" points="6.15384615 14.4044249 9.48701098 11.0714286 12.8205128 14.4047619"></polyline>
            <path d="M9.48717949,19.2857143 L9.48717949,11.7380952" id="Shape"></path>
        </g>
        <g id="warning" transform="translate(629.000000, 171.000000)">
            <rect id="Rectangle" fill="#FA6800" x="20.4" y="11.3" width="3.1" height="14.3" rx="1.55"></rect>
            <circle id="Oval" fill="#FA6800" cx="21.95" cy="30.85" r="1.75"></circle>
            <circle id="Oval" stroke="#FA6800" stroke-width="2" cx="22" cy="22" r="22"></circle>
        </g>
        <g id="whatIsIcon" transform="translate(695.000000, 169.000000)">
            <path d="M17.1994121,17.6005879 L9.6,25.2 L9.6,18 L2,18 C0.8954305,18 1.3527075e-16,17.1045695 0,16 L0,2 C-1.3527075e-16,0.8954305 0.8954305,2.02906125e-16 2,0 L16,0 C17.1045695,-2.02906125e-16 18,0.8954305 18,2 L18,16 C18,16.654591 17.6855252,17.2357326 17.1994121,17.6005879 Z" id="Rectangle-10" fill="#FA6800"></path>
            <path d="M7.854,11.978 L10.052,11.978 L10.052,14.134 L7.854,14.134 L7.854,11.978 Z M5.6,7.358 C5.60933338,6.85399748 5.69566585,6.3920021 5.859,5.972 C6.02233415,5.5519979 6.25099853,5.18800154 6.545,4.88 C6.83900147,4.57199846 7.19366459,4.33166753 7.609,4.159 C8.02433541,3.98633247 8.4886641,3.9 9.002,3.9 C9.66466998,3.9 10.2176645,3.99099909 10.661,4.173 C11.1043355,4.35500091 11.461332,4.58133198 11.732,4.852 C12.002668,5.12266802 12.1963328,5.41433177 12.313,5.727 C12.4296672,6.03966823 12.488,6.33133198 12.488,6.602 C12.488,7.05000224 12.4296672,7.41866522 12.313,7.708 C12.1963328,7.99733478 12.0516675,8.24466564 11.879,8.45 C11.7063325,8.65533436 11.5150011,8.83033261 11.305,8.975 C11.0949989,9.11966739 10.8966676,9.26433261 10.71,9.409 C10.5233324,9.55366739 10.3576674,9.7193324 10.213,9.906 C10.0683326,10.0926676 9.97733352,10.3259986 9.94,10.606 L9.94,11.138 L8.05,11.138 L8.05,10.508 C8.07800014,10.1066647 8.15499937,9.77066802 8.281,9.5 C8.40700063,9.22933198 8.55399916,8.99833429 8.722,8.807 C8.89000084,8.61566571 9.0673324,8.4500007 9.254,8.31 C9.4406676,8.1699993 9.61333254,8.0300007 9.772,7.89 C9.93066746,7.7499993 10.0589995,7.59600084 10.157,7.428 C10.2550005,7.25999916 10.2993334,7.05000126 10.29,6.798 C10.29,6.36866452 10.185001,6.05133436 9.975,5.846 C9.76499895,5.64066564 9.4733352,5.538 9.1,5.538 C8.84799874,5.538 8.63100091,5.58699951 8.449,5.685 C8.26699909,5.78300049 8.11766725,5.91366585 8.001,6.077 C7.88433275,6.24033415 7.79800028,6.43166557 7.742,6.651 C7.68599972,6.87033443 7.658,7.10599874 7.658,7.358 L5.6,7.358 Z" id="?" fill="#FFFFFF"></path>
        </g>
        <g id="eyeShow" transform="translate(372.000000, 266.000000)" fill="#FFFFFF">
            <path d="M1.77635684e-14,5.5 C1.77635684e-14,4.91223145 4.99121094,-1.20966451e-14 10,-1.24344979e-14 C15.0087891,-1.24344979e-14 20,5.00720215 20,5.5 C20,5.99279785 15.0087891,11.0157471 10,11.0157471 C4.99121094,11.0157471 1.7828912e-14,6.08776855 1.77635684e-14,5.5 Z M10,10 C12.4852814,10 14.5,7.98528137 14.5,5.5 C14.5,3.01471863 12.4852814,1 10,1 C7.51471863,1 5.5,3.01471863 5.5,5.5 C5.5,7.98528137 7.51471863,10 10,10 Z M10,8 C8.61928813,8 7.5,6.88071187 7.5,5.5 C7.5,4.11928813 8.61928813,3 10,3 C11.3807119,3 12.5,4.11928813 12.5,5.5 C12.5,6.88071187 11.3807119,8 10,8 Z"></path>
            <path d="M12.9051959,20.5052117 L11.9615347,21.4488729 C11.3686756,21.1612824 10.7031726,21 10,21 C7.51471863,21 5.5,23.0147186 5.5,25.5 C5.5,26.2031726 5.66128245,26.8686756 5.94887295,27.4615347 L4.22231777,29.1880899 C1.7523141,27.72029 1.78022858e-14,25.8482646 1.77635684e-14,25.5 C1.77635684e-14,24.9122314 4.99121094,20 10,20 C10.9815501,20 11.9624252,20.1922891 12.9051959,20.5052117 Z M15.7935485,21.8594998 C18.2551866,23.3391334 20,25.208633 20,25.5 C20,25.9927979 15.0087891,31.0157471 10,31.0157471 C9.02904232,31.0157471 8.05874518,30.8305629 7.12533928,30.527709 L8.08138306,29.5716653 C8.66336986,29.846385 9.31374558,30 10,30 C12.4852814,30 14.5,27.9852814 14.5,25.5 C14.5,24.8137456 14.346385,24.1633699 14.0716653,23.5813831 L15.7935485,21.8594998 Z M9.67409808,27.9789502 L12.4789502,25.1740981 C12.492837,25.2807663 12.5,25.3895466 12.5,25.5 C12.5,26.8807119 11.3807119,28 10,28 C9.88954663,28 9.78076626,27.992837 9.67409808,27.9789502 Z M7.52892192,25.8814857 C7.50987771,25.757105 7.5,25.629706 7.5,25.5 C7.5,24.1192881 8.61928813,23 10,23 C10.129706,23 10.257105,23.0098777 10.3814857,23.0289219 L7.52892192,25.8814857 Z" id="eyeHide"></path>
        </g>
        <g id="eyeHide" transform="translate(403.000000, 283.000000)" fill="#FFFFFF">
            <path d="M3.19744231e-14,9.5 C3.19744231e-14,8.91223145 4.99121094,4 10,4 C15.0087891,4 20,9.00720215 20,9.5 C20,9.99279785 15.0087891,15.0157471 10,15.0157471 C4.99121094,15.0157471 3.20397667e-14,10.0877686 3.19744231e-14,9.5 Z M10,14 C12.4852814,14 14.5,11.9852814 14.5,9.5 C14.5,7.01471863 12.4852814,5 10,5 C7.51471863,5 5.5,7.01471863 5.5,9.5 C5.5,11.9852814 7.51471863,14 10,14 Z M10,12 C8.61928813,12 7.5,10.8807119 7.5,9.5 C7.5,8.11928813 8.61928813,7 10,7 C11.3807119,7 12.5,8.11928813 12.5,9.5 C12.5,10.8807119 11.3807119,12 10,12 Z"></path>
            <rect id="Rectangle" transform="translate(10.098835, 9.538835) rotate(45.000000) translate(-10.098835, -9.538835) " x="8.59883476" y="-1.46116524" width="3" height="22" rx="1.5"></rect>
        </g>
        <g id="create-wallet" transform="translate(100.000000, 400.000000)">
            <g id="Group">
                <rect id="Rectangle-4" fill-opacity="0" fill="#000000" opacity="0.200000003" x="0" y="0" width="150" height="150"></rect>
                <rect id="Rectangle-8" stroke="#FA6800" stroke-width="3.40298507" x="55" y="37" width="57" height="57" rx="5"></rect>
                <rect id="Rectangle-8" fill="#000000" x="37" y="45" width="67" height="8"></rect>
                <rect id="Rectangle-8" fill="#000000" x="96" y="72" width="8" height="50"></rect>
                <rect id="Rectangle-8" fill="#FA6800" x="36" y="53" width="60" height="60" rx="5"></rect>
                <path d="M66,53 L91,53 C93.7614237,53 96,55.2385763 96,58 L96,108 C96,110.761424 93.7614237,113 91,113 L66,113 L66,53 Z" id="Rectangle-8" fill="url(#linearGradient-1)" style="mix-blend-mode: overlay;" opacity="0.200000003"></path>
                <path d="M68,81 L79,81 C80.1045695,81 81,81.8954305 81,83 C81,84.1045695 80.1045695,85 79,85 L68,85 L68,96 C68,97.1045695 67.1045695,98 66,98 C64.8954305,98 64,97.1045695 64,96 L64,85 L53,85 C51.8954305,85 51,84.1045695 51,83 C51,81.8954305 51.8954305,81 53,81 L64,81 L64,70 C64,68.8954305 64.8954305,68 66,68 C67.1045695,68 68,68.8954305 68,70 L68,81 Z" id="Rectangle-4" fill="#FFFFFF"></path>
            </g>
        </g>
        <g id="create-wallet" transform="translate(400.000000, 400.000000)">
            <g id="Group">
                <rect id="Rectangle-4" fill-opacity="0" fill="#000000" opacity="0.200000003" x="0" y="0" width="150" height="150"></rect>
                <g id="folder" transform="translate(38.000000, 41.000000)">
                    <g id="Path">
                        <use fill="#FA6800" xlink:href="#path-2"></use>
                        <use fill-opacity="0.2" fill="#000000" xlink:href="#path-2"></use>
                    </g>
                    <g id="Group" transform="translate(0.000000, 17.809524)" fill-rule="nonzero">
                        <path d="M73.3695652,0 L1.63043478,0 C0.732065217,0 0,0.725333333 0,1.61904762 L0,45.3333333 C0,48.0112381 2.19456522,50.1904762 4.89130435,50.1904762 L70.1086957,50.1904762 C72.8054348,50.1904762 75,48.0112381 75,45.3333333 L75,1.61904762 C75,0.725333333 74.2679348,0 73.3695652,0 Z" id="Shape" fill="#FA6800"></path>
                        <path d="M28.478125,27.6648571 C29.115625,27.0318095 30.1460598,27.0318095 30.7835598,27.6648571 L36.1525815,32.996381 L36.1525815,12.6190476 C36.1525815,11.7253333 36.8813859,11 37.7830163,11 C38.6846467,11 39.4134511,11.7253333 39.4134511,12.6190476 L39.4134511,32.996381 L44.7824728,27.6648571 C45.4199728,27.0318095 46.4504076,27.0318095 47.0879076,27.6648571 C47.7254076,28.2979048 47.7254076,29.3211429 47.0879076,29.9541905 L38.9357337,38.0494286 C38.6177989,38.3651429 38.2004076,38.5238095 37.7830163,38.5238095 C37.365625,38.5238095 36.9482337,38.3651429 36.6302989,38.0494286 L28.478125,29.9541905 C27.840625,29.3211429 27.840625,28.2979048 28.478125,27.6648571 Z" id="Path" fill="#FFFFFF" transform="translate(37.783016, 24.761905) scale(1, -1) translate(-37.783016, -24.761905) "></path>
                    </g>
                </g>
            </g>
        </g>
        <g id="restore-wallet" transform="translate(250.000000, 400.000000)">
            <g id="Group">
                <rect id="Rectangle-4" fill-opacity="0" fill="#000000" opacity="0.200000003" x="0" y="0" width="150" height="150"></rect>
                <mask id="mask-4" fill="white">
                    <use xlink:href="#path-3"></use>
                </mask>
                <use id="Rectangle-9" fill="#FA6800" xlink:href="#path-3"></use>
                <path d="M25,75 L125,75 L125,90 C125,92.7614237 122.761424,95 120,95 L30,95 C27.2385763,95 25,92.7614237 25,90 L25,75 Z" id="Rectangle-9" fill="url(#linearGradient-5)" style="mix-blend-mode: overlay;" opacity="0.200000003" mask="url(#mask-4)"></path>
                <circle id="Oval-6" fill="#FFFFFF" opacity="0.5" mask="url(#mask-4)" cx="91" cy="75" r="8"></circle>
                <circle id="Oval-6" fill="#FFFFFF" opacity="0.5" mask="url(#mask-4)" cx="68" cy="75" r="8"></circle>
                <circle id="Oval-6" fill="#FFFFFF" opacity="0.5" mask="url(#mask-4)" cx="45" cy="75" r="8"></circle>
                <rect id="Rectangle-9" fill="#FFFFFF" mask="url(#mask-4)" x="109" y="63" width="4" height="24" rx="2"></rect>
            </g>
        </g>
        <g id="restore-wallet-from-hardware" transform="translate(550.000000, 400.000000)">
            <g id="Group">
                <polygon id="Rectangle-4" fill-opacity="0" fill="#000000" opacity="0.200000003" points="0 0 150 0 150 150 0 150"></polygon>
                <g id="Group-5" transform="translate(14.000000, 39.000000)">
                    <path d="M18.3140017,4 L102.489644,4 C104.319916,4 105.803645,5.48372908 105.803645,7.31400166 L105.803645,38.8866904 C105.803645,40.716963 104.319916,42.200692 102.489644,42.200692 L18.3140017,42.200692 C16.4837291,42.200692 15,40.716963 15,38.8866904 L15,7.31400166 C15,5.48372908 16.4837291,4 18.3140017,4 Z" id="Rectangle-6" fill="#FA6800"></path>
                    <path d="M18.3140017,24 L102.489644,24 C104.319916,24 105.803645,25.4837291 105.803645,27.3140017 L105.803645,39.7859983 C105.803645,41.6162709 104.319916,43.1 102.489644,43.1 L18.3140017,43.1 C16.4837291,43.1 15,41.6162709 15,39.7859983 L15,27.3140017 C15,25.4837291 16.4837291,24 18.3140017,24 Z" id="Rectangle-6" fill="url(#linearGradient-5)" style="mix-blend-mode: overlay;" opacity="0.200000003"></path>
                    <path d="M63.5434963,16.1245675 L88.0671085,16.1245675 C89.8973811,16.1245675 91.3811102,17.6082966 91.3811102,19.4385691 L91.3811102,27.7586627 C91.3811102,29.5889353 89.8973811,31.0726644 88.0671085,31.0726644 L63.5434963,31.0726644 C61.7132237,31.0726644 60.2294946,29.5889353 60.2294946,27.7586627 L60.2294946,19.4385691 C60.2294946,17.6082966 61.7132237,16.1245675 63.5434963,16.1245675 Z" id="Rectangle-6" fill="#FFFFFF" opacity="0.5"></path>
                    <path d="M21.5550953,65.5883673 C13.6401579,64.7584213 7.47058824,58.0494929 7.47058824,49.8961938 C7.47058824,41.7428946 13.6401579,35.0339662 21.5550953,34.2040203 L21.5550953,34.1176471 L88.3352113,34.1176471 C90.1654838,34.1176471 91.6492129,35.6013761 91.6492129,37.4316487 L91.6492129,62.3607388 C91.6492129,64.1910114 90.1654838,65.6747405 88.3352113,65.6747405 L21.5550953,65.6747405 L21.5550953,65.5883673 Z" id="Rectangle-7" fill="#FFFFFF" transform="translate(61.323115, 49.896194) rotate(45.000000) translate(-61.323115, -49.896194) "></path>
                    <g id="Group-7" transform="translate(0.000000, 5.000000)">
                        <mask id="mask-7" fill="white">
                            <use xlink:href="#path-6"></use>
                        </mask>
                        <g id="Path-2"></g>
                        <path d="M21.5550953,60.5883673 C13.6401579,59.7584213 7.47058824,53.0494929 7.47058824,44.8961938 C7.47058824,36.7428946 13.6401579,30.0339662 21.5550953,29.2040203 L21.5550953,29.1176471 L88.3352113,29.1176471 C90.1654838,29.1176471 91.6492129,30.6013761 91.6492129,32.4316487 L91.6492129,57.3607388 C91.6492129,59.1910114 90.1654838,60.6747405 88.3352113,60.6747405 L21.5550953,60.6747405 L21.5550953,60.5883673 Z" id="Rectangle-7" fill="url(#linearGradient-8)" opacity="0.03" mask="url(#mask-7)" transform="translate(61.323115, 44.896194) rotate(45.000000) translate(-61.323115, -44.896194) "></path>
                    </g>
                    <ellipse id="Oval-3" fill="#FA6800" cx="34.5459818" cy="23.5986159" rx="9.11350456" ry="9.1349481"></ellipse>
                </g>
            </g>
        </g>
        <g id="remote-node" transform="translate(850.000000, 400.000000)">
            <g id="Group">
                <rect id="Rectangle-4" fill-opacity="0" fill="#000000" opacity="0.200000003" x="0" y="0" width="150" height="150"></rect>
                <g id="Group-3" transform="translate(30.000000, 32.000000)">
                    <path d="M28.5923086,15.7309178 C31.0495143,6.669337 39.3831975,0 49.2857143,0 C57.7024172,0 64.9857553,4.81809638 68.4907083,11.8280278 C69.2202948,11.7448653 69.9622636,11.7021277 70.7142857,11.7021277 C81.3654916,11.7021277 90,20.2753984 90,30.8510638 C90,41.4267293 81.3654916,50 70.7142857,50 L13.9285714,50 C6.23603384,50 0,43.8081933 0,36.1702128 C0,28.5322322 6.23603384,22.3404255 13.9285714,22.3404255 C14.3659228,22.3404255 14.7985662,22.3604398 15.2256233,22.3995961 C16.1778936,18.1061013 20.0325377,14.893617 24.6428571,14.893617 C26.0500968,14.893617 27.3869304,15.1929228 28.5923086,15.7309178 Z" id="Oval-2" fill="#FA6800"></path>
                    <ellipse id="Oval-2" fill="url(#linearGradient-9)" style="mix-blend-mode: overlay;" opacity="0.200000003" cx="49.2857143" cy="21.2765957" rx="21.4285714" ry="21.2765957"></ellipse>
                    <ellipse id="Path" fill="url(#linearGradient-10)" style="mix-blend-mode: overlay;" opacity="0.200000003" cx="70.7142857" cy="30.8510638" rx="19.2857143" ry="19.1489362"></ellipse>
                    <ellipse id="Path" fill="url(#linearGradient-11)" style="mix-blend-mode: overlay;" opacity="0.200000003" cx="13.9285714" cy="36.1702128" rx="13.9285714" ry="13.8297872"></ellipse>
                    <g id="Group-2" transform="translate(28.000000, 65.000000)" stroke="#FFFFFF" stroke-linecap="round" stroke-width="3">
                        <g id="Group-6">
                            <g id="down" transform="translate(6.500000, 10.000000) scale(1, -1) translate(-6.500000, -10.000000) ">
                                <polyline id="Shape" points="13.5 14 7 20 0.5 14"></polyline>
                                <path d="M7,0.5 L7,19.5666667" id="Shape"></path>
                            </g>
                            <g id="down" transform="translate(21.000000, 0.000000)">
                                <polyline id="Shape" points="13.5 14 7 20 0.5 14"></polyline>
                                <path d="M7,0.5 L7,19.5666667" id="Shape"></path>
                            </g>
                        </g>
                    </g>
                </g>
            </g>
        </g>
        <g id="local-node" transform="translate(700.000000, 400.000000)">
            <g id="Group">
                <rect id="Rectangle-4" fill-opacity="0" fill="#000000" opacity="0.200000003" x="0" y="0" width="150" height="150"></rect>
                <g id="Group-4" transform="translate(50.000000, 28.000000)">
                    <g id="server" transform="translate(0.000000, 27.000000)">
                        <path d="M3.125,3.12 L46.875,3.12 C46.9640625,3.12 47.0421875,3.11688 47.1296875,3.12 L45.9375,1.71756 C45.1546875,0.67392 43.74375,0 42.34375,0 L7.8125,0 C5.971875,0 4.784375,0.97344 4.0515625,1.70508 C4.0125,1.74408 3.975,1.78464 3.940625,1.82832 L2.8765625,3.12 C2.9609375,3.11688 3.0390625,3.12 3.125,3.12 Z" id="Shape" fill="#000000" fill-rule="nonzero"></path>
                        <path d="M46.875,8 L3.125,8 C1.3140625,8 0,9.12133333 0,10.6666667 L0,65.3333333 C0,66.8786667 1.3140625,68 3.125,68 L46.875,68 C48.6859375,68 50,66.8786667 50,65.3333333 L50,10.6666667 C50,9.12133333 48.6859375,8 46.875,8 Z" id="Shape" fill="#FA6800" fill-rule="nonzero"></path>
                        <path d="M48.4375,8 L26.5625,8 C25.6570312,8 25,9.12133333 25,10.6666667 L25,65.3333333 C25,66.8786667 25.6570312,68 26.5625,68 L48.4375,68 C49.3429688,68 50,66.8786667 50,65.3333333 L50,10.6666667 C50,9.12133333 49.3429688,8 48.4375,8 Z" id="Shape" fill="url(#linearGradient-12)" style="mix-blend-mode: overlay;" opacity="0.200000003"></path>
                        <path d="M25,61.08 C23.28125,61.08 21.875,59.676 21.875,57.96 C21.875,56.244 23.28125,54.84 25,54.84 C26.71875,54.84 28.125,56.244 28.125,57.96 C28.125,59.676 26.71875,61.08 25,61.08 Z M25,50.16 C23.28125,50.16 21.875,48.756 21.875,47.04 C21.875,45.324 23.28125,43.92 25,43.92 C26.71875,43.92 28.125,45.324 28.125,47.04 C28.125,48.756 26.71875,50.16 25,50.16 Z M40.625,37.3542857 C40.625,38.1257143 40,38.64 39.0625,38.64 L10.9375,38.64 C10,38.64 9.375,38.1257143 9.375,37.3542857 L9.375,30.9257143 C9.375,30.1542857 10,29.64 10.9375,29.64 L39.0625,29.64 C40,29.64 40.625,30.1542857 40.625,30.9257143 L40.625,37.3542857 Z M40.625,23.3142857 C40.625,24.0857143 40,24.6 39.0625,24.6 L10.9375,24.6 C10,24.6 9.375,24.0857143 9.375,23.3142857 L9.375,16.8857143 C9.375,16.1142857 10,15.6 10.9375,15.6 L39.0625,15.6 C40,15.6 40.625,16.1142857 40.625,16.8857143 L40.625,23.3142857 Z" id="Shape" fill="#FFFFFF" fill-rule="nonzero" opacity="0.5"></path>
                    </g>
                    <g id="Group-6" transform="translate(8.000000, 0.000000)" stroke="#FFFFFF" stroke-linecap="round" stroke-width="3">
                        <g id="arrow" transform="translate(6.500000, 10.000000) scale(1, -1) translate(-6.500000, -10.000000) ">
                            <polyline id="Shape" points="13.5 14 7 20 0.5 14"></polyline>
                            <path d="M7,0.5 L7,19.5666667" id="Shape"></path>
                        </g>
                        <g id="arrow" transform="translate(21.000000, 0.000000)">
                            <polyline id="Shape" points="13.5 14 7 20 0.5 14"></polyline>
                            <path d="M7,0.5 L7,19.5666667" id="Shape"></path>
                        </g>
                    </g>
                </g>
            </g>
        </g>
        <text id="Create-wallet" font-family="SFProDisplay-Light, SF Pro Display" font-size="15" font-weight="300" line-spacing="22" fill="#FFFFFF">
            <tspan x="135.493164" y="577">Create wallet</tspan>
        </text>
        <text id="Restore-from-file" font-family="SFProDisplay-Light, SF Pro Display" font-size="15" font-weight="300" line-spacing="22" fill="#FFFFFF">
            <tspan x="426.427734" y="577">Restore from file</tspan>
        </text>
        <text id="Enter-seed" font-family="SFProDisplay-Light, SF Pro Display" font-size="15" font-weight="300" line-spacing="22" fill="#FFFFFF">
            <tspan x="292.363281" y="577">Enter seed</tspan>
        </text>
        <text id="Restore-from-hardwar" font-family="SFProDisplay-Light, SF Pro Display" font-size="15" font-weight="300" line-spacing="22" fill="#FFFFFF">
            <tspan x="587.166992" y="577">Restore from</tspan>
            <tspan x="578.348633" y="599">hardware wallet</tspan>
        </text>
        <text id="Local-node" font-family="SFProDisplay-Light, SF Pro Display" font-size="15" font-weight="300" line-spacing="22" fill="#FFFFFF">
            <tspan x="742.352539" y="577">Local node</tspan>
        </text>
        <text id="Remote-node" font-family="SFProDisplay-Light, SF Pro Display" font-size="15" font-weight="300" line-spacing="22" fill="#FFFFFF">
            <tspan x="884.466064" y="577">Remote node</tspan>
        </text>
    </g>
</svg>