<?xml version="1.0" encoding="UTF-8"?>
<svg width="1600px" height="1064px" viewBox="0 0 1600 1064" version="1.1" xmlns="http://www.w3.org/2000/svg" xmlns:xlink="http://www.w3.org/1999/xlink">
    <!-- Generator: Sketch 53.2 (72643) - https://sketchapp.com -->
    <title>Inputs and dropdowns</title>
    <desc>Created with Sketch.</desc>
    <defs>
        <path d="M3.8,37.6 L1,32 C0.7,31.3 0,29.6 0,27.9 C0,23 4,22 4,22 L4,2.9 C4,1 5.6,0 7,0 C8.4,0 10,1 10,3 L10,16 L10,14 C10,12.6 11.1,11 13,11 C14.9,11 16,12.6 16,14 C16,14 16,15.5 16,15 C16,13.6 16.7,12 19,12 C21,12 22,14.2 22,17 C22,15.6 22.5,14 25,14 C27.5,14 28,16.6 28,18 L28,34 C28,38.4 24.4,42 20,42 L10.9,42 C7.9,42 5.1,40.3 3.8,37.6 Z" id="path-1"></path>
        <filter x="-92.9%" y="-50.0%" width="285.7%" height="223.8%" filterUnits="objectBoundingBox" id="filter-2">
            <feMorphology radius="1" operator="dilate" in="SourceAlpha" result="shadowSpreadOuter1"></feMorphology>
            <feOffset dx="0" dy="5" in="shadowSpreadOuter1" result="shadowOffsetOuter1"></feOffset>
            <feGaussianBlur stdDeviation="7.5" in="shadowOffsetOuter1" result="shadowBlurOuter1"></feGaussianBlur>
            <feComposite in="shadowBlurOuter1" in2="SourceAlpha" operator="out" result="shadowBlurOuter1"></feComposite>
            <feColorMatrix values="0 0 0 0 0   0 0 0 0 0   0 0 0 0 0  0 0 0 1 0" type="matrix" in="shadowBlurOuter1"></feColorMatrix>
        </filter>
        <path d="M3.8,37.6 L1,32 C0.7,31.3 0,29.6 0,27.9 C0,23 4,22 4,22 L4,2.9 C4,1 5.6,0 7,0 C8.4,0 10,1 10,3 L10,16 L10,14 C10,12.6 11.1,11 13,11 C14.9,11 16,12.6 16,14 C16,14 16,15.5 16,15 C16,13.6 16.7,12 19,12 C21,12 22,14.2 22,17 C22,15.6 22.5,14 25,14 C27.5,14 28,16.6 28,18 L28,34 C28,38.4 24.4,42 20,42 L10.9,42 C7.9,42 5.1,40.3 3.8,37.6 Z" id="path-3"></path>
        <filter x="-92.9%" y="-50.0%" width="285.7%" height="223.8%" filterUnits="objectBoundingBox" id="filter-4">
            <feMorphology radius="1" operator="dilate" in="SourceAlpha" result="shadowSpreadOuter1"></feMorphology>
            <feOffset dx="0" dy="5" in="shadowSpreadOuter1" result="shadowOffsetOuter1"></feOffset>
            <feGaussianBlur stdDeviation="7.5" in="shadowOffsetOuter1" result="shadowBlurOuter1"></feGaussianBlur>
            <feComposite in="shadowBlurOuter1" in2="SourceAlpha" operator="out" result="shadowBlurOuter1"></feComposite>
            <feColorMatrix values="0 0 0 0 0   0 0 0 0 0   0 0 0 0 0  0 0 0 1 0" type="matrix" in="shadowBlurOuter1"></feColorMatrix>
        </filter>
        <circle id="path-5" cx="14" cy="14" r="14"></circle>
        <path d="M3.8,37.6 L1,32 C0.7,31.3 0,29.6 0,27.9 C0,23 4,22 4,22 L4,2.9 C4,1 5.6,0 7,0 C8.4,0 10,1 10,3 L10,16 L10,14 C10,12.6 11.1,11 13,11 C14.9,11 16,12.6 16,14 C16,14 16,15.5 16,15 C16,13.6 16.7,12 19,12 C21,12 22,14.2 22,17 C22,15.6 22.5,14 25,14 C27.5,14 28,16.6 28,18 L28,34 C28,38.4 24.4,42 20,42 L10.9,42 C7.9,42 5.1,40.3 3.8,37.6 Z" id="path-7"></path>
        <filter x="-92.9%" y="-50.0%" width="285.7%" height="223.8%" filterUnits="objectBoundingBox" id="filter-8">
            <feMorphology radius="1" operator="dilate" in="SourceAlpha" result="shadowSpreadOuter1"></feMorphology>
            <feOffset dx="0" dy="5" in="shadowSpreadOuter1" result="shadowOffsetOuter1"></feOffset>
            <feGaussianBlur stdDeviation="7.5" in="shadowOffsetOuter1" result="shadowBlurOuter1"></feGaussianBlur>
            <feComposite in="shadowBlurOuter1" in2="SourceAlpha" operator="out" result="shadowBlurOuter1"></feComposite>
            <feColorMatrix values="0 0 0 0 0   0 0 0 0 0   0 0 0 0 0  0 0 0 1 0" type="matrix" in="shadowBlurOuter1"></feColorMatrix>
        </filter>
    </defs>
    <g id="Inputs-and-dropdowns" stroke="none" stroke-width="1" fill="none" fill-rule="evenodd">
        <rect fill="#000000" x="0" y="0" width="1600" height="1064"></rect>
        <g id="Input---address" transform="translate(300.000000, 193.000000)">
            <text id="Label-Some-info-Link" font-family="Roboto-Regular, Roboto" font-size="14" font-weight="normal">
                <tspan x="0" y="15" fill="#FFFFFF">Label </tspan>
                <tspan x="37.2832031" y="15" fill="#808080">  Some info</tspan>
                <tspan x="107.625" y="15" fill="#FFFFFF"> </tspan>
                <tspan x="111.09082" y="15" fill="#CCCCCC">Link</tspan>
            </text>
            <g id="Button-/-Gray-/-Small" transform="translate(356.000000, 0.000000)">
                <rect id="Rectangle-4" fill="#808080" fill-rule="evenodd" x="0" y="0" width="44" height="20" rx="3"></rect>
                <text id="Copy" font-family="Roboto-Regular, Roboto" font-size="12" font-weight="normal" fill="#FFFFFF">
                    <tspan x="8.5" y="14">Copy</tspan>
                </text>
            </g>
            <text id="Placeholder…" opacity="0.25" font-family="Roboto-Regular, Roboto" font-size="22" font-weight="normal" fill="#FFFFFF">
                <tspan x="15" y="63">Placeholder…</tspan>
            </text>
            <rect id="Rectangle-4" stroke="#FFFFFF" opacity="0.25" x="0.5" y="31.5" width="399" height="47" rx="3"></rect>
            <g id="Check-button" transform="translate(362.000000, 42.000000)">
                <rect id="Rectangle-4" fill="#808080" x="0" y="0" width="26" height="26" rx="3"></rect>
                <polyline id="Shape" stroke="#000000" stroke-width="1.64705882" stroke-linecap="round" stroke-linejoin="round" points="6 14.2947615 11.7321765 19 20 7"></polyline>
            </g>
        </g>
        <g id="Fieldset/Text" transform="translate(300.000000, 303.000000)">
            <g>
                <text id="Label" font-family="Roboto-Regular, Roboto" font-size="14" font-weight="normal" fill="#FFFFFF">
                    <tspan x="0" y="13">Label</tspan>
                </text>
                <g id="Input/Text" transform="translate(0.000000, 29.000000)">
                    <g>
                        <text id="email@address.com" font-family="Roboto-Regular, Roboto" font-size="22" font-weight="normal" fill="#FFFFFF">
                            <tspan x="15" y="32">email@address.com</tspan>
                        </text>
                        <rect id="Rectangle-4" stroke="#FFFFFF" opacity="0.25" x="0.5" y="0.5" width="399" height="47" rx="3"></rect>
                    </g>
                </g>
            </g>
        </g>
        <g id="Input/Text" transform="translate(300.000000, 722.000000)" opacity="0.25">
            <text id="Placeholder…" font-family="Roboto-Regular, Roboto" font-size="22" font-weight="normal" fill="#FFFFFF">
                <tspan x="15" y="32">Placeholder…</tspan>
            </text>
            <rect id="Rectangle-4" stroke="#FFFFFF" x="0.5" y="0.5" width="399" height="47" rx="3"></rect>
        </g>
        <g id="Input---address" transform="translate(300.000000, 800.000000)">
            <text id="Placeholder…" opacity="0.25" font-family="Roboto-Regular, Roboto" font-size="22" font-weight="normal" fill="#FFFFFF">
                <tspan x="15" y="32">Placeholder…</tspan>
            </text>
            <rect id="Rectangle-4" stroke="#FFFFFF" opacity="0.5" x="0.5" y="0.5" width="399" height="47" rx="3"></rect>
            <g id="Hand" transform="translate(291.000000, 21.000000)" stroke-linecap="round" stroke-linejoin="round">
                <g id="Shape">
                    <use fill="black" fill-opacity="1" filter="url(#filter-2)" xlink:href="#path-1"></use>
                    <use stroke="#000000" stroke-width="2" fill="#FFFFFF" fill-rule="evenodd" xlink:href="#path-1"></use>
                </g>
                <path d="M12,33 L12,24" id="Shape" stroke="#000000" stroke-width="2" opacity="0.100000001"></path>
                <path d="M17,33 L17,24" id="Shape" stroke="#000000" stroke-width="2" opacity="0.100000001"></path>
                <path d="M22,33 L22,24" id="Shape" stroke="#000000" stroke-width="2" opacity="0.100000001"></path>
            </g>
        </g>
        <g id="Input---address" transform="translate(300.000000, 893.000000)">
            <text id="em|" font-family="Roboto-Regular, Roboto" font-size="22" font-weight="normal" fill="#FFFFFF">
                <tspan x="15" y="32">em|</tspan>
            </text>
            <rect id="Rectangle-4" stroke="#FFFFFF" x="0.5" y="0.5" width="399" height="47" rx="3"></rect>
        </g>
        <g id="Fieldset/Address" transform="translate(300.000000, 411.000000)">
            <g>
                <g id="Input/Address" transform="translate(0.000000, 29.000000)">
                    <rect id="Rectangle-4" stroke="#FFFFFF" stroke-width="1" opacity="0.25" x="0.5" y="0.5" width="399" height="73" rx="3"></rect>
                    <g id="Check-button" stroke-width="1" fill-rule="evenodd" transform="translate(362.000000, 11.000000)">
                        <rect id="Rectangle-4" fill="#808080" x="0" y="0" width="26" height="26" rx="3"></rect>
                        <polyline id="Shape" stroke="#000000" stroke-width="1.64705882" stroke-linecap="round" stroke-linejoin="round" points="6 14.2947615 11.7321765 19 20 7"></polyline>
                    </g>
                    <text id="0x468632876432579098" font-family="RobotoMono-Regular, Roboto Mono" font-size="22" font-weight="normal" fill="#FFFFFF">
                        <tspan x="15" y="32">0x46863287643257909832757</tspan>
                        <tspan x="15" y="61">625736257651766</tspan>
                    </text>
                </g>
                <text id="Label" font-family="Roboto-Regular, Roboto" font-size="14" font-weight="normal" fill="#FFFFFF">
                    <tspan x="0" y="13">Label</tspan>
                </text>
            </g>
        </g>
        <g id="Fieldset/Dropdown" transform="translate(1000.000000, 195.000000)">
            <g id="Input/Dropdown" transform="translate(0.000000, 29.000000)">
                <rect id="Rectangle-4" stroke="#FFFFFF" stroke-width="1" opacity="0.25" x="0.5" y="0.5" width="399" height="47" rx="3"></rect>
                <polyline id="Shape" stroke="#FFFFFF" stroke-width="1.6" stroke-linecap="round" stroke-linejoin="round" transform="translate(374.000000, 24.000000) rotate(90.000000) translate(-374.000000, -24.000000) " points="370 16 378 24 370 32"></polyline>
                <text id="Active-option" font-family="Roboto-Regular, Roboto" font-size="22" font-weight="normal" fill="#FFFFFF">
                    <tspan x="15" y="31">Choose an option</tspan>
                </text>
            </g>
            <text id="Label" font-family="Roboto-Regular, Roboto" font-size="14" font-weight="normal" fill="#FFFFFF">
                <tspan x="0" y="13">Label</tspan>
            </text>
        </g>
        <g id="Input---priority" transform="translate(1000.000000, 303.000000)">
            <g id="Group-2" transform="translate(0.000000, 29.000000)">
                <text id="Option-2" font-family="Roboto-Regular, Roboto" font-size="22" font-weight="normal" fill="#FFFFFF">
                    <tspan x="15" y="31">Option 2</tspan>
                </text>
                <rect id="Rectangle-4" stroke="#FFFFFF" opacity="0.25" x="0.5" y="0.5" width="399" height="47" rx="3"></rect>
                <polyline id="Shape" stroke="#FFFFFF" stroke-width="1.6" stroke-linecap="round" stroke-linejoin="round" transform="translate(374.000000, 24.000000) scale(1, -1) rotate(90.000000) translate(-374.000000, -24.000000) " points="370 16 378 24 370 32"></polyline>
            </g>
            <g id="Body" transform="translate(0.000000, 76.000000)">
                <rect id="Rectangle-4" fill="#202020" x="0" y="0" width="400" height="162" rx="3"></rect>
                <rect id="Rectangle-2" fill="#FFFFFF" opacity="0.100000001" x="1" y="115" width="398" height="34"></rect>
                <text id="Option-1-Option-2-Op" font-family="Roboto-Regular, Roboto" font-size="16" font-weight="normal" line-spacing="34">
                    <tspan x="20" y="29" fill="#FFFFFF">Option 1</tspan>
                    <tspan x="20" y="63" fill="#FC6500">Option 2</tspan>
                    <tspan x="20" y="97" fill="#FFFFFF">Option 3</tspan>
                    <tspan x="20" y="131" fill="#FFFFFF">Option 4</tspan>
                </text>
                <g id="Hand" transform="translate(271.000000, 132.000000)" stroke-linecap="round" stroke-linejoin="round">
                    <g id="Shape">
                        <use fill="black" fill-opacity="1" filter="url(#filter-4)" xlink:href="#path-3"></use>
                        <use stroke="#000000" stroke-width="2" fill="#FFFFFF" fill-rule="evenodd" xlink:href="#path-3"></use>
                    </g>
                    <path d="M12,33 L12,24" id="Shape" stroke="#000000" stroke-width="2" opacity="0.100000001"></path>
                    <path d="M17,33 L17,24" id="Shape" stroke="#000000" stroke-width="2" opacity="0.100000001"></path>
                    <path d="M22,33 L22,24" id="Shape" stroke="#000000" stroke-width="2" opacity="0.100000001"></path>
                </g>
            </g>
            <text id="Label" font-family="Roboto-Regular, Roboto" font-size="14" font-weight="normal" fill="#FFFFFF">
                <tspan x="0" y="13">Label</tspan>
            </text>
        </g>
        <g id="Fieldset/Amount" transform="translate(300.000000, 546.000000)">
            <g>
                <g id="Input/Amount" transform="translate(0.000000, 28.000000)">
                    <rect id="Rectangle-4" stroke="#FFFFFF" stroke-width="1" opacity="0.25" x="0.5" y="0.5" width="399" height="47" rx="3"></rect>
                    <g id="logo" stroke-width="1" fill-rule="evenodd" transform="translate(12.000000, 10.000000)">
                        <mask id="mask-6" fill="white">
                            <use xlink:href="#path-5"></use>
                        </mask>
                        <use id="Oval-3" fill="#FFFFFF" xlink:href="#path-5"></use>
                        <g id="xmr" mask="url(#mask-6)" fill-rule="nonzero">
                            <g transform="translate(-8.960000, -11.200000)" id="Shape">
                                <path d="M33.8154687,0.24609375 C26.0081319,0.24609375 0.04703125,14.5929858 0.04703125,22.4010938 C0.0445681495,23.9187508 9.21520424,28.3656808 9.69522244,29.805412 L13.9226649,29.805412 L13.9226649,17.908016 L23.1127572,27.099016 L32.3028495,17.908016 L32.3028495,29.805412 L36.5302919,29.805412 C37.0087275,28.3652923 43.1284949,28.6165436 43.1276562,27.099016 C43.1276562,19.290908 30.9200941,11.2 23.1127572,11.2" fill="#FA6800"></path>
                                <path d="M16.9582984,25.201428 L16.9582984,32.687144 L11.0222594,32.687144 C8.995,39.865 17.9598466,48.335 23.0591492,48.335 C28.1584518,48.335 41.584375,39.816875 35.096039,32.687144 L29.16,32.687144 L29.16,25.201428 L25.1650767,29.21436 L23.0605579,31.326876 L20.956039,29.21436 L16.9582984,25.201428 Z" fill="#4C4C4C"></path>
                            </g>
                        </g>
                    </g>
                    <g id="Button" stroke-width="1" fill-rule="evenodd" transform="translate(350.000000, 11.000000)">
                        <rect id="Rectangle-4" fill="#808080" x="0" y="0" width="39" height="26" rx="3"></rect>
                        <text id="All" font-family="Roboto-Regular, Roboto" font-size="16" font-weight="normal" fill="#000000">
                            <tspan x="9.796875" y="19">All</tspan>
                        </text>
                    </g>
                    <text id="Amount" font-family="RobotoMono-Regular, Roboto Mono" font-size="22" font-weight="normal" fill="#FFFFFF">
                        <tspan x="50" y="32">0.2767</tspan>
                    </text>
                </g>
                <text id="Label" font-family="Roboto-Regular, Roboto" font-size="14" font-weight="normal" fill="#FFFFFF">
                    <tspan x="0" y="13">Label</tspan>
                </text>
            </g>
        </g>
        <text id="Inputs" font-family="Roboto-Regular, Roboto" font-size="32" font-weight="normal" fill="#FFFFFF">
            <tspan x="100" y="130">Inputs</tspan>
        </text>
        <text id="Dropdowns" font-family="Roboto-Regular, Roboto" font-size="32" font-weight="normal" fill="#FFFFFF">
            <tspan x="800" y="130">Dropdowns</tspan>
        </text>
        <text id="Default" font-family="Roboto-Regular, Roboto" font-size="12" font-weight="normal" line-spacing="16" fill="#FFFFFF">
            <tspan x="100" y="206">Default</tspan>
        </text>
        <text id="Default-White-border" font-family="Roboto-Regular, Roboto" font-size="12" font-weight="normal" line-spacing="16">
            <tspan x="100" y="741" fill="#FFFFFF">Default</tspan>
            <tspan x="100" y="757" fill="#808080">White border at 25% opacity</tspan>
        </text>
        <text id="Hover-White-border-a" font-family="Roboto-Regular, Roboto" font-size="12" font-weight="normal" line-spacing="16">
            <tspan x="100" y="819" fill="#FFFFFF">Hover</tspan>
            <tspan x="100" y="835" fill="#808080">White border at 50% opacity</tspan>
        </text>
        <text id="Active-White-border" font-family="Roboto-Regular, Roboto" font-size="12" font-weight="normal" line-spacing="16">
            <tspan x="100" y="912" fill="#FFFFFF">Active</tspan>
            <tspan x="100" y="928" fill="#808080">White border at 100% opacity</tspan>
        </text>
        <text id="With-content" font-family="Roboto-Regular, Roboto" font-size="12" font-weight="normal" line-spacing="16" fill="#FFFFFF">
            <tspan x="100" y="314">With content</tspan>
        </text>
        <text id="Multiline" font-family="Roboto-Regular, Roboto" font-size="12" font-weight="normal" line-spacing="16" fill="#FFFFFF">
            <tspan x="100" y="422">Multiline</tspan>
        </text>
        <text id="Currency-input" font-family="Roboto-Regular, Roboto" font-size="12" font-weight="normal" line-spacing="16" fill="#FFFFFF">
            <tspan x="100" y="557">Currency input</tspan>
        </text>
        <text id="Dropdown" font-family="Roboto-Regular, Roboto" font-size="12" font-weight="normal" line-spacing="16" fill="#FFFFFF">
            <tspan x="800" y="205">Dropdown</tspan>
        </text>
        <text id="Dropdown" font-family="Roboto-Regular, Roboto" font-size="12" font-weight="normal" line-spacing="16" fill="#FFFFFF">
            <tspan x="800" y="665">Dropdown</tspan>
        </text>
        <text id="Dropdown-expanded" font-family="Roboto-Regular, Roboto" font-size="12" font-weight="normal" line-spacing="16" fill="#FFFFFF">
            <tspan x="800" y="313">Dropdown expanded</tspan>
        </text>
        <text id="Dropdown-expanded" font-family="Roboto-Regular, Roboto" font-size="12" font-weight="normal" line-spacing="16" fill="#FFFFFF">
            <tspan x="800" y="715">Dropdown expanded</tspan>
        </text>
        <g id="Dropdown" transform="translate(1000.000000, 653.000000)">
            <g>
                <text id="Choose-an-option" font-family="Roboto-Regular, Roboto" font-size="16" font-weight="normal" letter-spacing="-0.25" fill="#FFFFFF">
                    <tspan x="0" y="15">Choose an option</tspan>
                </text>
                <polyline id="Shape" stroke="#FFFFFF" stroke-width="1.2" stroke-linecap="round" stroke-linejoin="round" transform="translate(137.000000, 10.000000) rotate(90.000000) translate(-137.000000, -10.000000) " points="134 4 140 10 134 16"></polyline>
            </g>
        </g>
        <g id="Dropdown" transform="translate(1000.000000, 702.000000)">
            <text id="Option-2" font-family="Roboto-Regular, Roboto" font-size="16" font-weight="normal" letter-spacing="-0.25" fill="#FFFFFF">
                <tspan x="0" y="15">Option 2</tspan>
            </text>
            <polyline id="Shape" stroke="#FFFFFF" stroke-width="1.2" stroke-linecap="round" stroke-linejoin="round" transform="translate(74.000000, 10.000000) scale(1, -1) rotate(90.000000) translate(-74.000000, -10.000000) " points="71 4 77 10 71 16"></polyline>
            <g id="Body" transform="translate(0.000000, 24.000000)">
                <rect id="Rectangle-4" fill="#202020" x="0" y="0" width="200" height="162" rx="3"></rect>
                <rect id="Rectangle-2" fill="#FFFFFF" opacity="0.100000001" x="1" y="115" width="198" height="34"></rect>
                <text id="Option-1-Option-2-Op" font-family="Roboto-Regular, Roboto" font-size="16" font-weight="normal" line-spacing="34">
                    <tspan x="20" y="29" fill="#FFFFFF">Option 1</tspan>
                    <tspan x="20" y="63" fill="#FC6500">Option 2</tspan>
                    <tspan x="20" y="97" fill="#FFFFFF">Option 3</tspan>
                    <tspan x="20" y="131" fill="#FFFFFF">Option 4</tspan>
                </text>
                <g id="Hand" transform="translate(124.000000, 132.000000)" stroke-linecap="round" stroke-linejoin="round">
                    <g id="Shape">
                        <use fill="black" fill-opacity="1" filter="url(#filter-8)" xlink:href="#path-7"></use>
                        <use stroke="#000000" stroke-width="2" fill="#FFFFFF" fill-rule="evenodd" xlink:href="#path-7"></use>
                    </g>
                    <path d="M12,33 L12,24" id="Shape" stroke="#000000" stroke-width="2" opacity="0.100000001"></path>
                    <path d="M17,33 L17,24" id="Shape" stroke="#000000" stroke-width="2" opacity="0.100000001"></path>
                    <path d="M22,33 L22,24" id="Shape" stroke="#000000" stroke-width="2" opacity="0.100000001"></path>
                </g>
            </g>
        </g>
    </g>
</svg>