<?xml version="1.0" encoding="UTF-8"?>
<svg width="1024px" height="768px" viewBox="0 0 1024 768" version="1.1" xmlns="http://www.w3.org/2000/svg" xmlns:xlink="http://www.w3.org/1999/xlink">
    <!-- Generator: Sketch 52.6 (67491) - http://www.bohemiancoding.com/sketch -->
    <title>onboarding - sync info</title>
    <desc>Created with Sketch.</desc>
    <defs>
        <linearGradient x1="100%" y1="100%" x2="0%" y2="1.72254642e-14%" id="linearGradient-1">
            <stop stop-color="#FFFFFF" offset="0%"></stop>
            <stop stop-color="#FFFFFF" stop-opacity="0" offset="100%"></stop>
        </linearGradient>
        <rect id="path-2" x="10" y="4" width="150" height="32" rx="2.7"></rect>
        <filter x="-16.7%" y="-62.5%" width="133.3%" height="256.2%" filterUnits="objectBoundingBox" id="filter-3">
            <feOffset dx="0" dy="5" in="SourceAlpha" result="shadowOffsetOuter1"></feOffset>
            <feGaussianBlur stdDeviation="7.5" in="shadowOffsetOuter1" result="shadowBlurOuter1"></feGaussianBlur>
            <feComposite in="shadowBlurOuter1" in2="SourceAlpha" operator="out" result="shadowBlurOuter1"></feComposite>
            <feColorMatrix values="0 0 0 0 0   0 0 0 0 0   0 0 0 0 0  0 0 0 1 0" type="matrix" in="shadowBlurOuter1"></feColorMatrix>
        </filter>
        <linearGradient x1="100%" y1="100%" x2="0%" y2="0%" id="linearGradient-4">
            <stop stop-color="#FFFFFF" offset="0%"></stop>
            <stop stop-color="#000000" offset="100%"></stop>
        </linearGradient>
        <rect id="path-5" x="0" y="0" width="170" height="36" rx="3"></rect>
        <circle id="path-6" cx="14" cy="14" r="14"></circle>
    </defs>
    <g id="onboarding---sync-info" stroke="none" stroke-width="1" fill="none" fill-rule="evenodd">
        <rect fill="#000000" x="0" y="0" width="1024" height="768"></rect>
        <rect id="Rectangle-2" fill="url(#linearGradient-1)" opacity="0.100000001" x="1" y="50" width="1024" height="718"></rect>
        <text id="Your-wallet-will-now" font-family="SFProDisplay-Regular, SF Pro Display" font-size="32" font-weight="normal" letter-spacing="-0.25" fill="#FFFFFF">
            <tspan x="212" y="151">Your wallet will now sync</tspan>
        </text>
        <text id="To-ensure-the-highes" font-family="SFProDisplay-Regular, SF Pro Display" font-size="16" font-weight="normal" line-spacing="24" letter-spacing="-0.125" fill="#DEDEDE">
            <tspan x="212" y="184">To ensure the highest privacy, the wallet will now download the full Monero blockchain data. </tspan>
            <tspan x="212" y="208">This may take several hours. Once complete, you will be able to send and receive.</tspan>
        </text>
        <g id="Options" transform="translate(642.000000, 259.000000)">
            <g id="Button---send">
                <g id="Rectangle-4" opacity="0.149999991">
                    <use fill="black" fill-opacity="1" filter="url(#filter-3)" xlink:href="#path-2"></use>
                    <use fill-opacity="0" fill="#FA6800" fill-rule="evenodd" xlink:href="#path-2"></use>
                </g>
                <g id="Rectangle-4">
                    <use fill="#FA6800" xlink:href="#path-5"></use>
                    <use fill-opacity="0.01" fill="url(#linearGradient-4)" style="mix-blend-mode: hard-light;" xlink:href="#path-5"></use>
                </g>
                <text id="Next" font-family="SFProDisplay-Bold, SF Pro Display" font-size="16" font-weight="bold" fill="#FFFFFF">
                    <tspan x="68.3359375" y="24">Next</tspan>
                </text>
            </g>
        </g>
        <g id="Nav-bar">
            <rect id="Rectangle-2" fill="#000000" x="0" y="0" width="1024" height="50"></rect>
            <rect id="Rectangle-2" fill="url(#linearGradient-1)" opacity="0.100000001" x="0" y="0" width="1024" height="50"></rect>
            <rect id="Rectangle" fill="#FFFFFF" opacity="0.149999991" x="0" y="49" width="1024" height="1"></rect>
            <g id="logo" stroke-width="1" transform="translate(449.000000, 11.000000)">
                <text id="MONERO" font-family="CenturyGothic-Bold, Century Gothic" font-size="20.48" font-weight="bold" letter-spacing="-0.96" fill="#FFFFFF">
                    <tspan x="40" y="21">MONER</tspan>
                    <tspan x="108.51" y="21" letter-spacing="-0.64">O</tspan>
                </text>
                <g>
                    <mask id="mask-7" fill="white">
                        <use xlink:href="#path-6"></use>
                    </mask>
                    <use id="Oval-3" fill="#FFFFFF" xlink:href="#path-6"></use>
                    <g id="xmr" mask="url(#mask-7)" fill-rule="nonzero">
                        <g transform="translate(-8.960000, -11.200000)" id="Shape">
                            <path d="M33.8154687,0.24609375 C26.0081319,0.24609375 0.04703125,14.5929858 0.04703125,22.4010938 C0.0445681495,23.9187508 9.21520424,28.3656808 9.69522244,29.805412 L13.9226649,29.805412 L13.9226649,17.908016 L23.1127572,27.099016 L32.3028495,17.908016 L32.3028495,29.805412 L36.5302919,29.805412 C37.0087275,28.3652923 43.1284949,28.6165436 43.1276562,27.099016 C43.1276562,19.290908 30.9200941,11.2 23.1127572,11.2" fill="#FA6800"></path>
                            <path d="M16.9582984,25.201428 L16.9582984,32.687144 L11.0222594,32.687144 C8.995,39.865 17.9598466,48.335 23.0591492,48.335 C28.1584518,48.335 41.584375,39.816875 35.096039,32.687144 L29.16,32.687144 L29.16,25.201428 L25.1650767,29.21436 L23.0605579,31.326876 L20.956039,29.21436 L16.9582984,25.201428 Z" fill="#4C4C4C"></path>
                        </g>
                    </g>
                </g>
            </g>
            <g id="fullscreen" opacity="0.75" stroke-width="1" transform="translate(943.000000, 16.000000)" stroke="#FFFFFF">
                <rect id="Rectangle-7" stroke-width="1.63636364" x="0.818181818" y="0.818181818" width="16.3636364" height="16.3636364" rx="1.63636364"></rect>
                <rect id="Rectangle-7" stroke-width="1.63636364" fill="#FFFFFF" x="0.818181818" y="0.818181818" width="16.3636364" height="3.27272727" rx="1.63636364"></rect>
            </g>
            <rect id="minimize" stroke="#FFFFFF" stroke-width="2" fill="#FFFFFF" opacity="0.75" x="899" y="31" width="16" height="2" rx="1"></rect>
            <g id="close" opacity="0.75" stroke-width="1" transform="translate(988.000000, 18.000000)" stroke="#FFFFFF" stroke-linecap="round">
                <path d="M0,0 L14,14" id="Shape" stroke-width="1.85022026"></path>
                <path d="M14,0 L0,14" id="Shape" stroke-width="1.85022026"></path>
            </g>
            <g id="sidebar" opacity="0.75" stroke-width="1" transform="translate(16.000000, 16.000000)" stroke="#FFFFFF">
                <rect id="Rectangle-7" stroke-width="1.63636364" x="0.818181818" y="0.818181818" width="16.3636364" height="16.3636364" rx="1.63636364"></rect>
                <path d="M6.18181818,17.1818182 L6.18181818,0.818181818 L1.63999999,0.818181818 C1.18612234,0.818181818 0.818181818,1.18612234 0.818181818,1.63999999 L0.818181818,16.36 C0.818181818,16.8138777 1.18612234,17.1818182 1.63999999,17.1818182 L6.18181818,17.1818182 Z" id="Rectangle-7" stroke-width="1.63636364" fill="#FFFFFF"></path>
            </g>
        </g>
    </g>
</svg>