<?xml version="1.0" encoding="UTF-8"?>
<svg width="1024px" height="768px" viewBox="0 0 1024 768" version="1.1" xmlns="http://www.w3.org/2000/svg" xmlns:xlink="http://www.w3.org/1999/xlink">
    <!-- Generator: Sketch 52.6 (67491) - http://www.bohemiancoding.com/sketch -->
    <title>onboarding - how to start</title>
    <desc>Created with Sketch.</desc>
    <defs>
        <linearGradient x1="100%" y1="100%" x2="0%" y2="1.72254642e-14%" id="linearGradient-1">
            <stop stop-color="#FFFFFF" offset="0%"></stop>
            <stop stop-color="#FFFFFF" stop-opacity="0" offset="100%"></stop>
        </linearGradient>
        <linearGradient x1="78.3364106%" y1="87.6429002%" x2="11.788737%" y2="-2.33424933%" id="linearGradient-2">
            <stop stop-color="#000000" stop-opacity="0" offset="0%"></stop>
            <stop stop-color="#000000" offset="100%"></stop>
        </linearGradient>
        <path d="M35.0543478,3.23809524 L13.0793478,3.24295238 C12.8519022,3.16119048 12.382337,2.4172381 12.1296196,2.01733333 C11.5043478,1.02647619 10.85625,0 9.7826087,0 L2.44565217,0 C1.09728261,0 0,1.08961905 0,2.42857143 L0,7.28571429 L0.815217391,7.28571429 L36.6847826,7.28571429 L37.5,7.28571429 L37.5,5.66666667 C37.5,4.32771429 36.4027174,3.23809524 35.0543478,3.23809524 Z" id="path-3"></path>
        <rect id="path-4" x="0" y="0" width="500" height="96"></rect>
        <filter x="-0.1%" y="-1.6%" width="100.2%" height="103.1%" filterUnits="objectBoundingBox" id="filter-5">
            <feOffset dx="0" dy="1" in="SourceAlpha" result="shadowOffsetOuter1"></feOffset>
            <feComposite in="shadowOffsetOuter1" in2="SourceAlpha" operator="out" result="shadowOffsetOuter1"></feComposite>
            <feColorMatrix values="0 0 0 0 0.250980392   0 0 0 0 0.250980392   0 0 0 0 0.250980392  0 0 0 1 0" type="matrix" in="shadowOffsetOuter1" result="shadowMatrixOuter1"></feColorMatrix>
            <feOffset dx="0" dy="-1" in="SourceAlpha" result="shadowOffsetOuter2"></feOffset>
            <feComposite in="shadowOffsetOuter2" in2="SourceAlpha" operator="out" result="shadowOffsetOuter2"></feComposite>
            <feColorMatrix values="0 0 0 0 0.250980392   0 0 0 0 0.250980392   0 0 0 0 0.250980392  0 0 0 1 0" type="matrix" in="shadowOffsetOuter2" result="shadowMatrixOuter2"></feColorMatrix>
            <feMerge>
                <feMergeNode in="shadowMatrixOuter1"></feMergeNode>
                <feMergeNode in="shadowMatrixOuter2"></feMergeNode>
            </feMerge>
        </filter>
        <rect id="path-6" x="0.5" y="0.5" width="50" height="20" rx="2.5"></rect>
        <linearGradient x1="17.3496094%" y1="100%" x2="54.8417969%" y2="12.5878906%" id="linearGradient-8">
            <stop stop-color="#FFFFFF" stop-opacity="0.5" offset="0%"></stop>
            <stop stop-color="#000000" offset="100%"></stop>
        </linearGradient>
        <rect id="path-9" x="0" y="0" width="500" height="96"></rect>
        <filter x="-0.1%" y="-1.6%" width="100.2%" height="103.1%" filterUnits="objectBoundingBox" id="filter-10">
            <feOffset dx="0" dy="1" in="SourceAlpha" result="shadowOffsetOuter1"></feOffset>
            <feComposite in="shadowOffsetOuter1" in2="SourceAlpha" operator="out" result="shadowOffsetOuter1"></feComposite>
            <feColorMatrix values="0 0 0 0 0.250980392   0 0 0 0 0.250980392   0 0 0 0 0.250980392  0 0 0 1 0" type="matrix" in="shadowOffsetOuter1" result="shadowMatrixOuter1"></feColorMatrix>
            <feOffset dx="0" dy="-1" in="SourceAlpha" result="shadowOffsetOuter2"></feOffset>
            <feComposite in="shadowOffsetOuter2" in2="SourceAlpha" operator="out" result="shadowOffsetOuter2"></feComposite>
            <feColorMatrix values="0 0 0 0 0.250980392   0 0 0 0 0.250980392   0 0 0 0 0.250980392  0 0 0 1 0" type="matrix" in="shadowOffsetOuter2" result="shadowMatrixOuter2"></feColorMatrix>
            <feMerge>
                <feMergeNode in="shadowMatrixOuter1"></feMergeNode>
                <feMergeNode in="shadowMatrixOuter2"></feMergeNode>
            </feMerge>
        </filter>
        <path d="M8.61181641,0.207519531 L47.8320312,40.3574219 C43.8730469,45.0794271 41.3792318,47.4404297 40.3505859,47.4404297 C39.3219401,47.4404297 26.0338542,34.6682943 0.486328125,9.12402344 L8.61181641,0.207519531 Z" id="path-11"></path>
        <linearGradient x1="50%" y1="50%" x2="50%" y2="100%" id="linearGradient-13">
            <stop stop-color="#000000" offset="0%"></stop>
            <stop stop-color="#000000" stop-opacity="0" offset="100%"></stop>
        </linearGradient>
        <rect id="path-14" x="10" y="4" width="150" height="32" rx="2.7"></rect>
        <filter x="-16.7%" y="-62.5%" width="133.3%" height="256.2%" filterUnits="objectBoundingBox" id="filter-15">
            <feOffset dx="0" dy="5" in="SourceAlpha" result="shadowOffsetOuter1"></feOffset>
            <feGaussianBlur stdDeviation="7.5" in="shadowOffsetOuter1" result="shadowBlurOuter1"></feGaussianBlur>
            <feComposite in="shadowBlurOuter1" in2="SourceAlpha" operator="out" result="shadowBlurOuter1"></feComposite>
            <feColorMatrix values="0 0 0 0 0   0 0 0 0 0   0 0 0 0 0  0 0 0 1 0" type="matrix" in="shadowBlurOuter1"></feColorMatrix>
        </filter>
        <linearGradient x1="100%" y1="100%" x2="0%" y2="0%" id="linearGradient-16">
            <stop stop-color="#FFFFFF" offset="0%"></stop>
            <stop stop-color="#000000" offset="100%"></stop>
        </linearGradient>
        <rect id="path-17" x="0" y="0" width="170" height="36" rx="3"></rect>
        <rect id="path-18" x="10" y="4" width="150" height="32" rx="2.7"></rect>
        <filter x="-16.7%" y="-62.5%" width="133.3%" height="256.2%" filterUnits="objectBoundingBox" id="filter-19">
            <feOffset dx="0" dy="5" in="SourceAlpha" result="shadowOffsetOuter1"></feOffset>
            <feGaussianBlur stdDeviation="7.5" in="shadowOffsetOuter1" result="shadowBlurOuter1"></feGaussianBlur>
            <feComposite in="shadowBlurOuter1" in2="SourceAlpha" operator="out" result="shadowBlurOuter1"></feComposite>
            <feColorMatrix values="0 0 0 0 0   0 0 0 0 0   0 0 0 0 0  0 0 0 1 0" type="matrix" in="shadowBlurOuter1"></feColorMatrix>
        </filter>
        <circle id="path-20" cx="14" cy="14" r="14"></circle>
    </defs>
    <g id="onboarding---how-to-start" stroke="none" stroke-width="1" fill="none" fill-rule="evenodd">
        <rect fill="#000000" x="0" y="0" width="1024" height="768"></rect>
        <rect id="Rectangle-2" fill="url(#linearGradient-1)" opacity="0.100000001" x="1" y="50" width="1024" height="718"></rect>
        <g id="Option" transform="translate(262.000000, 213.000000)">
            <rect id="Rectangle-3" fill-opacity="0" fill="#000000" x="0" y="0" width="500" height="96"></rect>
            <g id="create-wallet" transform="translate(0.000000, 11.000000)">
                <g id="Group">
                    <rect id="Rectangle-4" fill-opacity="0" fill="#000000" opacity="0.200000003" x="0" y="0" width="75" height="75"></rect>
                    <g id="create-wallet" transform="translate(18.000000, 17.000000)">
                        <path d="M34,29.1492537 L35.5,29.1492537 C36.4108577,29.1492537 37.1492537,28.4108577 37.1492537,27.5 L37.1492537,4 C37.1492537,3.08914232 36.4108577,2.35074627 35.5,2.35074627 L12,2.35074627 C11.0891423,2.35074627 10.3507463,3.08914232 10.3507463,4 L10.3507463,5.5 L8.64925373,5.5 L8.64925373,4 C8.64925373,2.14943394 10.1494339,0.649253731 12,0.649253731 L35.5,0.649253731 C37.3505661,0.649253731 38.8507463,2.14943394 38.8507463,4 L38.8507463,27.5 C38.8507463,29.3505661 37.3505661,30.8507463 35.5,30.8507463 L34,30.8507463 L34,29.1492537 Z M30,29.1492537 L30,30.8507463 L12,30.8507463 C10.1494339,30.8507463 8.64925373,29.3505661 8.64925373,27.5 L8.64925373,9.5 L10.3507463,9.5 L10.3507463,27.5 C10.3507463,28.4108577 11.0891423,29.1492537 12,29.1492537 L30,29.1492537 Z" id="Combined-Shape" fill="#FA6800" fill-rule="nonzero"></path>
                        <rect id="Rectangle-8" fill="#FA6800" x="0" y="9.5" width="30" height="30" rx="2.5"></rect>
                        <path d="M15,9.5 L27.5,9.5 C28.8807119,9.5 30,10.6192881 30,12 L30,37 C30,38.3807119 28.8807119,39.5 27.5,39.5 L15,39.5 L15,9.5 Z" id="Rectangle-8" fill="url(#linearGradient-2)" style="mix-blend-mode: overlay;" opacity="0.200000003"></path>
                        <path d="M16,23.5 L21.5,23.5 C22.0522847,23.5 22.5,23.9477153 22.5,24.5 C22.5,25.0522847 22.0522847,25.5 21.5,25.5 L16,25.5 L16,31 C16,31.5522847 15.5522847,32 15,32 C14.4477153,32 14,31.5522847 14,31 L14,25.5 L8.5,25.5 C7.94771525,25.5 7.5,25.0522847 7.5,24.5 C7.5,23.9477153 7.94771525,23.5 8.5,23.5 L14,23.5 L14,18 C14,17.4477153 14.4477153,17 15,17 C15.5522847,17 16,17.4477153 16,18 L16,23.5 Z" id="Rectangle-4" fill="#FFFFFF"></path>
                    </g>
                </g>
            </g>
            <text id="Create-a-new-wallet" font-family="SFProDisplay-Regular, SF Pro Display" font-size="22" font-weight="normal" letter-spacing="-0.171875" fill="#FFFFFF">
                <tspan x="85" y="46">Create a new wallet</tspan>
            </text>
            <text id="Choose-this-option-i" font-family="SFProDisplay-Regular, SF Pro Display" font-size="14" font-weight="normal" letter-spacing="-0.109375" fill="#C0C0C0">
                <tspan x="85" y="68">Choose this option if this is your first time using Monero.</tspan>
            </text>
        </g>
        <g id="Option" transform="translate(262.000000, 405.000000)">
            <rect id="Rectangle-3" fill-opacity="0" fill="#000000" x="0" y="0" width="500" height="96"></rect>
            <g id="create-wallet" transform="translate(0.000000, 11.000000)">
                <g id="Group">
                    <rect id="Rectangle-4" fill-opacity="0" fill="#000000" opacity="0.200000003" x="0" y="0" width="75" height="75"></rect>
                    <g id="open-wallet-from-file" transform="translate(19.000000, 20.500000)">
                        <g id="Path">
                            <use fill="#FA6800" xlink:href="#path-3"></use>
                            <use fill-opacity="0.2" fill="#000000" xlink:href="#path-3"></use>
                        </g>
                        <g id="Group" transform="translate(0.000000, 8.904762)" fill-rule="nonzero">
                            <path d="M36.6847826,0 L0.815217391,0 C0.366032609,0 0,0.362666667 0,0.80952381 L0,22.6666667 C0,24.005619 1.09728261,25.0952381 2.44565217,25.0952381 L35.0543478,25.0952381 C36.4027174,25.0952381 37.5,24.005619 37.5,22.6666667 L37.5,0.80952381 C37.5,0.362666667 37.1339674,0 36.6847826,0 Z" id="Shape" fill="#FA6800"></path>
                            <path d="M14.2390625,13.8324286 C14.5578125,13.5159048 15.0730299,13.5159048 15.3917799,13.8324286 L18.0762908,16.4981905 L18.0762908,6.30952381 C18.0762908,5.86266667 18.4406929,5.5 18.8915082,5.5 C19.3423234,5.5 19.7067255,5.86266667 19.7067255,6.30952381 L19.7067255,16.4981905 L22.3912364,13.8324286 C22.7099864,13.5159048 23.2252038,13.5159048 23.5439538,13.8324286 C23.8627038,14.1489524 23.8627038,14.6605714 23.5439538,14.9770952 L19.4678668,19.0247143 C19.3088995,19.1825714 19.1002038,19.2619048 18.8915082,19.2619048 C18.6828125,19.2619048 18.4741168,19.1825714 18.3151495,19.0247143 L14.2390625,14.9770952 C13.9203125,14.6605714 13.9203125,14.1489524 14.2390625,13.8324286 Z" id="Path" fill="#FFFFFF" transform="translate(18.891508, 12.380952) scale(1, -1) translate(-18.891508, -12.380952) "></path>
                        </g>
                    </g>
                </g>
            </g>
            <text id="Open-a-wallet-from-f" font-family="SFProDisplay-Regular, SF Pro Display" font-size="22" font-weight="normal" letter-spacing="-0.171875" fill="#FFFFFF">
                <tspan x="85" y="46">Open a wallet from file</tspan>
            </text>
            <text id="Import-an-existing-." font-family="SFProDisplay-Regular, SF Pro Display" font-size="14" font-weight="normal" letter-spacing="-0.109375" fill="#C0C0C0">
                <tspan x="85" y="68">Import an existing .keys wallet file from your computer.</tspan>
            </text>
        </g>
        <g id="Option" transform="translate(262.000000, 309.000000)">
            <g id="Rectangle-3">
                <use fill="black" fill-opacity="1" filter="url(#filter-5)" xlink:href="#path-4"></use>
                <use fill-opacity="0" fill="#000000" fill-rule="evenodd" xlink:href="#path-4"></use>
            </g>
            <g id="restore-wallet" transform="translate(0.000000, 11.000000)">
                <g id="Group">
                    <rect id="Rectangle-4" fill-opacity="0" fill="#000000" opacity="0.200000003" x="0" y="0" width="75" height="75"></rect>
                    <g id="restore-wallet" transform="translate(12.000000, 27.000000)">
                        <mask id="mask-7" fill="white">
                            <use xlink:href="#path-6"></use>
                        </mask>
                        <use id="Rectangle-9" fill="#FA6800" xlink:href="#path-6"></use>
                        <path d="M0.5,10.5 L50.5,10.5 L50.5,18 C50.5,19.3807119 49.3807119,20.5 48,20.5 L3,20.5 C1.61928813,20.5 0.5,19.3807119 0.5,18 L0.5,10.5 Z" id="Rectangle-9" fill="url(#linearGradient-8)" style="mix-blend-mode: overlay;" opacity="0.200000003" mask="url(#mask-7)"></path>
                        <circle id="Oval-6" fill="#FFFFFF" opacity="0.5" mask="url(#mask-7)" cx="33.5" cy="10.5" r="4"></circle>
                        <circle id="Oval-6" fill="#FFFFFF" opacity="0.5" mask="url(#mask-7)" cx="22" cy="10.5" r="4"></circle>
                        <circle id="Oval-6" fill="#FFFFFF" opacity="0.5" mask="url(#mask-7)" cx="10.5" cy="10.5" r="4"></circle>
                        <rect id="Rectangle-9" fill="#FFFFFF" mask="url(#mask-7)" x="42.5" y="4.5" width="2" height="12" rx="1"></rect>
                    </g>
                </g>
            </g>
            <text id="Restore-wallet-from" font-family="SFProDisplay-Regular, SF Pro Display" font-size="22" font-weight="normal" letter-spacing="-0.171875" fill="#FFFFFF">
                <tspan x="85" y="37">Restore wallet from keys or mnemonic seed</tspan>
            </text>
            <text id="Enter-your-private-k" font-family="SFProDisplay-Regular, SF Pro Display" font-size="14" font-weight="normal" letter-spacing="-0.109375" fill="#C0C0C0">
                <tspan x="85" y="59">Enter your private keys or 25-word mnemonic seed to restore </tspan>
                <tspan x="85" y="75">your wallet.</tspan>
            </text>
        </g>
        <g id="Option" transform="translate(262.000000, 501.000000)">
            <g id="Rectangle-3">
                <use fill="black" fill-opacity="1" filter="url(#filter-10)" xlink:href="#path-9"></use>
                <use fill-opacity="0" fill="#000000" fill-rule="evenodd" xlink:href="#path-9"></use>
            </g>
            <g id="restore-wallet-from-hardware" transform="translate(0.000000, 11.000000)">
                <g id="Group">
                    <polygon id="Rectangle-4" fill-opacity="0" fill="#000000" opacity="0.200000003" points="0 0 75 0 75 75 0 75"></polygon>
                    <g id="restore-wallet-from-hardware" transform="translate(7.000000, 19.500000)">
                        <path d="M9.15700083,2 L51.2448219,2 C52.1599582,2 52.9018227,2.74186454 52.9018227,3.65700083 L52.9018227,19.4433452 C52.9018227,20.3584815 52.1599582,21.100346 51.2448219,21.100346 L9.15700083,21.100346 C8.24186454,21.100346 7.5,20.3584815 7.5,19.4433452 L7.5,3.65700083 C7.5,2.74186454 8.24186454,2 9.15700083,2 Z" id="Rectangle-6" fill="#FA6800"></path>
                        <path d="M9.15700083,12 L51.2448219,12 C52.1599582,12 52.9018227,12.7418645 52.9018227,13.6570008 L52.9018227,19.8929992 C52.9018227,20.8081355 52.1599582,21.55 51.2448219,21.55 L9.15700083,21.55 C8.24186454,21.55 7.5,20.8081355 7.5,19.8929992 L7.5,13.6570008 C7.5,12.7418645 8.24186454,12 9.15700083,12 Z" id="Rectangle-6" fill="url(#linearGradient-8)" style="mix-blend-mode: overlay;" opacity="0.200000003"></path>
                        <path d="M31.7717481,8.06228374 L44.0335543,8.06228374 C44.9486906,8.06228374 45.6905551,8.80414828 45.6905551,9.71928457 L45.6905551,13.8793314 C45.6905551,14.7944676 44.9486906,15.5363322 44.0335543,15.5363322 L31.7717481,15.5363322 C30.8566118,15.5363322 30.1147473,14.7944676 30.1147473,13.8793314 L30.1147473,9.71928457 C30.1147473,8.80414828 30.8566118,8.06228374 31.7717481,8.06228374 Z" id="Rectangle-6" fill="#FFFFFF" opacity="0.5"></path>
                        <path d="M10.7775476,32.7941836 C6.82007893,32.3792107 3.73529412,29.0247465 3.73529412,24.9480969 C3.73529412,20.8714473 6.82007893,17.5169831 10.7775476,17.1020101 L10.7775476,17.0588235 L44.1676056,17.0588235 C45.0827419,17.0588235 45.8246065,17.8006881 45.8246065,18.7158244 L45.8246065,31.1803694 C45.8246065,32.0955057 45.0827419,32.8373702 44.1676056,32.8373702 L10.7775476,32.8373702 L10.7775476,32.7941836 Z" id="Rectangle-7" fill="#FFFFFF" transform="translate(30.661558, 24.948097) rotate(45.000000) translate(-30.661558, -24.948097) "></path>
                        <g id="Group-7" transform="translate(0.000000, 2.500000)">
                            <mask id="mask-12" fill="white">
                                <use xlink:href="#path-11"></use>
                            </mask>
                            <g id="Path-2"></g>
                            <path d="M11.0534182,13.9359998 C8.54849541,10.8442166 8.73918754,6.29097996 11.6218141,3.4083534 C14.5044407,0.525726841 19.0576773,0.335034717 22.1494605,2.83995748 L22.179998,2.80941993 L45.7903344,26.4197564 C46.4374335,27.0668554 46.4374335,28.1160103 45.7903344,28.7631094 L36.9765701,37.5768737 C36.329471,38.2239728 35.2803161,38.2239728 34.6332171,37.5768737 L11.0228806,13.9665373 L11.0534182,13.9359998 Z" id="Path" fill="url(#linearGradient-13)" opacity="0.03" mask="url(#mask-12)"></path>
                        </g>
                        <ellipse id="Oval-3" fill="#FA6800" cx="17.2729909" cy="11.799308" rx="4.55675228" ry="4.56747405"></ellipse>
                    </g>
                </g>
            </g>
            <text id="Create-a-new-wallet" font-family="SFProDisplay-Regular, SF Pro Display" font-size="22" font-weight="normal" letter-spacing="-0.171875" fill="#FFFFFF">
                <tspan x="85" y="46">Create a new wallet from hardware</tspan>
            </text>
            <text id="Connect-your-hardwar" font-family="SFProDisplay-Regular, SF Pro Display" font-size="14" font-weight="normal" letter-spacing="-0.109375" fill="#C0C0C0">
                <tspan x="85" y="68">Connect your hardware wallet to create a new Monero wallet.</tspan>
            </text>
        </g>
        <g id="Options" transform="translate(262.000000, 647.000000)">
            <g id="Button---send" transform="translate(330.000000, 0.000000)">
                <g id="Rectangle-4" opacity="0.149999991">
                    <use fill="black" fill-opacity="1" filter="url(#filter-15)" xlink:href="#path-14"></use>
                    <use fill-opacity="0" fill="#FA6800" fill-rule="evenodd" xlink:href="#path-14"></use>
                </g>
                <g id="Rectangle-4">
                    <use fill="#FA6800" xlink:href="#path-17"></use>
                    <use fill-opacity="0.01" fill="url(#linearGradient-16)" style="mix-blend-mode: hard-light;" xlink:href="#path-17"></use>
                </g>
                <text id="Next" font-family="SFProDisplay-Bold, SF Pro Display" font-size="16" font-weight="bold" fill="#FFFFFF">
                    <tspan x="68.3359375" y="24">Next</tspan>
                </text>
            </g>
            <g id="Button---send">
                <g id="Rectangle-4" opacity="0.149999991">
                    <use fill="black" fill-opacity="1" filter="url(#filter-19)" xlink:href="#path-18"></use>
                    <use fill-opacity="0" fill="#FA6800" fill-rule="evenodd" xlink:href="#path-18"></use>
                </g>
                <rect id="Rectangle-4" fill="#808080" x="0" y="0" width="170" height="36" rx="3"></rect>
                <g id="Group" transform="translate(216.000000, 14.000000)" fill="#FFFFFF">
                    <circle id="Oval" opacity="0.200000003" cx="4" cy="4" r="4"></circle>
                    <circle id="Oval" opacity="0.200000003" cx="24" cy="4" r="4"></circle>
                    <circle id="Oval" cx="44" cy="4" r="4"></circle>
                    <circle id="Oval" opacity="0.200000003" cx="64" cy="4" r="4"></circle>
                </g>
                <text id="Previous" font-family="SFProDisplay-Bold, SF Pro Display" font-size="16" font-weight="bold" fill="#FFFFFF">
                    <tspan x="54.453125" y="24">Previous</tspan>
                </text>
            </g>
        </g>
        <text id="How-do-you-want-to-s" font-family="SFProDisplay-Regular, SF Pro Display" font-size="32" font-weight="normal" letter-spacing="-0.25" fill="#FFFFFF">
            <tspan x="262" y="150">How do you want to set up </tspan>
            <tspan x="262" y="188">your wallet?</tspan>
        </text>
        <g id="Nav-bar">
            <rect id="Rectangle-2" fill="#000000" x="0" y="0" width="1024" height="50"></rect>
            <rect id="Rectangle-2" fill="url(#linearGradient-1)" opacity="0.100000001" x="0" y="0" width="1024" height="50"></rect>
            <rect id="Rectangle" fill="#FFFFFF" opacity="0.149999991" x="0" y="49" width="1024" height="1"></rect>
            <g id="logo" stroke-width="1" transform="translate(449.000000, 11.000000)">
                <text id="MONERO" font-family="CenturyGothic-Bold, Century Gothic" font-size="20.48" font-weight="bold" letter-spacing="-0.96" fill="#FFFFFF">
                    <tspan x="40" y="21">MONER</tspan>
                    <tspan x="108.51" y="21" letter-spacing="-0.64">O</tspan>
                </text>
                <g>
                    <mask id="mask-21" fill="white">
                        <use xlink:href="#path-20"></use>
                    </mask>
                    <use id="Oval-3" fill="#FFFFFF" xlink:href="#path-20"></use>
                    <g id="xmr" mask="url(#mask-21)" fill-rule="nonzero">
                        <g transform="translate(-8.960000, -11.200000)" id="Shape">
                            <path d="M33.8154687,0.24609375 C26.0081319,0.24609375 0.04703125,14.5929858 0.04703125,22.4010938 C0.0445681495,23.9187508 9.21520424,28.3656808 9.69522244,29.805412 L13.9226649,29.805412 L13.9226649,17.908016 L23.1127572,27.099016 L32.3028495,17.908016 L32.3028495,29.805412 L36.5302919,29.805412 C37.0087275,28.3652923 43.1284949,28.6165436 43.1276562,27.099016 C43.1276562,19.290908 30.9200941,11.2 23.1127572,11.2" fill="#FA6800"></path>
                            <path d="M16.9582984,25.201428 L16.9582984,32.687144 L11.0222594,32.687144 C8.995,39.865 17.9598466,48.335 23.0591492,48.335 C28.1584518,48.335 41.584375,39.816875 35.096039,32.687144 L29.16,32.687144 L29.16,25.201428 L25.1650767,29.21436 L23.0605579,31.326876 L20.956039,29.21436 L16.9582984,25.201428 Z" fill="#4C4C4C"></path>
                        </g>
                    </g>
                </g>
            </g>
            <g id="fullscreen" opacity="0.75" stroke-width="1" transform="translate(943.000000, 16.000000)" stroke="#FFFFFF">
                <rect id="Rectangle-7" stroke-width="1.63636364" x="0.818181818" y="0.818181818" width="16.3636364" height="16.3636364" rx="1.63636364"></rect>
                <rect id="Rectangle-7" stroke-width="1.63636364" fill="#FFFFFF" x="0.818181818" y="0.818181818" width="16.3636364" height="3.27272727" rx="1.63636364"></rect>
            </g>
            <rect id="minimize" stroke="#FFFFFF" stroke-width="2" fill="#FFFFFF" opacity="0.75" x="899" y="31" width="16" height="2" rx="1"></rect>
            <g id="close" opacity="0.75" stroke-width="1" transform="translate(988.000000, 18.000000)" stroke="#FFFFFF" stroke-linecap="round">
                <path d="M0,0 L14,14" id="Shape" stroke-width="1.85022026"></path>
                <path d="M14,0 L0,14" id="Shape" stroke-width="1.85022026"></path>
            </g>
            <g id="sidebar" opacity="0.75" stroke-width="1" transform="translate(16.000000, 16.000000)" stroke="#FFFFFF">
                <rect id="Rectangle-7" stroke-width="1.63636364" x="0.818181818" y="0.818181818" width="16.3636364" height="16.3636364" rx="1.63636364"></rect>
                <path d="M6.18181818,17.1818182 L6.18181818,0.818181818 L1.63999999,0.818181818 C1.18612234,0.818181818 0.818181818,1.18612234 0.818181818,1.63999999 L0.818181818,16.36 C0.818181818,16.8138777 1.18612234,17.1818182 1.63999999,17.1818182 L6.18181818,17.1818182 Z" id="Rectangle-7" stroke-width="1.63636364" fill="#FFFFFF"></path>
            </g>
        </g>
    </g>
</svg>