<?xml version="1.0" encoding="UTF-8"?>
<svg width="1024px" height="768px" viewBox="0 0 1024 768" version="1.1" xmlns="http://www.w3.org/2000/svg" xmlns:xlink="http://www.w3.org/1999/xlink">
    <!-- Generator: Sketch 52.2 (67145) - http://www.bohemiancoding.com/sketch -->
    <title>settings - node - remote</title>
    <desc>Created with Sketch.</desc>
    <defs>
        <linearGradient x1="0%" y1="0%" x2="100%" y2="100%" id="linearGradient-1">
            <stop stop-color="#FFFFFF" offset="0%"></stop>
            <stop stop-color="#FFFFFF" stop-opacity="0" offset="100%"></stop>
        </linearGradient>
        <linearGradient x1="100%" y1="100%" x2="0%" y2="1.72254642e-14%" id="linearGradient-2">
            <stop stop-color="#FFFFFF" offset="0%"></stop>
            <stop stop-color="#FFFFFF" stop-opacity="0" offset="100%"></stop>
        </linearGradient>
        <linearGradient x1="100%" y1="50%" x2="0%" y2="50%" id="linearGradient-3">
            <stop stop-color="#FFFFFF" offset="0%"></stop>
            <stop stop-color="#FFFFFF" stop-opacity="0" offset="100%"></stop>
        </linearGradient>
        <rect id="path-4" x="13" y="17" width="233" height="153" rx="9"></rect>
        <filter x="-52.6%" y="-67.0%" width="205.2%" height="260.1%" filterUnits="objectBoundingBox" id="filter-5">
            <feOffset dx="0" dy="20" in="SourceAlpha" result="shadowOffsetOuter1"></feOffset>
            <feGaussianBlur stdDeviation="37.5" in="shadowOffsetOuter1" result="shadowBlurOuter1"></feGaussianBlur>
            <feComposite in="shadowBlurOuter1" in2="SourceAlpha" operator="out" result="shadowBlurOuter1"></feComposite>
            <feColorMatrix values="0 0 0 0 0   0 0 0 0 0   0 0 0 0 0  0 0 0 1 0" type="matrix" in="shadowBlurOuter1"></feColorMatrix>
        </filter>
        <linearGradient x1="31.4460666%" y1="0%" x2="68.8736728%" y2="100%" id="linearGradient-6">
            <stop stop-color="#FA6800" offset="0%"></stop>
            <stop stop-color="#FA6800" stop-opacity="0" offset="100%"></stop>
        </linearGradient>
        <path d="M12.819426,-5.17920154e-16 L246.180574,5.17920154e-16 C250.638168,-3.00926524e-16 252.254599,0.464128056 253.884229,1.33566352 C255.513858,2.20719898 256.792801,3.48614185 257.664336,5.11577148 C258.535872,6.74540111 259,8.3618323 259,12.819426 L259,157.180574 C259,161.638168 258.535872,163.254599 257.664336,164.884229 C256.792801,166.513858 255.513858,167.792801 253.884229,168.664336 C252.254599,169.535872 250.638168,170 246.180574,170 L12.819426,170 C8.3618323,170 6.74540111,169.535872 5.11577148,168.664336 C3.48614185,167.792801 2.20719898,166.513858 1.33566352,164.884229 C0.464128056,163.254599 2.00617683e-16,161.638168 -3.45280103e-16,157.180574 L3.45280103e-16,12.819426 C-2.00617683e-16,8.3618323 0.464128056,6.74540111 1.33566352,5.11577148 C2.20719898,3.48614185 3.48614185,2.20719898 5.11577148,1.33566352 C6.74540111,0.464128056 8.3618323,3.00926524e-16 12.819426,-5.17920154e-16 Z" id="path-7"></path>
        <radialGradient cx="50%" cy="54.8563058%" fx="50%" fy="54.8563058%" r="66.7361156%" gradientTransform="translate(0.500000,0.548563),scale(1.000000,0.986350),rotate(67.723697),translate(-0.500000,-0.548563)" id="radialGradient-9">
            <stop stop-color="#FFFFFF" offset="0%"></stop>
            <stop stop-color="#FFFFFF" stop-opacity="0" offset="100%"></stop>
        </radialGradient>
        <circle id="path-10" cx="14" cy="14" r="14"></circle>
        <path d="M10.7,3 L110.064706,3 C111.555875,3 112.764706,4.20883118 112.764706,5.7 L112.764706,25.1888889 C112.764706,26.6800577 111.555875,27.8888889 110.064706,27.8888889 L10.7,27.8888889 C9.20883118,27.8888889 8,26.6800577 8,25.1888889 L8,5.7 C8,4.20883118 9.20883118,3 10.7,3 Z" id="path-12"></path>
        <filter x="-23.9%" y="-80.4%" width="147.7%" height="300.9%" filterUnits="objectBoundingBox" id="filter-13">
            <feOffset dx="0" dy="5" in="SourceAlpha" result="shadowOffsetOuter1"></feOffset>
            <feGaussianBlur stdDeviation="7.5" in="shadowOffsetOuter1" result="shadowBlurOuter1"></feGaussianBlur>
            <feComposite in="shadowBlurOuter1" in2="SourceAlpha" operator="out" result="shadowBlurOuter1"></feComposite>
            <feColorMatrix values="0 0 0 0 0   0 0 0 0 0   0 0 0 0 0  0 0 0 1 0" type="matrix" in="shadowBlurOuter1"></feColorMatrix>
        </filter>
        <rect id="path-14" x="0" y="0" width="625" height="96"></rect>
        <filter x="-0.1%" y="-1.6%" width="100.2%" height="102.1%" filterUnits="objectBoundingBox" id="filter-15">
            <feOffset dx="0" dy="-1" in="SourceAlpha" result="shadowOffsetOuter1"></feOffset>
            <feComposite in="shadowOffsetOuter1" in2="SourceAlpha" operator="out" result="shadowOffsetOuter1"></feComposite>
            <feColorMatrix values="0 0 0 0 0.250980392   0 0 0 0 0.250980392   0 0 0 0 0.250980392  0 0 0 1 0" type="matrix" in="shadowOffsetOuter1"></feColorMatrix>
        </filter>
        <linearGradient x1="100%" y1="100%" x2="0%" y2="18.9089753%" id="linearGradient-16">
            <stop stop-color="#FFFFFF" stop-opacity="0.5" offset="0%"></stop>
            <stop stop-color="#000000" offset="100%"></stop>
        </linearGradient>
        <rect id="path-17" x="0" y="0" width="625" height="96"></rect>
        <filter x="-0.1%" y="-1.6%" width="100.2%" height="103.1%" filterUnits="objectBoundingBox" id="filter-18">
            <feOffset dx="0" dy="1" in="SourceAlpha" result="shadowOffsetOuter1"></feOffset>
            <feComposite in="shadowOffsetOuter1" in2="SourceAlpha" operator="out" result="shadowOffsetOuter1"></feComposite>
            <feColorMatrix values="0 0 0 0 0.250980392   0 0 0 0 0.250980392   0 0 0 0 0.250980392  0 0 0 1 0" type="matrix" in="shadowOffsetOuter1" result="shadowMatrixOuter1"></feColorMatrix>
            <feOffset dx="0" dy="-1" in="SourceAlpha" result="shadowOffsetOuter2"></feOffset>
            <feComposite in="shadowOffsetOuter2" in2="SourceAlpha" operator="out" result="shadowOffsetOuter2"></feComposite>
            <feColorMatrix values="0 0 0 0 0.250980392   0 0 0 0 0.250980392   0 0 0 0 0.250980392  0 0 0 1 0" type="matrix" in="shadowOffsetOuter2" result="shadowMatrixOuter2"></feColorMatrix>
            <feMerge>
                <feMergeNode in="shadowMatrixOuter1"></feMergeNode>
                <feMergeNode in="shadowMatrixOuter2"></feMergeNode>
            </feMerge>
        </filter>
        <linearGradient x1="50%" y1="67.4270996%" x2="30.8216146%" y2="5.66616211%" id="linearGradient-19">
            <stop stop-color="#000000" stop-opacity="0" offset="0%"></stop>
            <stop stop-color="#000000" offset="100%"></stop>
        </linearGradient>
        <linearGradient x1="37.833478%" y1="53.2779405%" x2="19.9815538%" y2="13.109158%" id="linearGradient-20">
            <stop stop-color="#000000" stop-opacity="0" offset="0%"></stop>
            <stop stop-color="#000000" offset="100%"></stop>
        </linearGradient>
        <linearGradient x1="62.280649%" y1="62.2008714%" x2="19.0144231%" y2="9.11403245%" id="linearGradient-21">
            <stop stop-color="#000000" stop-opacity="0" offset="0%"></stop>
            <stop stop-color="#000000" offset="100%"></stop>
        </linearGradient>
    </defs>
    <g id="settings---node---remote" stroke="none" stroke-width="1" fill="none" fill-rule="evenodd">
        <rect fill="#000000" x="0" y="0" width="1024" height="768"></rect>
        <polygon id="Rectangle-2" fill="url(#linearGradient-1)" opacity="0.100000001" points="0 50 300 50 300 1413 0 1413"></polygon>
        <polygon id="Rectangle-2" fill="url(#linearGradient-2)" opacity="0.100000001" points="300 50 1025 50 1025 1413 300 1413"></polygon>
        <polygon id="Rectangle-2" fill="#D8D8D8" opacity="0.149999991" points="299 50 300 50 300 1413 299 1413"></polygon>
        <g id="Network-status---dark" transform="translate(0.000000, 648.000000)">
            <g>
                <rect id="Rectangle" fill-opacity="0" fill="#D8D8D8" x="0" y="0" width="300" height="120"></rect>
                <g id="lightning" transform="translate(27.000000, 26.000000)" fill="#FA6800" fill-rule="nonzero">
                    <path d="M1.09102061,27 C1.0108412,27 0.930116358,26.98272 0.853755019,26.946 C0.606671541,26.8272 0.487220589,26.5464 0.573945253,26.28882 L4.69800303,14.04 L0.54558247,14.04 C0.363406131,14.04 0.193229431,13.94982 0.0917779375,13.7997 C-0.00967355656,13.64958 -0.0282184533,13.45896 0.0421430667,13.29264 L5.49652447,0.33264 C5.58106738,0.13122 5.77960686,0 5.99996387,0 L11.1816262,0 C11.3665297,0 11.5388882,0.09288 11.6392488,0.24624 C11.7401549,0.40014 11.7548817,0.59346 11.6796112,0.76032 L7.38701306,10.26 L11.4543453,10.26 C11.6545211,10.26 11.8388792,10.36908 11.9343308,10.54296 C12.0297825,10.71738 12.0205101,10.9296 11.910877,11.09538 L1.54755233,26.75538 C1.44337365,26.91306 1.26992432,27 1.09102061,27 Z" id="Shape"></path>
                </g>
                <text id="Network-status" opacity="0.5" font-family="SFUIDisplay-Medium, SF UI Display" font-size="13" font-weight="400" fill="#FFFFFF">
                    <tspan x="50" y="32">Network status</tspan>
                </text>
                <text id="Synchronizing" font-family="SFUIDisplay-Medium, SF UI Display" font-size="20" font-weight="400" fill="#FFFFFF">
                    <tspan x="50" y="53">Synchronizing</tspan>
                </text>
                <text id="Blocks-remaining" font-family="SFUIDisplay-Medium, SF UI Display" font-size="13" font-weight="400" fill="#FFFFFF">
                    <tspan x="20" y="82">Blocks remaining</tspan>
                </text>
                <text id="67,775" font-family="SFUIDisplay-Medium, SF UI Display" font-size="13" font-weight="400" fill="#FFFFFF">
                    <tspan x="240.911133" y="82">67,775</tspan>
                </text>
                <rect id="Rectangle-5" fill="#FFFFFF" opacity="0.200000003" x="20" y="92" width="260" height="8" rx="4"></rect>
                <rect id="Rectangle-5" fill="#FA6800" x="20" y="92" width="171" height="8" rx="4"></rect>
            </g>
        </g>
        <g id="Menu" transform="translate(0.000000, 300.000000)">
            <g id="Group" transform="translate(20.000000, 0.000000)">
                <text id="Send" font-family="SFUIDisplay-Medium, SF UI Display" font-size="16" font-weight="400" line-spacing="44" fill="#FFFFFF">
                    <tspan x="20" y="16">Send</tspan>
                </text>
                <g id="Group-5" transform="translate(0.000000, 19.000000)" fill="#FA6800" fill-rule="nonzero">
                    <path d="M4,0 C1.79443478,0 0,1.79443478 0,4 C0,6.20573913 1.79443478,8 4,8 C6.20573913,8 8,6.20573913 8,4 C8,1.79443478 6.20573913,0 4,0 Z" id="Shape"></path>
                </g>
                <g id="right" transform="translate(254.000000, 17.000000)" opacity="0.25" stroke="#FFFFFF" stroke-linecap="round" stroke-linejoin="round" stroke-width="1.2">
                    <polyline id="Shape" points="0 0 6 6 0 12"></polyline>
                </g>
                <rect id="Rectangle-3" fill="#FFFFFF" opacity="0.149999991" x="20" y="0" width="259" height="1"></rect>
            </g>
            <g id="Group" transform="translate(20.000000, 45.000000)">
                <text id="Address-book" font-family="SFUIDisplay-Medium, SF UI Display" font-size="16" font-weight="400" line-spacing="44" fill="#FFFFFF">
                    <tspan x="20" y="16">Address book</tspan>
                </text>
                <circle id="Oval-2" fill="#FF4D39" cx="4" cy="23" r="4"></circle>
                <g id="right" transform="translate(254.000000, 17.000000)" opacity="0.25" stroke="#FFFFFF" stroke-linecap="round" stroke-linejoin="round" stroke-width="1.2">
                    <polyline id="Shape" points="0 0 6 6 0 12"></polyline>
                </g>
                <rect id="Rectangle-3" fill="#FFFFFF" opacity="0.149999991" x="20" y="0" width="259" height="1"></rect>
            </g>
            <g id="Group" transform="translate(19.000000, 135.000000)">
                <rect id="Rectangle-6" fill="url(#linearGradient-3)" opacity="0.100000001" x="0" y="91" width="280" height="44"></rect>
                <text id="Transactions" font-family="SFUIDisplay-Medium, SF UI Display" font-size="16" font-weight="400" line-spacing="44" fill="#FFFFFF">
                    <tspan x="21" y="16">Transactions</tspan>
                </text>
                <g id="Group-5" transform="translate(1.000000, 19.000000)" fill="#6C0074" fill-rule="nonzero">
                    <path d="M4,0 C1.79443478,0 0,1.79443478 0,4 C0,6.20573913 1.79443478,8 4,8 C6.20573913,8 8,6.20573913 8,4 C8,1.79443478 6.20573913,0 4,0 Z" id="Shape"></path>
                </g>
                <g id="right" transform="translate(255.000000, 17.000000)" opacity="0.25" stroke="#FFFFFF" stroke-linecap="round" stroke-linejoin="round" stroke-width="1.2">
                    <polyline id="Shape" points="0 0 6 6 0 12"></polyline>
                </g>
                <rect id="Rectangle-3" fill="#FFFFFF" opacity="0.149999991" x="21" y="0" width="259" height="1"></rect>
            </g>
            <g id="Group" transform="translate(20.000000, 90.000000)">
                <text id="Receive" font-family="SFUIDisplay-Medium, SF UI Display" font-size="16" font-weight="400" line-spacing="44" fill="#FFFFFF">
                    <tspan x="20" y="16">Receive</tspan>
                </text>
                <circle id="Oval-2" fill="#A7FFB9" cx="4" cy="23" r="4"></circle>
                <g id="right" transform="translate(254.000000, 17.000000)" opacity="0.25" stroke="#FFFFFF" stroke-linecap="round" stroke-linejoin="round" stroke-width="1.2">
                    <polyline id="Shape" points="0 0 6 6 0 12"></polyline>
                </g>
                <rect id="Rectangle-3" fill="#FFFFFF" opacity="0.149999991" x="20" y="0" width="259" height="1"></rect>
            </g>
            <g id="Group" transform="translate(20.000000, 180.000000)">
                <text id="Advanced" font-family="SFUIDisplay-Medium, SF UI Display" font-size="16" font-weight="400" line-spacing="44" fill="#FFFFFF">
                    <tspan x="20" y="16">Advanced</tspan>
                </text>
                <circle id="Oval-2" fill="#FFD87B" cx="4" cy="23" r="4"></circle>
                <g id="right" transform="translate(254.000000, 17.000000)" opacity="0.25" stroke="#FFFFFF" stroke-linecap="round" stroke-linejoin="round" stroke-width="1.2">
                    <polyline id="Shape" points="0 0 6 6 0 12"></polyline>
                </g>
                <rect id="Rectangle-3" fill="#FFFFFF" opacity="0.149999991" x="20" y="0" width="259" height="1"></rect>
            </g>
            <g id="Group" transform="translate(0.000000, 225.000000)">
                <text id="Settings" font-family="SFUIDisplay-Medium, SF UI Display" font-size="16" font-weight="400" line-spacing="44" fill="#FFFFFF">
                    <tspan x="50" y="16">Settings</tspan>
                </text>
                <g id="Group-5" transform="translate(20.000000, 13.000000)" fill-rule="nonzero">
                    <path d="M10,0 C4.48608696,0 0,4.48608696 0,10 C0,15.5143478 4.48608696,20 10,20 C15.5143478,20 20,15.5143478 20,10 C20,4.48608696 15.5143478,0 10,0 Z" id="Shape" fill="#2EB358"></path>
                    <path d="M13.6376511,9.242904 L11.2169688,6.79206656 C10.9249858,6.49644619 10.9250337,6.01719933 11.2170758,5.72163874 C11.5091179,5.42607815 11.9825638,5.42612662 12.2745469,5.72174699 L16.5,9.99983784 L12.2737724,14.2782801 C11.9817746,14.5738855 11.5083286,14.5739097 11.2163013,14.2783342 C10.9242739,13.9827587 10.92425,13.5035118 11.2162478,13.2079064 L13.637522,10.7567175 L4.24774499,10.7567175 C3.83477683,10.7567175 3.5,10.4178388 3.5,9.99981077 C3.5,9.5817827 3.83477683,9.242904 4.24774499,9.242904 L13.6376511,9.242904 Z" id="Shape" fill="#FFFFFF"></path>
                </g>
                <g id="right" transform="translate(274.000000, 17.000000)" stroke="#FFFFFF" stroke-linecap="round" stroke-linejoin="round" stroke-width="1.2">
                    <polyline id="Shape" points="0 0 6 6 0 12"></polyline>
                </g>
                <rect id="Rectangle-3" fill="#FFFFFF" opacity="0.149999991" x="40" y="0" width="259" height="1"></rect>
            </g>
        </g>
        <g id="Card" transform="translate(20.000000, 90.000000)">
            <g id="Rectangle-8">
                <use fill="black" fill-opacity="1" filter="url(#filter-5)" xlink:href="#path-4"></use>
                <use fill-opacity="0" fill="#4C4C4C" fill-rule="evenodd" xlink:href="#path-4"></use>
            </g>
            <g id="Card-background">
                <mask id="mask-8" fill="white">
                    <use xlink:href="#path-7"></use>
                </mask>
                <g id="Rectangle-8">
                    <use fill="#4C4C4C" xlink:href="#path-7"></use>
                    <use fill-opacity="0.2" fill="url(#linearGradient-6)" xlink:href="#path-7"></use>
                </g>
                <path d="M204.226939,-34 C280.479602,-34 342.315789,28.692 342.315789,106 C342.32398,121.025025 339.946041,135.953389 335.273258,150.212 L293.984692,150.212 L293.984692,32.416 L204.226939,123.416 L114.469186,32.416 L114.469186,150.212 L73.1806202,150.212 C68.4923805,135.957236 66.1140323,121.026307 66.1380889,106 C66.1380889,28.692 127.974276,-34 204.226939,-34 Z M183.596465,144.36 L204.226939,165.276 L224.857413,144.36 L264.019411,104.628 L264.019411,178.744 L322.210053,178.744 C297.989269,219.064 254.215103,246 204.226939,246 C154.238775,246 110.46461,219.064 86.2162077,178.744 L144.406849,178.744 L144.406849,104.628 L183.596465,144.36 Z" id="Shape" fill="url(#radialGradient-9)" fill-rule="nonzero" opacity="0.149999991" mask="url(#mask-8)"></path>
                <g id="lock" mask="url(#mask-8)">
                    <g transform="translate(221.000000, 74.000000)">
                        <path d="M12.96,7.56 C12.96,7.56 12.96,5.796 12.96,5.4 C12.96,3.204 11.196,1.44 9,1.44 C6.804,1.44 5.04,3.204 5.04,5.4 C5.04,5.796 5.04,7.56 5.04,7.56" id="Shape" stroke="#FFFFFF" stroke-width="0.72" fill="none" stroke-linecap="round"></path>
                        <rect id="Rectangle-path" stroke="none" fill="none" x="0" y="0" width="18" height="18"></rect>
                        <path d="M14.76,7.2 L3.24,7.2 C2.628,7.2 2.16,7.668 2.16,8.28 L2.16,16.92 C2.16,17.532 2.628,18 3.24,18 L14.76,18 C15.372,18 15.84,17.532 15.84,16.92 L15.84,8.28 C15.84,7.668 15.372,7.2 14.76,7.2 Z M9.72,12.672 L9.72,13.68 C9.72,14.076 9.396,14.4 9,14.4 C8.604,14.4 8.28,14.076 8.28,13.68 L8.28,12.672 C8.064,12.492 7.92,12.204 7.92,11.88 C7.92,11.268 8.388,10.8 9,10.8 C9.612,10.8 10.08,11.268 10.08,11.88 C10.08,12.204 9.936,12.492 9.72,12.672 Z" id="Shape" stroke="none" fill="#FFFFFF" fill-rule="nonzero"></path>
                    </g>
                </g>
                <text id="MONERO" mask="url(#mask-8)" font-family="CenturyGothic-Bold, Century Gothic" font-size="20.48" font-weight="bold" letter-spacing="-0.96" fill="#FFFFFF">
                    <tspan x="60" y="44">MONER</tspan>
                    <tspan x="128.51" y="44" letter-spacing="-0.64">O</tspan>
                </text>
                <g id="Group-10" mask="url(#mask-8)">
                    <g transform="translate(20.000000, 22.000000)" id="xmr">
                        <g>
                            <g fill="#FFFFFF" fill-rule="nonzero" id="Shape">
                                <path d="M13.8226939,0 C6.1974276,0 0.013808885,6.2692 0.013808885,14 C0.0114032251,15.5026307 0.249238053,16.9957236 0.718062022,18.4212 L4.84691865,18.4212 L4.84691865,6.6416 L13.8226939,15.7416 L22.7984692,6.6416 L22.7984692,18.4212 L26.9273258,18.4212 C27.3946041,16.9953389 27.632398,15.5025025 27.6315789,14 C27.6315789,6.2692 21.4479602,0 13.8226939,0"></path>
                                <path d="M11.7596465,17.836 L7.84068492,13.8628 L7.84068492,21.2744 L2.02162077,21.2744 C4.44646098,25.3064 8.82387753,28 13.8226939,28 C18.8215103,28 23.1989269,25.3064 25.6210053,21.2744 L19.8019411,21.2744 L19.8019411,13.8628 L15.8857413,17.836 L13.8226939,19.9276 L11.7596465,17.836 Z"></path>
                            </g>
                        </g>
                    </g>
                </g>
            </g>
            <text id="Your-balance" font-family="SFUIDisplay-Medium, SF UI Display" font-size="12" font-weight="400" fill="#FFFFFF">
                <tspan x="20" y="77">Your balance</tspan>
            </text>
            <text id="Unlocked-balance" font-family="SFUIDisplay-Medium, SF UI Display" font-size="12" font-weight="400" fill="#FFFFFF">
                <tspan x="20" y="127">Unlocked balance</tspan>
            </text>
            <text id="9.377160181" font-family="SFUIDisplay-Regular, SF UI Display" font-size="20" font-weight="normal" fill="#FFFFFF">
                <tspan x="20" y="100">9.377160181</tspan>
            </text>
            <text id="0.17615" font-family="SFUIDisplay-Regular, SF UI Display" font-size="20" font-weight="normal" fill="#FFFFFF">
                <tspan x="20" y="150">0.17615</tspan>
            </text>
        </g>
        <g id="Nav-bar">
            <rect id="Rectangle-2" fill="#000000" x="0" y="0" width="1024" height="50"></rect>
            <rect id="Rectangle-2" fill="url(#linearGradient-2)" opacity="0.100000001" x="0" y="0" width="1024" height="50"></rect>
            <rect id="Rectangle" fill="#FFFFFF" opacity="0.149999991" x="0" y="49" width="1024" height="1"></rect>
            <g id="logo" stroke-width="1" transform="translate(449.000000, 11.000000)">
                <text id="MONERO" font-family="CenturyGothic-Bold, Century Gothic" font-size="20.48" font-weight="bold" letter-spacing="-0.96" fill="#FFFFFF">
                    <tspan x="40" y="21">MONER</tspan>
                    <tspan x="108.51" y="21" letter-spacing="-0.64">O</tspan>
                </text>
                <g>
                    <mask id="mask-11" fill="white">
                        <use xlink:href="#path-10"></use>
                    </mask>
                    <use id="Oval-3" fill="#FFFFFF" xlink:href="#path-10"></use>
                    <g id="xmr" mask="url(#mask-11)" fill-rule="nonzero">
                        <g transform="translate(-8.960000, -11.200000)" id="Shape">
                            <path d="M33.8154687,0.24609375 C26.0081319,0.24609375 0.04703125,14.5929858 0.04703125,22.4010938 C0.0445681495,23.9187508 9.21520424,28.3656808 9.69522244,29.805412 L13.9226649,29.805412 L13.9226649,17.908016 L23.1127572,27.099016 L32.3028495,17.908016 L32.3028495,29.805412 L36.5302919,29.805412 C37.0087275,28.3652923 43.1284949,28.6165436 43.1276562,27.099016 C43.1276562,19.290908 30.9200941,11.2 23.1127572,11.2" fill="#FA6800"></path>
                            <path d="M16.9582984,25.201428 L16.9582984,32.687144 L11.0222594,32.687144 C8.995,39.865 17.9598466,48.335 23.0591492,48.335 C28.1584518,48.335 41.584375,39.816875 35.096039,32.687144 L29.16,32.687144 L29.16,25.201428 L25.1650767,29.21436 L23.0605579,31.326876 L20.956039,29.21436 L16.9582984,25.201428 Z" fill="#4C4C4C"></path>
                        </g>
                    </g>
                </g>
            </g>
            <g id="fullscreen" opacity="0.75" stroke-width="1" transform="translate(943.000000, 16.000000)" stroke="#FFFFFF">
                <rect id="Rectangle-7" stroke-width="1.63636364" x="0.818181818" y="0.818181818" width="16.3636364" height="16.3636364" rx="1.63636364"></rect>
                <rect id="Rectangle-7" stroke-width="1.63636364" fill="#FFFFFF" x="0.818181818" y="0.818181818" width="16.3636364" height="3.27272727" rx="1.63636364"></rect>
            </g>
            <g id="sidebar" opacity="0.75" stroke-width="1" transform="translate(16.000000, 16.000000)" stroke="#FFFFFF">
                <rect id="Rectangle-7" stroke-width="1.63636364" x="0.818181818" y="0.818181818" width="16.3636364" height="16.3636364" rx="1.63636364"></rect>
                <path d="M6.18181818,17.1818182 L6.18181818,0.818181818 L1.63999999,0.818181818 C1.18612234,0.818181818 0.818181818,1.18612234 0.818181818,1.63999999 L0.818181818,16.36 C0.818181818,16.8138777 1.18612234,17.1818182 1.63999999,17.1818182 L6.18181818,17.1818182 Z" id="Rectangle-7" stroke-width="1.63636364" fill="#FFFFFF"></path>
            </g>
            <rect id="minimize" stroke="#FFFFFF" stroke-width="2" fill="#FFFFFF" opacity="0.75" x="899" y="31" width="16" height="2" rx="1"></rect>
            <g id="close" opacity="0.75" stroke-width="1" transform="translate(988.000000, 18.000000)" stroke="#FFFFFF" stroke-linecap="round">
                <path d="M0,0 L14,14" id="Shape" stroke-width="1.85022026"></path>
                <path d="M14,0 L0,14" id="Shape" stroke-width="1.85022026"></path>
            </g>
        </g>
        <g id="Toggle" transform="translate(482.000000, 90.000000)">
            <rect id="Rectangle-4" stroke="#808080" x="0.5" y="0.5" width="359" height="31" rx="3"></rect>
            <rect id="Rectangle-4" stroke="#808080" x="180.5" y="0.5" width="1" height="31" rx="0.5"></rect>
            <rect id="Rectangle-4" stroke="#808080" x="271.5" y="0.5" width="1" height="31" rx="0.5"></rect>
            <rect id="Rectangle-4" fill="#808080" x="90" y="0" width="90" height="32"></rect>
            <text id="Node" font-family="SFUIDisplay-Semibold, SF UI Display" font-size="16" font-weight="500" fill="#FFFFFF">
                <tspan x="115.542969" y="21">Node</tspan>
            </text>
            <text id="Log" font-family="SFUIDisplay-Semibold, SF UI Display" font-size="16" font-weight="500" fill="#FFFFFF">
                <tspan x="211.460938" y="21">Log</tspan>
            </text>
            <text id="Info" font-family="SFUIDisplay-Semibold, SF UI Display" font-size="16" font-weight="500" fill="#FFFFFF">
                <tspan x="301.257812" y="21">Info</tspan>
            </text>
            <text id="Wallet" font-family="SFUIDisplay-Semibold, SF UI Display" font-size="16" font-weight="500" fill="#FFFFFF">
                <tspan x="22.5976562" y="21">Wallet</tspan>
            </text>
        </g>
        <g id="Button-/-Gray-/-Medium" transform="translate(350.000000, 650.000000)">
            <g id="Button-/-gray-/-medium">
                <g id="Rectangle-4" opacity="0.149999991">
                    <use fill="black" fill-opacity="1" filter="url(#filter-13)" xlink:href="#path-12"></use>
                    <use fill-opacity="0" fill="#FA6800" fill-rule="evenodd" xlink:href="#path-12"></use>
                </g>
                <rect id="Rectangle-4" fill="#808080" x="0" y="0" width="120" height="28" rx="3"></rect>
                <text id="Label" font-family="SFUIDisplay-Bold, SF UI Display" font-size="14" font-weight="bold" fill="#FFFFFF">
                    <tspan x="32.2426758" y="19">Connect</tspan>
                </text>
            </g>
        </g>
        <g id="Input---address" transform="translate(349.000000, 436.000000)">
            <text id="Address" font-family="SFUIDisplay-Medium, SF UI Display" font-size="14" font-weight="400" fill="#FFFFFF">
                <tspan x="0" y="13">Address</tspan>
            </text>
            <text id="…" opacity="0.25" font-family="SFUIDisplay-Regular, SF UI Display" font-size="22" font-weight="normal" fill="#FFFFFF">
                <tspan x="15" y="61">…</tspan>
            </text>
            <path d="M3,29.5 C1.61928813,29.5 0.5,30.6192881 0.5,32 L0.5,74 C0.5,75.3807119 1.61928813,76.5 3,76.5 L502,76.5 C503.380712,76.5 504.5,75.3807119 504.5,74 L504.5,32 C504.5,30.6192881 503.380712,29.5 502,29.5 L3,29.5 Z" id="Rectangle-4" stroke="#FFFFFF" opacity="0.25"></path>
        </g>
        <text id="To-find-a-remote-nod" font-family="SFUIDisplay-Regular, SF UI Display" font-size="14" font-weight="normal" letter-spacing="-0.109375">
            <tspan x="350" y="387" fill="#C0C0C0">To find a remote node, type “Monero remote node” into your favorite search engine. Please ensure the </tspan>
            <tspan x="350" y="403" fill="#C0C0C0">node is run by a trusted third party. For more details, view </tspan>
            <tspan x="690.053711" y="403" fill="#FFFFFF">this tutorial</tspan>
            <tspan x="755.125" y="403" fill="#C0C0C0">.</tspan>
        </text>
        <g id="Input---address" transform="translate(349.000000, 543.000000)">
            <text id="Username-Optional" font-family="SFUIDisplay-Medium, SF UI Display" font-size="14" font-weight="400">
                <tspan x="0" y="13" fill="#FFFFFF">Username   </tspan>
                <tspan x="73.5683594" y="13" fill="#808080">Optional</tspan>
            </text>
            <text id="…" opacity="0.25" font-family="SFUIDisplay-Regular, SF UI Display" font-size="22" font-weight="normal" fill="#FFFFFF">
                <tspan x="15" y="61">…</tspan>
            </text>
            <rect id="Rectangle-4" stroke="#FFFFFF" opacity="0.25" x="0.5" y="29.5" width="302" height="47" rx="3"></rect>
        </g>
        <g id="Input---address" transform="translate(671.000000, 543.000000)">
            <text id="Password-Optional" font-family="SFUIDisplay-Medium, SF UI Display" font-size="14" font-weight="400">
                <tspan x="0" y="13" fill="#FFFFFF">Password   </tspan>
                <tspan x="70.0751953" y="13" fill="#808080">Optional</tspan>
            </text>
            <text id="…" opacity="0.25" font-family="SFUIDisplay-Regular, SF UI Display" font-size="22" font-weight="normal" fill="#FFFFFF">
                <tspan x="15" y="61">…</tspan>
            </text>
            <rect id="Rectangle-4" stroke="#FFFFFF" opacity="0.25" x="0.5" y="29.5" width="302" height="47" rx="3"></rect>
        </g>
        <g id="Input---address" transform="translate(874.000000, 436.000000)">
            <text id="Port" font-family="SFUIDisplay-Medium, SF UI Display" font-size="14" font-weight="400" fill="#FFFFFF">
                <tspan x="0" y="13">Port</tspan>
            </text>
            <text id="…" opacity="0.25" font-family="SFUIDisplay-Regular, SF UI Display" font-size="22" font-weight="normal" fill="#FFFFFF">
                <tspan x="15" y="61">…</tspan>
            </text>
            <rect id="Rectangle-4" stroke="#FFFFFF" opacity="0.25" x="0.5" y="29.5" width="99" height="47" rx="3"></rect>
        </g>
        <g id="Option" transform="translate(350.000000, 152.000000)">
            <g id="Rectangle-3">
                <use fill="black" fill-opacity="1" filter="url(#filter-15)" xlink:href="#path-14"></use>
                <use fill-opacity="0" fill="#000000" fill-rule="evenodd" xlink:href="#path-14"></use>
            </g>
            <text id="Local-node" font-family="SFUIDisplay-Regular, SF UI Display" font-size="22" font-weight="normal" letter-spacing="-0.171875" fill="#FFFFFF">
                <tspan x="85" y="37">Local node</tspan>
            </text>
            <g transform="translate(0.000000, 10.000000)" id="Group">
                <g>
                    <rect id="Rectangle-4" fill-opacity="0" fill="#000000" opacity="0.200000003" x="0" y="0" width="75" height="75" rx="12.5"></rect>
                    <g id="Group-4" transform="translate(25.000000, 14.000000)">
                        <g id="server" transform="translate(0.000000, 13.500000)">
                            <path d="M1.5625,1.56 L23.4375,1.56 C23.4820313,1.56 23.5210938,1.55844 23.5648437,1.56 L22.96875,0.85878 C22.5773438,0.33696 21.871875,0 21.171875,0 L3.90625,0 C2.9859375,0 2.3921875,0.48672 2.02578125,0.85254 C2.00625,0.87204 1.9875,0.89232 1.9703125,0.91416 L1.43828125,1.56 C1.48046875,1.55844 1.51953125,1.56 1.5625,1.56 Z" id="Shape" fill="#000000" fill-rule="nonzero"></path>
                            <path d="M23.4375,4 L1.5625,4 C0.65703125,4 0,4.56066667 0,5.33333333 L0,32.6666667 C0,33.4393333 0.65703125,34 1.5625,34 L23.4375,34 C24.3429688,34 25,33.4393333 25,32.6666667 L25,5.33333333 C25,4.56066667 24.3429688,4 23.4375,4 Z" id="Shape" fill="#30BCED" fill-rule="nonzero"></path>
                            <path d="M24.21875,4 L13.28125,4 C12.8285156,4 12.5,4.56066667 12.5,5.33333333 L12.5,32.6666667 C12.5,33.4393333 12.8285156,34 13.28125,34 L24.21875,34 C24.6714844,34 25,33.4393333 25,32.6666667 L25,5.33333333 C25,4.56066667 24.6714844,4 24.21875,4 Z" id="Shape" fill="url(#linearGradient-16)" style="mix-blend-mode: overlay;" opacity="0.200000003"></path>
                            <path d="M12.5,30.54 C11.640625,30.54 10.9375,29.838 10.9375,28.98 C10.9375,28.122 11.640625,27.42 12.5,27.42 C13.359375,27.42 14.0625,28.122 14.0625,28.98 C14.0625,29.838 13.359375,30.54 12.5,30.54 Z M12.5,25.08 C11.640625,25.08 10.9375,24.378 10.9375,23.52 C10.9375,22.662 11.640625,21.96 12.5,21.96 C13.359375,21.96 14.0625,22.662 14.0625,23.52 C14.0625,24.378 13.359375,25.08 12.5,25.08 Z M20.3125,18.6771429 C20.3125,19.0628571 20,19.32 19.53125,19.32 L5.46875,19.32 C5,19.32 4.6875,19.0628571 4.6875,18.6771429 L4.6875,15.4628571 C4.6875,15.0771429 5,14.82 5.46875,14.82 L19.53125,14.82 C20,14.82 20.3125,15.0771429 20.3125,15.4628571 L20.3125,18.6771429 Z M20.3125,11.6571429 C20.3125,12.0428571 20,12.3 19.53125,12.3 L5.46875,12.3 C5,12.3 4.6875,12.0428571 4.6875,11.6571429 L4.6875,8.44285714 C4.6875,8.05714286 5,7.8 5.46875,7.8 L19.53125,7.8 C20,7.8 20.3125,8.05714286 20.3125,8.44285714 L20.3125,11.6571429 Z" id="Shape" fill="#53EEFA" fill-rule="nonzero"></path>
                        </g>
                        <g id="Group-6" transform="translate(4.000000, 0.000000)" stroke="#FFFFFF" stroke-linecap="round" stroke-width="1.5">
                            <g id="arrow" transform="translate(3.250000, 5.000000) scale(1, -1) translate(-3.250000, -5.000000) ">
                                <polyline id="Shape" points="6.75 7 3.5 10 0.25 7"></polyline>
                                <path d="M3.5,0.25 L3.5,9.78333333" id="Shape"></path>
                            </g>
                            <g id="arrow" transform="translate(10.500000, 0.000000)">
                                <polyline id="Shape" points="6.75 7 3.5 10 0.25 7"></polyline>
                                <path d="M3.5,0.25 L3.5,9.78333333" id="Shape"></path>
                            </g>
                        </g>
                    </g>
                </g>
            </g>
            <text id="The-blockchain-is-do" font-family="SFUIDisplay-Regular, SF UI Display" font-size="14" font-weight="normal" letter-spacing="-0.109375" fill="#C0C0C0">
                <tspan x="85" y="58">The blockchain is downloaded to your computer. Provides higher security and requires </tspan>
                <tspan x="85" y="74">more local storage</tspan>
            </text>
        </g>
        <g id="Option" transform="translate(350.000000, 248.000000)">
            <g id="Rectangle-3">
                <use fill="black" fill-opacity="1" filter="url(#filter-18)" xlink:href="#path-17"></use>
                <use fill-opacity="0" fill="#000000" fill-rule="evenodd" xlink:href="#path-17"></use>
            </g>
            <rect id="Rectangle-3" fill="#FFFFFF" x="0" y="0" width="2" height="96"></rect>
            <text id="Remote-node" font-family="SFUIDisplay-Regular, SF UI Display" font-size="22" font-weight="normal" letter-spacing="-0.171875" fill="#FFFFFF">
                <tspan x="85" y="37">Remote node</tspan>
            </text>
            <g transform="translate(0.000000, 10.000000)" id="Group">
                <g>
                    <rect id="Rectangle-4" fill-opacity="0" fill="#000000" opacity="0.200000003" x="0" y="0" width="75" height="75" rx="12.5"></rect>
                    <g id="Group-3" transform="translate(15.000000, 16.000000)">
                        <path d="M14.2961543,7.86545889 C15.5247572,3.3346685 19.6915988,0 24.6428571,0 C28.8512086,0 32.4928777,2.40904819 34.2453542,5.91401388 C34.6101474,5.87243263 34.9811318,5.85106383 35.3571429,5.85106383 C40.6827458,5.85106383 45,10.1376992 45,15.4255319 C45,20.7133646 40.6827458,25 35.3571429,25 L6.96428571,25 C3.11801692,25 0,21.9040967 0,18.0851064 C0,14.2661161 3.11801692,11.1702128 6.96428571,11.1702128 C7.1829614,11.1702128 7.3992831,11.1802199 7.61281164,11.1997981 C8.08894679,9.05305065 10.0162689,7.44680851 12.3214286,7.44680851 C13.0250484,7.44680851 13.6934652,7.59646139 14.2961543,7.86545889 Z" id="Oval-2" fill="#30BCED"></path>
                        <ellipse id="Oval-2" fill="url(#linearGradient-19)" style="mix-blend-mode: overlay;" opacity="0.200000003" cx="24.6428571" cy="10.6382979" rx="10.7142857" ry="10.6382979"></ellipse>
                        <ellipse id="Path" fill="url(#linearGradient-20)" style="mix-blend-mode: overlay;" opacity="0.200000003" cx="35.3571429" cy="15.4255319" rx="9.64285714" ry="9.57446809"></ellipse>
                        <ellipse id="Path" fill="url(#linearGradient-21)" style="mix-blend-mode: overlay;" opacity="0.200000003" cx="6.96428571" cy="18.0851064" rx="6.96428571" ry="6.91489362"></ellipse>
                        <g id="Group-2" transform="translate(14.000000, 32.500000)" stroke="#FFFFFF" stroke-linecap="round" stroke-width="1.5">
                            <g id="Group-6">
                                <g id="down" transform="translate(3.250000, 5.000000) scale(1, -1) translate(-3.250000, -5.000000) ">
                                    <polyline id="Shape" points="6.75 7 3.5 10 0.25 7"></polyline>
                                    <path d="M3.5,0.25 L3.5,9.78333333" id="Shape"></path>
                                </g>
                                <g id="down" transform="translate(10.500000, 0.000000)">
                                    <polyline id="Shape" points="6.75 7 3.5 10 0.25 7"></polyline>
                                    <path d="M3.5,0.25 L3.5,9.78333333" id="Shape"></path>
                                </g>
                            </g>
                        </g>
                    </g>
                </g>
            </g>
            <text id="Uses-a-third-party-s" font-family="SFUIDisplay-Regular, SF UI Display" font-size="14" font-weight="normal" letter-spacing="-0.109375" fill="#C0C0C0">
                <tspan x="85" y="58">Uses a third-party server to connect to the Monero network. Less secure, but easier on </tspan>
                <tspan x="85" y="74">your computer.</tspan>
            </text>
        </g>
    </g>
</svg>