<?xml version="1.0" encoding="UTF-8"?>
<svg width="1024px" height="768px" viewBox="0 0 1024 768" version="1.1" xmlns="http://www.w3.org/2000/svg" xmlns:xlink="http://www.w3.org/1999/xlink">
    <!-- Generator: Sketch 53.2 (72643) - https://sketchapp.com -->
    <title>transactions-filtering</title>
    <desc>Created with Sketch.</desc>
    <defs>
        <linearGradient x1="41.2710175%" y1="0%" x2="58.7289825%" y2="100%" id="linearGradient-1">
            <stop stop-color="#FFFFFF" offset="0%"></stop>
            <stop stop-color="#FFFFFF" stop-opacity="0" offset="100%"></stop>
        </linearGradient>
        <linearGradient x1="100%" y1="99.0391439%" x2="0%" y2="0.960856124%" id="linearGradient-2">
            <stop stop-color="#FFFFFF" offset="0%"></stop>
            <stop stop-color="#FFFFFF" stop-opacity="0" offset="100%"></stop>
        </linearGradient>
        <linearGradient x1="100%" y1="50%" x2="0%" y2="50%" id="linearGradient-3">
            <stop stop-color="#FFFFFF" offset="0%"></stop>
            <stop stop-color="#FFFFFF" stop-opacity="0" offset="100%"></stop>
        </linearGradient>
        <rect id="path-4" x="13" y="17" width="233" height="153" rx="9"></rect>
        <filter x="-52.6%" y="-67.0%" width="205.2%" height="260.1%" filterUnits="objectBoundingBox" id="filter-5">
            <feOffset dx="0" dy="20" in="SourceAlpha" result="shadowOffsetOuter1"></feOffset>
            <feGaussianBlur stdDeviation="37.5" in="shadowOffsetOuter1" result="shadowBlurOuter1"></feGaussianBlur>
            <feComposite in="shadowBlurOuter1" in2="SourceAlpha" operator="out" result="shadowBlurOuter1"></feComposite>
            <feColorMatrix values="0 0 0 0 0   0 0 0 0 0   0 0 0 0 0  0 0 0 1 0" type="matrix" in="shadowBlurOuter1"></feColorMatrix>
        </filter>
        <linearGradient x1="31.4460666%" y1="28.6242604%" x2="68.8736728%" y2="71.3757396%" id="linearGradient-6">
            <stop stop-color="#FA6800" offset="0%"></stop>
            <stop stop-color="#FA6800" stop-opacity="0" offset="100%"></stop>
        </linearGradient>
        <path d="M12.819426,-5.17920154e-16 L247.180574,5.17920154e-16 C251.638168,-3.00926524e-16 253.254599,0.464128056 254.884229,1.33566352 C256.513858,2.20719898 257.792801,3.48614185 258.664336,5.11577148 C259.535872,6.74540111 260,8.3618323 260,12.819426 L260,157.180574 C260,161.638168 259.535872,163.254599 258.664336,164.884229 C257.792801,166.513858 256.513858,167.792801 254.884229,168.664336 C253.254599,169.535872 251.638168,170 247.180574,170 L12.819426,170 C8.3618323,170 6.74540111,169.535872 5.11577148,168.664336 C3.48614185,167.792801 2.20719898,166.513858 1.33566352,164.884229 C0.464128056,163.254599 2.00617683e-16,161.638168 -3.45280103e-16,157.180574 L3.45280103e-16,12.819426 C-2.00617683e-16,8.3618323 0.464128056,6.74540111 1.33566352,5.11577148 C2.20719898,3.48614185 3.48614185,2.20719898 5.11577148,1.33566352 C6.74540111,0.464128056 8.3618323,3.00926524e-16 12.819426,-5.17920154e-16 Z" id="path-7"></path>
        <radialGradient cx="50%" cy="54.8563058%" fx="50%" fy="54.8563058%" r="66.7361156%" gradientTransform="translate(0.500000,0.548563),scale(1.000000,0.986350),rotate(67.723697),translate(-0.500000,-0.548563)" id="radialGradient-9">
            <stop stop-color="#FFFFFF" offset="0%"></stop>
            <stop stop-color="#FFFFFF" stop-opacity="0" offset="100%"></stop>
        </radialGradient>
        <linearGradient x1="100%" y1="50.1192093%" x2="0%" y2="49.8807907%" id="linearGradient-10">
            <stop stop-color="#FFFFFF" offset="0%"></stop>
            <stop stop-color="#FFFFFF" stop-opacity="0" offset="100%"></stop>
        </linearGradient>
        <circle id="path-11" cx="14" cy="14" r="14"></circle>
        <polygon id="path-13" points="300 324 1024 324 1024 816 300 816"></polygon>
        <filter x="-0.1%" y="-0.3%" width="100.1%" height="100.4%" filterUnits="objectBoundingBox" id="filter-14">
            <feOffset dx="0" dy="-1" in="SourceAlpha" result="shadowOffsetOuter1"></feOffset>
            <feColorMatrix values="0 0 0 0 1   0 0 0 0 1   0 0 0 0 1  0 0 0 0.15 0" type="matrix" in="shadowOffsetOuter1"></feColorMatrix>
        </filter>
        <linearGradient x1="0%" y1="38.5805531%" x2="100%" y2="61.4194469%" id="linearGradient-15">
            <stop stop-color="#FFFFFF" offset="0%"></stop>
            <stop stop-color="#FFFFFF" stop-opacity="0" offset="100%"></stop>
        </linearGradient>
        <rect id="path-16" x="0" y="0" width="724" height="346"></rect>
    </defs>
    <g id="transactions-filtering" stroke="none" stroke-width="1" fill="none" fill-rule="evenodd">
        <rect fill="#000000" x="0" y="0" width="1024" height="768"></rect>
        <g id="Background">
            <rect id="Rectangle-2" fill="url(#linearGradient-1)" fill-rule="evenodd" opacity="0.100000001" x="0" y="50" width="300" height="718"></rect>
            <rect id="Rectangle-2" fill="url(#linearGradient-2)" fill-rule="evenodd" opacity="0.100000001" x="300" y="50" width="725" height="718"></rect>
            <g id="Nav/History" transform="translate(0.000000, 300.000000)">
                <g id="NavItem/Default">
                    <g id="NavItemBackground/Default" opacity="0.25" stroke="#FFFFFF" stroke-linecap="round" stroke-linejoin="round" stroke-width="1.2">
                        <polyline id="Shape" points="274 18 280 24 274 30"></polyline>
                    </g>
                    <g id="NavItemDot/Blue" transform="translate(8.000000, 1.000000)" fill="#00ABFF" fill-rule="evenodd" stroke-width="1">
                        <g id="Account" transform="translate(12.000000, 18.000000)">
                            <circle id="Oval-2" cx="4" cy="4" r="4"></circle>
                        </g>
                    </g>
                    <text id="Label" font-family="Roboto-Medium, Roboto" font-size="16" font-weight="400" line-spacing="44" fill="#FFFFFF">
                        <tspan x="40" y="16">Account</tspan>
                    </text>
                </g>
                <g id="NavItem/Default" transform="translate(0.000000, 135.000000)">
                    <g id="NavItemBackground/Active">
                        <rect id="Rectangle-6" fill="url(#linearGradient-3)" fill-rule="evenodd" opacity="0.100000001" x="19" y="1" width="280" height="44"></rect>
                        <polyline id="Shape" stroke="#FFFFFF" stroke-width="1.2" stroke-linecap="round" stroke-linejoin="round" points="274 18 280 24 274 30"></polyline>
                    </g>
                    <g id="NavItemSeparator/Default" fill="#FFFFFF" fill-rule="evenodd" opacity="0.149999991">
                        <rect id="Rectangle-3" x="40" y="0" width="259" height="1"></rect>
                    </g>
                    <g id="NavItemDot/PurpleActive" transform="translate(8.000000, 1.000000)" fill-rule="evenodd" stroke-width="1">
                        <g id="Account" transform="translate(12.000000, 12.000000)">
                            <circle id="Oval-2" fill="#6C0074" cx="10" cy="10" r="10"></circle>
                            <path d="M13.6376511,9.242904 L11.2169688,6.79206656 C10.9249858,6.49644619 10.9250337,6.01719933 11.2170758,5.72163874 C11.5091179,5.42607815 11.9825638,5.42612662 12.2745469,5.72174699 L16.5,9.99983784 L12.2737724,14.2782801 C11.9817746,14.5738855 11.5083286,14.5739097 11.2163013,14.2783342 C10.9242739,13.9827587 10.92425,13.5035118 11.2162478,13.2079064 L13.637522,10.7567175 L4.24774499,10.7567175 C3.83477683,10.7567175 3.5,10.4178388 3.5,9.99981077 C3.5,9.5817827 3.83477683,9.242904 4.24774499,9.242904 L13.6376511,9.242904 Z" id="Shape" fill="#FFFFFF" fill-rule="nonzero"></path>
                        </g>
                    </g>
                    <text id="Label" font-family="Roboto-Medium, Roboto" font-size="16" font-weight="400" line-spacing="44" fill="#FFFFFF">
                        <tspan x="40" y="16">   History</tspan>
                    </text>
                </g>
                <g id="NavItem/Default" transform="translate(0.000000, 45.000000)">
                    <g id="NavItemBackground/Default" opacity="0.25" stroke="#FFFFFF" stroke-linecap="round" stroke-linejoin="round" stroke-width="1.2">
                        <polyline id="Shape" points="274 18 280 24 274 30"></polyline>
                    </g>
                    <g id="NavItemSeparator/Default" fill="#FFFFFF" fill-rule="evenodd" opacity="0.149999991">
                        <rect id="Rectangle-3" x="40" y="0" width="259" height="1"></rect>
                    </g>
                    <g id="NavItemDot/Orange" transform="translate(8.000000, 1.000000)" fill="#FA6800" fill-rule="evenodd" stroke-width="1">
                        <g id="Account" transform="translate(12.000000, 18.000000)">
                            <circle id="Oval-2" cx="4" cy="4" r="4"></circle>
                        </g>
                    </g>
                    <text id="Label" font-family="Roboto-Medium, Roboto" font-size="16" font-weight="400" line-spacing="44" fill="#FFFFFF">
                        <tspan x="40" y="16">Send</tspan>
                    </text>
                </g>
                <g id="NavItem/Default" transform="translate(0.000000, 180.000000)">
                    <g id="NavItemBackground/Default" opacity="0.25" stroke="#FFFFFF" stroke-linecap="round" stroke-linejoin="round" stroke-width="1.2">
                        <polyline id="Shape" points="274 18 280 24 274 30"></polyline>
                    </g>
                    <g id="NavItemSeparator/Default" fill="#FFFFFF" fill-rule="evenodd" opacity="0.149999991">
                        <rect id="Rectangle-3" x="40" y="0" width="259" height="1"></rect>
                    </g>
                    <g id="NavItemDot/Yellow" transform="translate(8.000000, 1.000000)" fill="#FFD87B" fill-rule="evenodd" stroke-width="1">
                        <g id="Account" transform="translate(12.000000, 18.000000)">
                            <circle id="Oval-2" cx="4" cy="4" r="4"></circle>
                        </g>
                    </g>
                    <text id="Label" font-family="Roboto-Medium, Roboto" font-size="16" font-weight="400" line-spacing="44" fill="#FFFFFF">
                        <tspan x="40" y="16">Advanced</tspan>
                    </text>
                </g>
                <g id="NavItem/Default" transform="translate(0.000000, 90.000000)">
                    <g id="NavItemBackground/Default" opacity="0.25" stroke="#FFFFFF" stroke-linecap="round" stroke-linejoin="round" stroke-width="1.2">
                        <polyline id="Shape" points="274 18 280 24 274 30"></polyline>
                    </g>
                    <g id="NavItemSeparator/Default" fill="#FFFFFF" fill-rule="evenodd" opacity="0.149999991">
                        <rect id="Rectangle-3" x="40" y="0" width="259" height="1"></rect>
                    </g>
                    <g id="NavItemDot/Green" transform="translate(8.000000, 1.000000)" fill="#A7FFB9" fill-rule="evenodd" stroke-width="1">
                        <g id="Account" transform="translate(12.000000, 18.000000)">
                            <circle id="Oval-2" cx="4" cy="4" r="4"></circle>
                        </g>
                    </g>
                    <text id="Label" font-family="Roboto-Medium, Roboto" font-size="16" font-weight="400" line-spacing="44" fill="#FFFFFF">
                        <tspan x="40" y="16">Receive</tspan>
                    </text>
                </g>
                <g id="NavItem/Default" transform="translate(0.000000, 225.000000)">
                    <g id="NavItemBackground/Default" opacity="0.25" stroke="#FFFFFF" stroke-linecap="round" stroke-linejoin="round" stroke-width="1.2">
                        <polyline id="Shape" points="274 18 280 24 274 30"></polyline>
                    </g>
                    <g id="NavItemSeparator/Default" fill="#FFFFFF" fill-rule="evenodd" opacity="0.149999991">
                        <rect id="Rectangle-3" x="40" y="0" width="259" height="1"></rect>
                    </g>
                    <g id="NavItemDot/DarkGreen" transform="translate(8.000000, 1.000000)" fill="#2EB358" fill-rule="evenodd" stroke-width="1">
                        <g id="Account" transform="translate(12.000000, 18.000000)">
                            <circle id="Oval-2" cx="4" cy="4" r="4"></circle>
                        </g>
                    </g>
                    <text id="Label" font-family="Roboto-Medium, Roboto" font-size="16" font-weight="400" line-spacing="44" fill="#FFFFFF">
                        <tspan x="40" y="16">Settings</tspan>
                    </text>
                </g>
            </g>
            <g id="Network-status---dark" transform="translate(0.000000, 648.000000)" fill-rule="evenodd">
                <rect id="Rectangle" fill="#000000" x="0" y="0" width="300" height="120"></rect>
                <g stroke-width="1">
                    <rect id="Rectangle" fill-opacity="0" fill="#D8D8D8" x="0" y="0" width="300" height="120"></rect>
                    <rect id="Rectangle" fill="#404040" x="0" y="0" width="300" height="1"></rect>
                    <g id="lightning" transform="translate(27.000000, 26.000000)" fill="#FA6800" fill-rule="nonzero">
                        <path d="M1.09102061,27 C1.0108412,27 0.930116358,26.98272 0.853755019,26.946 C0.606671541,26.8272 0.487220589,26.5464 0.573945253,26.28882 L4.69800303,14.04 L0.54558247,14.04 C0.363406131,14.04 0.193229431,13.94982 0.0917779375,13.7997 C-0.00967355656,13.64958 -0.0282184533,13.45896 0.0421430667,13.29264 L5.49652447,0.33264 C5.58106738,0.13122 5.77960686,0 5.99996387,0 L11.1816262,0 C11.3665297,0 11.5388882,0.09288 11.6392488,0.24624 C11.7401549,0.40014 11.7548817,0.59346 11.6796112,0.76032 L7.38701306,10.26 L11.4543453,10.26 C11.6545211,10.26 11.8388792,10.36908 11.9343308,10.54296 C12.0297825,10.71738 12.0205101,10.9296 11.910877,11.09538 L1.54755233,26.75538 C1.44337365,26.91306 1.26992432,27 1.09102061,27 Z" id="Shape"></path>
                    </g>
                    <text id="Network-status" opacity="0.5" font-family="Roboto-Medium, Roboto" font-size="13" font-weight="400" fill="#FFFFFF">
                        <tspan x="50" y="33">Network status</tspan>
                    </text>
                    <text id="Synchronizing" font-family="Roboto-Medium, Roboto" font-size="20" font-weight="400" fill="#FFFFFF">
                        <tspan x="50" y="53">Synchronizing</tspan>
                    </text>
                    <text id="Blocks-remaining" font-family="Roboto-Medium, Roboto" font-size="13" font-weight="400" fill="#FFFFFF">
                        <tspan x="20" y="83">Blocks remaining</tspan>
                    </text>
                    <text id="67,775" font-family="Roboto-Medium, Roboto" font-size="13" font-weight="400" fill="#FFFFFF">
                        <tspan x="240.206543" y="83">67,775</tspan>
                    </text>
                    <rect id="Rectangle-5" fill="#FFFFFF" opacity="0.200000003" x="20" y="92" width="260" height="8" rx="4"></rect>
                    <rect id="Rectangle-5" fill="#FA6800" x="20" y="92" width="171" height="8" rx="4"></rect>
                </g>
            </g>
            <rect id="Rectangle-2" fill="#D8D8D8" fill-rule="evenodd" opacity="0.149999991" x="299" y="50" width="1" height="716"></rect>
            <g id="Balance-card" transform="translate(20.000000, 90.000000)" fill-rule="evenodd" stroke-width="1">
                <g>
                    <g id="Card-shadow">
                        <use fill="black" fill-opacity="1" filter="url(#filter-5)" xlink:href="#path-4"></use>
                        <use fill-opacity="0" fill="#4C4C4C" fill-rule="evenodd" xlink:href="#path-4"></use>
                    </g>
                    <g id="Card-background">
                        <mask id="mask-8" fill="white">
                            <use xlink:href="#path-7"></use>
                        </mask>
                        <g id="Rectangle-8">
                            <use fill="#4C4C4C" xlink:href="#path-7"></use>
                            <use fill-opacity="0.2" fill="url(#linearGradient-6)" xlink:href="#path-7"></use>
                        </g>
                        <g id="Copy" mask="url(#mask-8)" font-weight="normal">
                            <g transform="translate(20.000000, 66.000000)">
                                <text id="Your-balance" font-family="Roboto-Regular, Roboto" font-size="12">
                                    <tspan x="0" y="11" fill="#FFFFFF">Your balance</tspan>
                                </text>
                                <text id="Unlocked-balance" font-family="Roboto-Regular, Roboto" font-size="12">
                                    <tspan x="0" y="61" fill="#FFFFFF">Unlocked balance</tspan>
                                </text>
                                <text id="9.377160181" font-family="RobotoMono-Light, Roboto Mono Light" font-size="20">
                                    <tspan x="0" y="34" fill="#FFFFFF">9.377160181</tspan>
                                </text>
                                <text id="0.17615" font-family="RobotoMono-Light, Roboto Mono Light" font-size="20">
                                    <tspan x="0" y="84" fill="#FFFFFF">0.17615</tspan>
                                </text>
                            </g>
                        </g>
                        <path d="M204.226939,-34 C280.479602,-34 342.315789,28.692 342.315789,106 C342.32398,121.025025 339.946041,135.953389 335.273258,150.212 L293.984692,150.212 L293.984692,32.416 L204.226939,123.416 L114.469186,32.416 L114.469186,150.212 L73.1806202,150.212 C68.4923805,135.957236 66.1140323,121.026307 66.1380889,106 C66.1380889,28.692 127.974276,-34 204.226939,-34 Z M183.596465,144.36 L204.226939,165.276 L224.857413,144.36 L264.019411,104.628 L264.019411,178.744 L322.210053,178.744 C297.989269,219.064 254.215103,246 204.226939,246 C154.238775,246 110.46461,219.064 86.2162077,178.744 L144.406849,178.744 L144.406849,104.628 L183.596465,144.36 Z" id="Shape" fill="url(#radialGradient-9)" fill-rule="nonzero" opacity="0.149999991" mask="url(#mask-8)"></path>
                        <text id="MONERO" mask="url(#mask-8)" font-family="CenturyGothic-Bold, Century Gothic" font-size="20.48" font-weight="bold" letter-spacing="-0.96" fill="#FFFFFF">
                            <tspan x="60" y="44">MONER</tspan>
                            <tspan x="128.51" y="44" letter-spacing="-0.64">O</tspan>
                        </text>
                        <g id="Group-10" mask="url(#mask-8)">
                            <g transform="translate(20.000000, 20.000000)" id="xmr">
                                <g>
                                    <g transform="translate(0.000000, 2.000000)" fill="#FFFFFF" fill-rule="nonzero" id="Shape">
                                        <path d="M13.8226939,0 C6.1974276,0 0.013808885,6.2692 0.013808885,14 C0.0114032251,15.5026307 0.249238053,16.9957236 0.718062022,18.4212 L4.84691865,18.4212 L4.84691865,6.6416 L13.8226939,15.7416 L22.7984692,6.6416 L22.7984692,18.4212 L26.9273258,18.4212 C27.3946041,16.9953389 27.632398,15.5025025 27.6315789,14 C27.6315789,6.2692 21.4479602,0 13.8226939,0"></path>
                                        <path d="M11.7596465,17.836 L7.84068492,13.8628 L7.84068492,21.2744 L2.02162077,21.2744 C4.44646098,25.3064 8.82387753,28 13.8226939,28 C18.8215103,28 23.1989269,25.3064 25.6210053,21.2744 L19.8019411,21.2744 L19.8019411,13.8628 L15.8857413,17.836 L13.8226939,19.9276 L11.7596465,17.836 L11.7596465,17.836 Z"></path>
                                    </g>
                                </g>
                            </g>
                        </g>
                    </g>
                </g>
            </g>
            <g id="Nav-bar" fill-rule="evenodd">
                <rect id="Rectangle-2" fill="#000000" x="0" y="0" width="1024" height="50"></rect>
                <rect id="Rectangle-2" fill="url(#linearGradient-10)" opacity="0.100000001" x="0" y="0" width="1024" height="50"></rect>
                <rect id="Rectangle" fill="#FFFFFF" opacity="0.149999991" x="0" y="49" width="1024" height="1"></rect>
                <g id="logo" stroke-width="1" transform="translate(449.000000, 11.000000)">
                    <text id="MONERO" font-family="CenturyGothic-Bold, Century Gothic" font-size="20.48" font-weight="bold" letter-spacing="-0.96" fill="#FFFFFF">
                        <tspan x="40" y="21">MONER</tspan>
                        <tspan x="108.51" y="21" letter-spacing="-0.64">O</tspan>
                    </text>
                    <g>
                        <mask id="mask-12" fill="white">
                            <use xlink:href="#path-11"></use>
                        </mask>
                        <use id="Oval-3" fill="#FFFFFF" xlink:href="#path-11"></use>
                        <g id="xmr" mask="url(#mask-12)" fill-rule="nonzero">
                            <g transform="translate(-8.960000, -11.200000)" id="Shape">
                                <path d="M33.8154687,0.24609375 C26.0081319,0.24609375 0.04703125,14.5929858 0.04703125,22.4010938 C0.0445681495,23.9187508 9.21520424,28.3656808 9.69522244,29.805412 L13.9226649,29.805412 L13.9226649,17.908016 L23.1127572,27.099016 L32.3028495,17.908016 L32.3028495,29.805412 L36.5302919,29.805412 C37.0087275,28.3652923 43.1284949,28.6165436 43.1276562,27.099016 C43.1276562,19.290908 30.9200941,11.2 23.1127572,11.2" fill="#FA6800"></path>
                                <path d="M16.9582984,25.201428 L16.9582984,32.687144 L11.0222594,32.687144 C8.995,39.865 17.9598466,48.335 23.0591492,48.335 C28.1584518,48.335 41.584375,39.816875 35.096039,32.687144 L29.16,32.687144 L29.16,25.201428 L25.1650767,29.21436 L23.0605579,31.326876 L20.956039,29.21436 L16.9582984,25.201428 Z" fill="#4C4C4C"></path>
                            </g>
                        </g>
                    </g>
                </g>
                <g id="fullscreen" opacity="0.75" stroke-width="1" transform="translate(943.000000, 16.000000)" stroke="#FFFFFF">
                    <rect id="Rectangle-7" stroke-width="1.63636364" x="0.818181818" y="0.818181818" width="16.3636364" height="16.3636364" rx="1.63636364"></rect>
                    <rect id="Rectangle-7" stroke-width="1.63636364" fill="#FFFFFF" x="0.818181818" y="0.818181818" width="16.3636364" height="3.27272727" rx="1.63636364"></rect>
                </g>
                <g id="sidebar" opacity="0.75" stroke-width="1" transform="translate(16.000000, 16.000000)" stroke="#FFFFFF">
                    <rect id="Rectangle-7" stroke-width="1.63636364" x="0.818181818" y="0.818181818" width="16.3636364" height="16.3636364" rx="1.63636364"></rect>
                    <path d="M6.18181818,17.1818182 L6.18181818,0.818181818 L1.63999999,0.818181818 C1.18612234,0.818181818 0.818181818,1.18612234 0.818181818,1.63999999 L0.818181818,16.36 C0.818181818,16.8138777 1.18612234,17.1818182 1.63999999,17.1818182 L6.18181818,17.1818182 Z" id="Rectangle-7" stroke-width="1.63636364" fill="#FFFFFF"></path>
                </g>
                <rect id="minimize" stroke="#FFFFFF" stroke-width="2" fill="#FFFFFF" opacity="0.75" x="899" y="31" width="16" height="2" rx="1"></rect>
                <g id="close" opacity="0.75" stroke-width="1" transform="translate(988.000000, 18.000000)" stroke="#FFFFFF" stroke-linecap="round">
                    <path d="M0,0 L14,14" id="Shape" stroke-width="1.85022026"></path>
                    <path d="M14,0 L0,14" id="Shape" stroke-width="1.85022026"></path>
                </g>
            </g>
        </g>
        <g id="Input---address" transform="translate(349.000000, 151.000000)">
            <text id="Search…" opacity="0.25" font-family="Roboto-Regular, Roboto" font-size="16" font-weight="normal" fill="#FFFFFF">
                <tspan x="10" y="22">Search…</tspan>
            </text>
            <rect id="Rectangle-4" stroke="#FFFFFF" opacity="0.25" x="0.5" y="0.5" width="624" height="31" rx="3"></rect>
            <g id="close" transform="translate(604.000000, 11.000000)" stroke="#808080" stroke-linecap="round" stroke-width="1.5">
                <path d="M0,0 L10,10" id="Shape"></path>
                <path d="M10,0 L0,10" id="Shape"></path>
            </g>
        </g>
        <g id="Input---address" transform="translate(349.000000, 105.000000)">
            <text id="Date-from" font-family="Roboto-Medium, Roboto" font-size="14" font-weight="400" fill="#FFFFFF">
                <tspan x="0" y="112">Date from</tspan>
            </text>
            <text id="12-transactions-foun" font-family="Roboto-Medium, Roboto" font-size="14" font-weight="400" fill="#FFFFFF">
                <tspan x="0" y="192">12 transactions found</tspan>
            </text>
            <text id="Page-1-of-3" font-family="Roboto-Medium, Roboto" font-size="14" font-weight="400" fill="#FFFFFF">
                <tspan x="507" y="192">Page 1 of 3</tspan>
            </text>
            <text id="Sort-&amp;-filter" font-family="Roboto-Medium, Roboto" font-size="14" font-weight="400" fill="#FFFFFF">
                <tspan x="535" y="13">Sort &amp; filter</tspan>
            </text>
            <polyline id="Shape" stroke="#FFFFFF" stroke-width="1.2" stroke-linecap="round" stroke-linejoin="round" points="619 181 625 187 619 193"></polyline>
            <polyline id="Shape" stroke="#FFFFFF" stroke-width="1.2" stroke-linecap="round" stroke-linejoin="round" transform="translate(619.000000, 8.000000) rotate(90.000000) translate(-619.000000, -8.000000) " points="616 2 622 8 616 14"></polyline>
            <polyline id="Shape" stroke="#FFFFFF" stroke-width="1.2" stroke-linecap="round" stroke-linejoin="round" transform="translate(596.000000, 187.000000) scale(-1, 1) translate(-596.000000, -187.000000) " points="593 181 599 187 593 193"></polyline>
            <text id="17.01.2018" font-family="Roboto-Regular, Roboto" font-size="16" font-weight="normal" fill="#FFFFFF">
                <tspan x="10" y="143">17.01.2018</tspan>
            </text>
            <rect id="Rectangle-4" stroke="#FFFFFF" opacity="0.25" x="0.5" y="121.5" width="149" height="31" rx="3"></rect>
            <g id="Calendar" transform="translate(128.000000, 128.000000)" fill="#FFFFFF" fill-rule="nonzero">
                <path d="M0,5.69245648 L0,16.4854932 C0,16.8890135 0.292521739,17.1818182 0.695652174,17.1818182 L15.3043478,17.1818182 C15.7074783,17.1818182 16,16.8890135 16,16.4854932 L16,5.69245648 L0,5.69245648 Z M12.5217391,14.3965184 L3.47826087,14.3965184 L3.47826087,7.78143133 L12.5217391,7.78143133 L12.5217391,14.3965184 Z" id="Shape"></path>
                <polygon id="Shape" points="3.13043478 10.2185687 12.8695652 10.2185687 12.8695652 9.52224371 3.13043478 9.52224371"></polygon>
                <polygon id="Shape" points="3.13043478 12.655706 12.8695652 12.655706 12.8695652 11.959381 3.13043478 11.959381"></polygon>
                <polygon id="Shape" points="7.65217391 7.43326886 7.65217391 14.7446809 8.34782609 14.7446809 8.34782609 7.43326886"></polygon>
                <polygon id="Shape" points="5.2173913 7.43326886 5.2173913 14.7446809 5.91304348 14.7446809 5.91304348 7.43326886"></polygon>
                <polygon id="Shape" points="10.0869565 7.43326886 10.0869565 14.7446809 10.7826087 14.7446809 10.7826087 7.43326886"></polygon>
                <path d="M12.5217391,3.25531915 L12.5217391,1.16634429 L11.826087,1.16634429 L11.826087,3.25531915 L12.5217391,3.25531915 Z M12.5217391,3.9516441 L11.826087,3.9516441 C11.4419879,3.9516441 11.1304348,3.63978966 11.1304348,3.25531915 L11.1304348,1.16634429 C11.1304348,0.781873781 11.4419879,0.470019342 11.826087,0.470019342 L12.5217391,0.470019342 C12.9058382,0.470019342 13.2173913,0.781873781 13.2173913,1.16634429 L13.2173913,3.25531915 C13.2173913,3.63978966 12.9058382,3.9516441 12.5217391,3.9516441 Z" id="Shape"></path>
                <path d="M4.17391304,3.25531915 L4.17391304,1.16634429 L3.47826087,1.16634429 L3.47826087,3.25531915 L4.17391304,3.25531915 Z M4.17391304,3.9516441 L3.47826087,3.9516441 C3.09416183,3.9516441 2.7826087,3.63978966 2.7826087,3.25531915 L2.7826087,1.16634429 C2.7826087,0.781873781 3.09416183,0.470019342 3.47826087,0.470019342 L4.17391304,0.470019342 C4.55801209,0.470019342 4.86956522,0.781873781 4.86956522,1.16634429 L4.86956522,3.25531915 C4.86956522,3.63978966 4.55801209,3.9516441 4.17391304,3.9516441 Z" id="Shape"></path>
                <path d="M15.3043478,1.86266925 L12.8695652,1.86266925 L12.8695652,3.60348162 L11.4782609,3.60348162 L11.4782609,1.86266925 L4.52173913,1.86266925 L4.52173913,3.60348162 L3.13043478,3.60348162 L3.13043478,1.86266925 L0.695652174,1.86266925 C0.292521739,1.86266925 0,2.15547389 0,2.5589942 L0,4.99613153 L16,4.99613153 L16,2.5589942 C16,2.15547389 15.7074783,1.86266925 15.3043478,1.86266925 Z" id="Shape"></path>
            </g>
        </g>
        <g id="Input---address" transform="translate(519.000000, 204.000000)">
            <text id="To" font-family="Roboto-Medium, Roboto" font-size="14" font-weight="400" fill="#FFFFFF">
                <tspan x="0" y="13">To</tspan>
            </text>
            <text id="17.02.2018" font-family="Roboto-Regular, Roboto" font-size="16" font-weight="normal" fill="#FFFFFF">
                <tspan x="10" y="44">17.02.2018</tspan>
            </text>
            <rect id="Rectangle-4" stroke="#FFFFFF" opacity="0.25" x="0.5" y="22.5" width="149" height="31" rx="3"></rect>
            <g id="Calendar" transform="translate(128.000000, 29.000000)" fill="#FFFFFF" fill-rule="nonzero">
                <path d="M0,5.69245648 L0,16.4854932 C0,16.8890135 0.292521739,17.1818182 0.695652174,17.1818182 L15.3043478,17.1818182 C15.7074783,17.1818182 16,16.8890135 16,16.4854932 L16,5.69245648 L0,5.69245648 Z M12.5217391,14.3965184 L3.47826087,14.3965184 L3.47826087,7.78143133 L12.5217391,7.78143133 L12.5217391,14.3965184 Z" id="Shape"></path>
                <polygon id="Shape" points="3.13043478 10.2185687 12.8695652 10.2185687 12.8695652 9.52224371 3.13043478 9.52224371"></polygon>
                <polygon id="Shape" points="3.13043478 12.655706 12.8695652 12.655706 12.8695652 11.959381 3.13043478 11.959381"></polygon>
                <polygon id="Shape" points="7.65217391 7.43326886 7.65217391 14.7446809 8.34782609 14.7446809 8.34782609 7.43326886"></polygon>
                <polygon id="Shape" points="5.2173913 7.43326886 5.2173913 14.7446809 5.91304348 14.7446809 5.91304348 7.43326886"></polygon>
                <polygon id="Shape" points="10.0869565 7.43326886 10.0869565 14.7446809 10.7826087 14.7446809 10.7826087 7.43326886"></polygon>
                <path d="M12.5217391,3.25531915 L12.5217391,1.16634429 L11.826087,1.16634429 L11.826087,3.25531915 L12.5217391,3.25531915 Z M12.5217391,3.9516441 L11.826087,3.9516441 C11.4419879,3.9516441 11.1304348,3.63978966 11.1304348,3.25531915 L11.1304348,1.16634429 C11.1304348,0.781873781 11.4419879,0.470019342 11.826087,0.470019342 L12.5217391,0.470019342 C12.9058382,0.470019342 13.2173913,0.781873781 13.2173913,1.16634429 L13.2173913,3.25531915 C13.2173913,3.63978966 12.9058382,3.9516441 12.5217391,3.9516441 Z" id="Shape"></path>
                <path d="M4.17391304,3.25531915 L4.17391304,1.16634429 L3.47826087,1.16634429 L3.47826087,3.25531915 L4.17391304,3.25531915 Z M4.17391304,3.9516441 L3.47826087,3.9516441 C3.09416183,3.9516441 2.7826087,3.63978966 2.7826087,3.25531915 L2.7826087,1.16634429 C2.7826087,0.781873781 3.09416183,0.470019342 3.47826087,0.470019342 L4.17391304,0.470019342 C4.55801209,0.470019342 4.86956522,0.781873781 4.86956522,1.16634429 L4.86956522,3.25531915 C4.86956522,3.63978966 4.55801209,3.9516441 4.17391304,3.9516441 Z" id="Shape"></path>
                <path d="M15.3043478,1.86266925 L12.8695652,1.86266925 L12.8695652,3.60348162 L11.4782609,3.60348162 L11.4782609,1.86266925 L4.52173913,1.86266925 L4.52173913,3.60348162 L3.13043478,3.60348162 L3.13043478,1.86266925 L0.695652174,1.86266925 C0.292521739,1.86266925 0,2.15547389 0,2.5589942 L0,4.99613153 L16,4.99613153 L16,2.5589942 C16,2.15547389 15.7074783,1.86266925 15.3043478,1.86266925 Z" id="Shape"></path>
            </g>
        </g>
        <g id="Rectangle-5">
            <use fill="black" fill-opacity="1" filter="url(#filter-14)" xlink:href="#path-13"></use>
            <use fill="#000000" fill-rule="evenodd" xlink:href="#path-13"></use>
        </g>
        <g id="TransactionItem/Expanded" transform="translate(300.000000, 324.000000)">
            <g id="Rectangle-5" fill-rule="evenodd">
                <use fill-opacity="0.05" fill="#FFFFFF" xlink:href="#path-16"></use>
                <use fill-opacity="0.03" fill="url(#linearGradient-15)" xlink:href="#path-16"></use>
            </g>
            <rect id="Rectangle-5" fill="#262626" fill-rule="evenodd" x="0" y="0" width="724" height="1"></rect>
            <text id="Transaction-ID" font-family="Roboto-Medium, Roboto" font-size="14" font-weight="400" fill="#C0C0C0">
                <tspan x="50" y="197">Transaction ID</tspan>
            </text>
            <text id="f897-Fk32-lkhf-s7ta" font-family="Roboto-Medium, Roboto" font-size="14" font-weight="400" fill="#FFFFFF">
                <tspan x="50" y="217">f897 Fk32 lkhf s7ta sgfl wMXw tgjh fSal Itnl i3mT gALd z84m yT74 fgml gFis 98j1</tspan>
            </text>
            <text id="Transaction-key" font-family="Roboto-Medium, Roboto" font-size="14" font-weight="400" fill="#C0C0C0">
                <tspan x="50" y="253">Transaction key</tspan>
            </text>
            <text id="z84m-yT74-fgml-gFis" font-family="Roboto-Medium, Roboto" font-size="14" font-weight="400" fill="#FFFFFF">
                <tspan x="50" y="273">z84m yT74 fgml gFis 98j1 f897 Fk32 lkhf s7ta sgfl wMXw tgjh fSal Itnl i3mT gALd</tspan>
            </text>
            <text id="Address-sent-to" font-family="Roboto-Medium, Roboto" font-size="14" font-weight="400" fill="#C0C0C0">
                <tspan x="50" y="309">Address sent to</tspan>
            </text>
            <text id="f897-Fk32-lkhf-s7ta" font-family="Roboto-Medium, Roboto" font-size="14" font-weight="400" fill="#FFFFFF">
                <tspan x="50" y="329">f897 Fk32 lkhf s7ta sgfl wMXw tgjh fSal Itnl i3mT gALd z84m yT74 fgml gFis 98j1</tspan>
            </text>
            <polyline id="Shape" stroke="#C0C0C0" stroke-width="1.2" stroke-linecap="round" stroke-linejoin="round" transform="translate(698.000000, 33.000000) scale(1, -1) rotate(90.000000) translate(-698.000000, -33.000000) " points="695 27 701 33 695 39"></polyline>
            <text id="Payment-ID" font-family="Roboto-Medium, Roboto" font-size="14" font-weight="400" fill="#C0C0C0">
                <tspan x="50" y="141">Payment ID</tspan>
            </text>
            <text id="gALd-z84m-yT74-fgml" font-family="Roboto-Medium, Roboto" font-size="14" font-weight="400" fill="#FFFFFF">
                <tspan x="50" y="161">gALd z84m yT74 fgml gFis 98j1 f897 Fk32 lkhf s7ta sgfl wMXw tgjh fSal Itnl i3mT</tspan>
            </text>
            <text id="Block-height" font-family="Roboto-Medium, Roboto" font-size="14" font-weight="400" fill="#C0C0C0">
                <tspan x="50" y="85">Block height</tspan>
            </text>
            <text id="Confirmations" font-family="Roboto-Medium, Roboto" font-size="14" font-weight="400" fill="#C0C0C0">
                <tspan x="250" y="85">Confirmations</tspan>
            </text>
            <text id="32768672" font-family="Roboto-Medium, Roboto" font-size="14" font-weight="400" fill="#FFFFFF">
                <tspan x="50" y="105">32768672</tspan>
            </text>
            <text id="3" font-family="Roboto-Medium, Roboto" font-size="14" font-weight="400" fill="#FFFFFF">
                <tspan x="250" y="105">3</tspan>
            </text>
            <text id="Date" font-family="Roboto-Medium, Roboto" font-size="14" font-weight="400" fill="#C0C0C0">
                <tspan x="400" y="29">Date</tspan>
            </text>
            <text id="12-minutes-ago" font-family="Roboto-Medium, Roboto" font-size="14" font-weight="400" fill="#FFFFFF">
                <tspan x="400" y="49">12 minutes ago</tspan>
            </text>
            <text id="Received" font-family="Roboto-Medium, Roboto" font-size="14" font-weight="400" fill="#C0C0C0">
                <tspan x="50" y="29">Received</tspan>
            </text>
            <text id="0.0789673-XMR" font-family="Roboto-Medium, Roboto" font-size="14" font-weight="400" fill="#FFFFFF">
                <tspan x="50" y="49">0.0789673 XMR</tspan>
            </text>
            <text id="Fee" font-family="Roboto-Medium, Roboto" font-size="14" font-weight="400" fill="#C0C0C0">
                <tspan x="250" y="29">Fee</tspan>
            </text>
            <text id="0.006437-XMR" font-family="Roboto-Medium, Roboto" font-size="14" font-weight="400" fill="#FFFFFF">
                <tspan x="250" y="49">0.006437 XMR</tspan>
            </text>
            <g id="TransactionTypeIndicator/Received" transform="translate(11.000000, 18.000000)" fill="#2EB358" fill-rule="evenodd">
                <circle id="Oval-4" cx="15" cy="15" r="5"></circle>
            </g>
        </g>
        <g id="TransactionItem/Default" transform="translate(300.000000, 670.000000)">
            <rect id="Rectangle-5" fill="#262626" fill-rule="evenodd" x="0" y="0" width="724" height="1"></rect>
            <polyline id="Shape" stroke="#C0C0C0" stroke-width="1.2" stroke-linecap="round" stroke-linejoin="round" transform="translate(698.000000, 33.000000) rotate(90.000000) translate(-698.000000, -33.000000) " points="695 27 701 33 695 39"></polyline>
            <text id="Yesterday" font-family="Roboto-Medium, Roboto" font-size="14" font-weight="400" fill="#FFFFFF">
                <tspan x="400" y="49">Yesterday</tspan>
            </text>
            <text id="Date" font-family="Roboto-Medium, Roboto" font-size="14" font-weight="400" fill="#C0C0C0">
                <tspan x="400" y="29">Date</tspan>
            </text>
            <text id="0.006437" font-family="Roboto-Medium, Roboto" font-size="14" font-weight="400" fill="#FFFFFF">
                <tspan x="250" y="49">0.006437</tspan>
            </text>
            <text id="Fee" font-family="Roboto-Medium, Roboto" font-size="14" font-weight="400" fill="#C0C0C0">
                <tspan x="250" y="29">Fee</tspan>
            </text>
            <text id="0.0789673" font-family="Roboto-Medium, Roboto" font-size="14" font-weight="400" fill="#FFFFFF">
                <tspan x="50" y="49">0.0789673</tspan>
            </text>
            <text id="Sent" font-family="Roboto-Medium, Roboto" font-size="14" font-weight="400" fill="#C0C0C0">
                <tspan x="50" y="29">Sent</tspan>
            </text>
            <g id="TransactionTypeIndicator/Sent" transform="translate(11.000000, 18.000000)" fill="#FA6800" fill-rule="evenodd">
                <circle id="Oval-4" cx="15" cy="15" r="5"></circle>
            </g>
        </g>
        <g id="TransactionItem/Default" transform="translate(300.000000, 735.000000)">
            <rect id="Rectangle-5" fill="#262626" fill-rule="evenodd" x="0" y="0" width="724" height="1"></rect>
            <polyline id="Shape" stroke="#C0C0C0" stroke-width="1.2" stroke-linecap="round" stroke-linejoin="round" transform="translate(698.000000, 33.000000) rotate(90.000000) translate(-698.000000, -33.000000) " points="695 27 701 33 695 39"></polyline>
            <text id="Yesterday" font-family="Roboto-Medium, Roboto" font-size="14" font-weight="400" fill="#FFFFFF">
                <tspan x="400" y="49">Yesterday</tspan>
            </text>
            <text id="Date" font-family="Roboto-Medium, Roboto" font-size="14" font-weight="400" fill="#C0C0C0">
                <tspan x="400" y="29">Date</tspan>
            </text>
            <text id="0.006437" font-family="Roboto-Medium, Roboto" font-size="14" font-weight="400" fill="#FFFFFF">
                <tspan x="250" y="49">0.006437</tspan>
            </text>
            <text id="Fee" font-family="Roboto-Medium, Roboto" font-size="14" font-weight="400" fill="#C0C0C0">
                <tspan x="250" y="29">Fee</tspan>
            </text>
            <text id="0.0789673" font-family="Roboto-Medium, Roboto" font-size="14" font-weight="400" fill="#FFFFFF">
                <tspan x="50" y="49">0.0789673</tspan>
            </text>
            <text id="Sent" font-family="Roboto-Medium, Roboto" font-size="14" font-weight="400" fill="#C0C0C0">
                <tspan x="50" y="29">Received</tspan>
            </text>
            <g id="TransactionTypeIndicator/Received" transform="translate(11.000000, 18.000000)" fill="#2EB358" fill-rule="evenodd">
                <circle id="Oval-4" cx="15" cy="15" r="5"></circle>
            </g>
        </g>
        <g id="Input---priority" transform="translate(689.000000, 204.000000)">
            <g id="Group-2" transform="translate(0.000000, 22.000000)">
                <text id="Date" font-family="Roboto-Regular, Roboto" font-size="16" font-weight="normal" fill="#FFFFFF">
                    <tspan x="10" y="22">Date</tspan>
                </text>
                <rect id="Rectangle-4" stroke="#FFFFFF" opacity="0.25" x="0.5" y="0.5" width="199" height="31" rx="3"></rect>
                <polyline id="Shape" stroke="#FFFFFF" stroke-width="1.2" stroke-linecap="round" stroke-linejoin="round" transform="translate(184.000000, 16.000000) rotate(90.000000) translate(-184.000000, -16.000000) " points="181 10 187 16 181 22"></polyline>
            </g>
            <text id="Sort-by" font-family="Roboto-Regular, Roboto" font-size="14" font-weight="normal" fill="#FFFFFF">
                <tspan x="0" y="13">Sort by</tspan>
            </text>
            <g id="Group-3" transform="translate(177.000000, 4.000000)" fill="#FFFFFF" fill-rule="nonzero">
                <path d="M13.3292842,4.41761846 L11.4465313,2.53235889 C11.2194334,2.30495861 11.2194706,1.93630718 11.4466145,1.70895288 C11.6737584,1.48159858 12.0419941,1.48163586 12.269092,1.70903614 L15.5555556,4.99987526 L12.2684896,8.29098468 C12.0413802,8.51837347 11.6731445,8.5183921 11.4460121,8.2910263 C11.2188797,8.0636605 11.2188611,7.69500907 11.4459705,7.46762028 L13.3291838,5.58209042 L6.02602388,5.58209042 C5.70482643,5.58209042 5.44444444,5.32141449 5.44444444,4.99985444 C5.44444444,4.67829439 5.70482643,4.41761846 6.02602388,4.41761846 L13.3292842,4.41761846 Z" id="arrow-right-medium-white" transform="translate(10.500000, 5.000000) rotate(90.000000) translate(-10.500000, -5.000000) "></path>
                <path d="M6.32928421,4.41761846 L4.44653132,2.53235889 C4.21943339,2.30495861 4.21947063,1.93630718 4.44661449,1.70895288 C4.67375836,1.48159858 5.04199409,1.48163586 5.26909202,1.70903614 L8.55555556,4.99987526 L5.26848964,8.29098468 C5.04138023,8.51837347 4.6731445,8.5183921 4.44601212,8.2910263 C4.21887974,8.0636605 4.21886112,7.69500907 4.44597054,7.46762028 L6.32918381,5.58209042 L-0.97397612,5.58209042 C-1.29517357,5.58209042 -1.55555556,5.32141449 -1.55555556,4.99985444 C-1.55555556,4.67829439 -1.29517357,4.41761846 -0.97397612,4.41761846 L6.32928421,4.41761846 Z" id="arrow-right-medium-white" transform="translate(3.500000, 5.000000) rotate(270.000000) translate(-3.500000, -5.000000) "></path>
            </g>
        </g>
        <text id="Transactions" font-family="Roboto-Regular, Roboto" font-size="32" font-weight="normal" fill="#FFFFFF">
            <tspan x="349" y="123">Transactions</tspan>
        </text>
    </g>
</svg>